G04 EAGLE Gerber RS-274X export*
G75*
%MOMM*%
%FSLAX34Y34*%
%LPD*%
%INTop Copper*%
%IPPOS*%
%AMOC8*
5,1,8,0,0,1.08239X$1,22.5*%
G01*
%ADD10R,1.300000X1.500000*%
%ADD11R,1.524000X1.524000*%
%ADD12P,1.649562X8X292.500000*%
%ADD13P,1.649562X8X112.500000*%
%ADD14R,1.550000X1.200000*%
%ADD15R,1.500000X1.300000*%
%ADD16P,1.649562X8X202.500000*%
%ADD17R,1.300000X1.600000*%
%ADD18C,0.254000*%
%ADD19C,0.756400*%
%ADD20C,0.508000*%
%ADD21C,0.762000*%
%ADD22C,0.304800*%

G36*
X329881Y365872D02*
X329881Y365872D01*
X330011Y365874D01*
X330105Y365892D01*
X330200Y365901D01*
X330326Y365935D01*
X330453Y365960D01*
X330542Y365994D01*
X330634Y366019D01*
X330752Y366075D01*
X330873Y366122D01*
X330955Y366172D01*
X331041Y366213D01*
X331147Y366288D01*
X331258Y366356D01*
X331329Y366419D01*
X331407Y366475D01*
X331498Y366568D01*
X331595Y366654D01*
X331655Y366729D01*
X331721Y366797D01*
X331794Y366905D01*
X331875Y367007D01*
X331920Y367091D01*
X331973Y367170D01*
X332026Y367289D01*
X332087Y367404D01*
X332117Y367495D01*
X332156Y367582D01*
X332186Y367709D01*
X332226Y367832D01*
X332240Y367927D01*
X332262Y368020D01*
X332270Y368149D01*
X332288Y368278D01*
X332284Y368374D01*
X332290Y368469D01*
X332275Y368598D01*
X332270Y368728D01*
X332249Y368821D01*
X332238Y368916D01*
X332200Y369041D01*
X332172Y369168D01*
X332135Y369256D01*
X332107Y369347D01*
X332048Y369463D01*
X331998Y369583D01*
X331946Y369663D01*
X331903Y369749D01*
X331825Y369852D01*
X331754Y369961D01*
X331668Y370059D01*
X331631Y370107D01*
X331598Y370138D01*
X331547Y370196D01*
X328213Y373529D01*
X328213Y375199D01*
X338374Y375199D01*
X351000Y375199D01*
X351035Y375202D01*
X351069Y375200D01*
X351258Y375222D01*
X351449Y375238D01*
X351482Y375248D01*
X351516Y375252D01*
X351699Y375307D01*
X351883Y375357D01*
X351914Y375372D01*
X351947Y375382D01*
X352118Y375469D01*
X352290Y375550D01*
X352318Y375571D01*
X352349Y375586D01*
X352501Y375701D01*
X352656Y375813D01*
X352680Y375837D01*
X352707Y375858D01*
X352836Y375998D01*
X352970Y376135D01*
X352989Y376164D01*
X353013Y376189D01*
X353115Y376350D01*
X353222Y376508D01*
X353236Y376540D01*
X353254Y376569D01*
X353327Y376746D01*
X353404Y376920D01*
X353412Y376954D01*
X353425Y376986D01*
X353465Y377172D01*
X353511Y377357D01*
X353513Y377392D01*
X353520Y377426D01*
X353539Y377738D01*
X353536Y377773D01*
X353538Y377807D01*
X353516Y377997D01*
X353499Y378187D01*
X353490Y378220D01*
X353486Y378254D01*
X353431Y378437D01*
X353381Y378621D01*
X353366Y378652D01*
X353356Y378685D01*
X353269Y378856D01*
X353187Y379028D01*
X353167Y379056D01*
X353152Y379087D01*
X353036Y379239D01*
X352925Y379394D01*
X352900Y379418D01*
X352880Y379445D01*
X352740Y379575D01*
X352603Y379708D01*
X352574Y379727D01*
X352548Y379751D01*
X352387Y379853D01*
X352230Y379960D01*
X352198Y379974D01*
X352169Y379992D01*
X351992Y380065D01*
X351818Y380142D01*
X351784Y380150D01*
X351752Y380163D01*
X351565Y380204D01*
X351380Y380249D01*
X351346Y380251D01*
X351312Y380258D01*
X351000Y380277D01*
X340913Y380277D01*
X340913Y387899D01*
X342583Y387899D01*
X349204Y381277D01*
X349304Y381193D01*
X349397Y381103D01*
X349477Y381049D01*
X349550Y380988D01*
X349663Y380924D01*
X349770Y380851D01*
X349858Y380812D01*
X349941Y380765D01*
X350063Y380721D01*
X350182Y380668D01*
X350275Y380646D01*
X350365Y380614D01*
X350494Y380593D01*
X350620Y380562D01*
X350715Y380556D01*
X350809Y380540D01*
X350940Y380542D01*
X351069Y380534D01*
X351164Y380545D01*
X351260Y380546D01*
X351387Y380571D01*
X351516Y380586D01*
X351608Y380614D01*
X351702Y380632D01*
X351823Y380679D01*
X351947Y380717D01*
X352032Y380760D01*
X352122Y380794D01*
X352233Y380862D01*
X352349Y380921D01*
X352425Y380979D01*
X352506Y381028D01*
X352604Y381114D01*
X352707Y381193D01*
X352772Y381263D01*
X352844Y381326D01*
X352924Y381428D01*
X353013Y381524D01*
X353064Y381605D01*
X353123Y381680D01*
X353184Y381794D01*
X353254Y381904D01*
X353291Y381992D01*
X353336Y382076D01*
X353376Y382200D01*
X353425Y382320D01*
X353445Y382414D01*
X353475Y382505D01*
X353493Y382633D01*
X353520Y382761D01*
X353528Y382890D01*
X353536Y382951D01*
X353535Y382996D01*
X353539Y383072D01*
X353539Y393340D01*
X353528Y393469D01*
X353526Y393599D01*
X353508Y393693D01*
X353499Y393788D01*
X353465Y393914D01*
X353440Y394041D01*
X353406Y394131D01*
X353381Y394223D01*
X353325Y394340D01*
X353278Y394461D01*
X353228Y394543D01*
X353187Y394629D01*
X353112Y394735D01*
X353044Y394846D01*
X352981Y394918D01*
X352925Y394995D01*
X352832Y395086D01*
X352746Y395184D01*
X352671Y395243D01*
X352603Y395309D01*
X352495Y395382D01*
X352393Y395463D01*
X352309Y395508D01*
X352230Y395562D01*
X352111Y395614D01*
X351996Y395676D01*
X351905Y395705D01*
X351818Y395744D01*
X351691Y395775D01*
X351568Y395815D01*
X351473Y395828D01*
X351380Y395850D01*
X351251Y395858D01*
X351122Y395876D01*
X351026Y395872D01*
X350931Y395878D01*
X350802Y395863D01*
X350672Y395858D01*
X350579Y395837D01*
X350484Y395826D01*
X350359Y395788D01*
X350232Y395760D01*
X350144Y395723D01*
X350053Y395696D01*
X349937Y395637D01*
X349817Y395587D01*
X349736Y395535D01*
X349651Y395491D01*
X349548Y395413D01*
X349439Y395342D01*
X349341Y395256D01*
X349293Y395219D01*
X349262Y395187D01*
X349204Y395135D01*
X347046Y392977D01*
X329702Y392977D01*
X328213Y394466D01*
X328213Y411810D01*
X329702Y413299D01*
X347046Y413299D01*
X349204Y411141D01*
X349304Y411057D01*
X349397Y410967D01*
X349477Y410913D01*
X349550Y410852D01*
X349663Y410787D01*
X349770Y410714D01*
X349858Y410676D01*
X349941Y410628D01*
X350063Y410585D01*
X350182Y410532D01*
X350275Y410510D01*
X350365Y410478D01*
X350494Y410456D01*
X350620Y410426D01*
X350715Y410420D01*
X350809Y410404D01*
X350940Y410406D01*
X351069Y410398D01*
X351164Y410409D01*
X351260Y410410D01*
X351387Y410435D01*
X351516Y410450D01*
X351608Y410478D01*
X351702Y410496D01*
X351823Y410543D01*
X351947Y410580D01*
X352032Y410624D01*
X352122Y410658D01*
X352233Y410726D01*
X352349Y410785D01*
X352425Y410842D01*
X352506Y410892D01*
X352604Y410978D01*
X352707Y411057D01*
X352772Y411127D01*
X352844Y411190D01*
X352924Y411292D01*
X353013Y411388D01*
X353064Y411469D01*
X353123Y411543D01*
X353184Y411658D01*
X353254Y411768D01*
X353291Y411856D01*
X353336Y411940D01*
X353376Y412064D01*
X353425Y412184D01*
X353445Y412278D01*
X353475Y412368D01*
X353493Y412497D01*
X353520Y412624D01*
X353528Y412754D01*
X353536Y412814D01*
X353535Y412859D01*
X353539Y412936D01*
X353539Y469741D01*
X353525Y469905D01*
X353518Y470069D01*
X353505Y470128D01*
X353499Y470189D01*
X353456Y470349D01*
X353420Y470509D01*
X353397Y470565D01*
X353381Y470624D01*
X353310Y470772D01*
X353247Y470924D01*
X353214Y470975D01*
X353187Y471030D01*
X353092Y471164D01*
X353002Y471302D01*
X352951Y471360D01*
X352925Y471396D01*
X352882Y471439D01*
X352795Y471536D01*
X352714Y471618D01*
X349678Y478947D01*
X349640Y479020D01*
X349610Y479097D01*
X349536Y479220D01*
X349469Y479346D01*
X349419Y479412D01*
X349376Y479482D01*
X349281Y479589D01*
X349194Y479702D01*
X349133Y479758D01*
X349078Y479819D01*
X348966Y479908D01*
X348860Y480004D01*
X348789Y480048D01*
X348725Y480099D01*
X348599Y480166D01*
X348477Y480242D01*
X348401Y480272D01*
X348328Y480311D01*
X348192Y480356D01*
X348059Y480409D01*
X347978Y480425D01*
X347900Y480451D01*
X347758Y480470D01*
X347618Y480499D01*
X347536Y480501D01*
X347454Y480512D01*
X347310Y480506D01*
X347168Y480510D01*
X347086Y480497D01*
X347004Y480494D01*
X346864Y480462D01*
X346723Y480441D01*
X346645Y480414D01*
X346564Y480396D01*
X346432Y480341D01*
X346297Y480294D01*
X346225Y480254D01*
X346149Y480222D01*
X346029Y480145D01*
X345904Y480075D01*
X345840Y480023D01*
X345771Y479978D01*
X345586Y479815D01*
X345555Y479790D01*
X345548Y479782D01*
X345537Y479771D01*
X341743Y475977D01*
X333325Y475977D01*
X327373Y481929D01*
X327373Y490347D01*
X333325Y496299D01*
X341743Y496299D01*
X345454Y492587D01*
X345554Y492504D01*
X345647Y492413D01*
X345727Y492359D01*
X345800Y492298D01*
X345913Y492234D01*
X346020Y492161D01*
X346108Y492122D01*
X346191Y492075D01*
X346313Y492031D01*
X346432Y491978D01*
X346525Y491956D01*
X346615Y491924D01*
X346743Y491903D01*
X346870Y491872D01*
X346965Y491866D01*
X347059Y491850D01*
X347189Y491852D01*
X347319Y491844D01*
X347414Y491855D01*
X347510Y491856D01*
X347637Y491881D01*
X347766Y491896D01*
X347858Y491924D01*
X347952Y491942D01*
X348073Y491989D01*
X348197Y492026D01*
X348282Y492070D01*
X348372Y492104D01*
X348483Y492172D01*
X348599Y492231D01*
X348675Y492289D01*
X348756Y492338D01*
X348854Y492424D01*
X348957Y492503D01*
X349022Y492573D01*
X349094Y492636D01*
X349174Y492738D01*
X349263Y492834D01*
X349314Y492915D01*
X349373Y492989D01*
X349434Y493104D01*
X349504Y493214D01*
X349541Y493302D01*
X349586Y493386D01*
X349626Y493510D01*
X349675Y493630D01*
X349695Y493724D01*
X349725Y493815D01*
X349743Y493943D01*
X349770Y494071D01*
X349778Y494200D01*
X349786Y494261D01*
X349785Y494306D01*
X349789Y494382D01*
X349789Y503294D01*
X349778Y503423D01*
X349776Y503553D01*
X349758Y503647D01*
X349749Y503742D01*
X349715Y503868D01*
X349690Y503995D01*
X349656Y504084D01*
X349631Y504176D01*
X349575Y504294D01*
X349528Y504415D01*
X349478Y504497D01*
X349437Y504583D01*
X349362Y504689D01*
X349294Y504800D01*
X349231Y504871D01*
X349175Y504949D01*
X349082Y505040D01*
X348996Y505137D01*
X348921Y505197D01*
X348853Y505263D01*
X348745Y505336D01*
X348643Y505417D01*
X348559Y505462D01*
X348480Y505515D01*
X348361Y505568D01*
X348246Y505629D01*
X348155Y505659D01*
X348068Y505698D01*
X347941Y505728D01*
X347818Y505769D01*
X347723Y505782D01*
X347630Y505804D01*
X347501Y505812D01*
X347372Y505830D01*
X347276Y505826D01*
X347181Y505832D01*
X347052Y505817D01*
X346922Y505812D01*
X346829Y505791D01*
X346734Y505780D01*
X346609Y505742D01*
X346482Y505714D01*
X346394Y505677D01*
X346303Y505650D01*
X346187Y505590D01*
X346067Y505540D01*
X345987Y505489D01*
X345901Y505445D01*
X345798Y505367D01*
X345689Y505296D01*
X345591Y505210D01*
X345543Y505173D01*
X345512Y505140D01*
X345454Y505089D01*
X341743Y501377D01*
X340073Y501377D01*
X340073Y511538D01*
X340073Y521699D01*
X341743Y521699D01*
X345454Y517987D01*
X345554Y517904D01*
X345647Y517813D01*
X345727Y517759D01*
X345800Y517698D01*
X345913Y517634D01*
X346020Y517561D01*
X346108Y517522D01*
X346191Y517475D01*
X346313Y517431D01*
X346432Y517378D01*
X346525Y517356D01*
X346615Y517324D01*
X346743Y517303D01*
X346870Y517272D01*
X346965Y517266D01*
X347059Y517250D01*
X347189Y517252D01*
X347319Y517244D01*
X347414Y517255D01*
X347510Y517256D01*
X347637Y517281D01*
X347766Y517296D01*
X347858Y517324D01*
X347952Y517342D01*
X348073Y517389D01*
X348197Y517426D01*
X348282Y517470D01*
X348372Y517504D01*
X348483Y517572D01*
X348599Y517631D01*
X348675Y517689D01*
X348756Y517738D01*
X348854Y517824D01*
X348957Y517903D01*
X349022Y517973D01*
X349094Y518036D01*
X349174Y518138D01*
X349263Y518234D01*
X349314Y518315D01*
X349373Y518389D01*
X349434Y518504D01*
X349504Y518614D01*
X349541Y518702D01*
X349586Y518786D01*
X349626Y518910D01*
X349675Y519030D01*
X349695Y519124D01*
X349725Y519215D01*
X349743Y519343D01*
X349770Y519471D01*
X349778Y519600D01*
X349786Y519661D01*
X349785Y519706D01*
X349789Y519782D01*
X349789Y677500D01*
X349784Y677562D01*
X349781Y677699D01*
X349692Y678833D01*
X349668Y678974D01*
X349654Y679116D01*
X349627Y679222D01*
X349617Y679277D01*
X349600Y679326D01*
X349576Y679419D01*
X348875Y681576D01*
X348868Y681592D01*
X348864Y681608D01*
X348840Y681662D01*
X348836Y681675D01*
X348822Y681703D01*
X348780Y681798D01*
X348698Y681990D01*
X348689Y682005D01*
X348682Y682020D01*
X348514Y682284D01*
X347181Y684119D01*
X347169Y684132D01*
X347160Y684146D01*
X347023Y684300D01*
X346885Y684458D01*
X346871Y684469D01*
X346860Y684482D01*
X346619Y684681D01*
X345967Y685154D01*
X345804Y685252D01*
X345643Y685354D01*
X345611Y685368D01*
X345581Y685386D01*
X345402Y685453D01*
X345227Y685525D01*
X345193Y685533D01*
X345160Y685545D01*
X344973Y685580D01*
X344786Y685620D01*
X344744Y685623D01*
X344717Y685628D01*
X344656Y685628D01*
X344475Y685639D01*
X15525Y685639D01*
X15335Y685622D01*
X15146Y685611D01*
X15112Y685602D01*
X15077Y685599D01*
X14893Y685549D01*
X14708Y685504D01*
X14676Y685490D01*
X14643Y685481D01*
X14471Y685399D01*
X14296Y685322D01*
X14260Y685299D01*
X14236Y685287D01*
X14187Y685252D01*
X14033Y685154D01*
X13381Y684681D01*
X13368Y684669D01*
X13354Y684660D01*
X13198Y684521D01*
X13042Y684385D01*
X13031Y684371D01*
X13018Y684360D01*
X12819Y684119D01*
X11486Y682284D01*
X11477Y682269D01*
X11466Y682256D01*
X11361Y682075D01*
X11255Y681897D01*
X11249Y681882D01*
X11240Y681867D01*
X11125Y681576D01*
X10424Y679419D01*
X10392Y679279D01*
X10351Y679143D01*
X10336Y679035D01*
X10324Y678980D01*
X10321Y678928D01*
X10308Y678833D01*
X10219Y677699D01*
X10219Y677637D01*
X10211Y677500D01*
X10211Y596522D01*
X10222Y596393D01*
X10224Y596263D01*
X10242Y596169D01*
X10251Y596074D01*
X10285Y595948D01*
X10310Y595821D01*
X10344Y595731D01*
X10369Y595639D01*
X10425Y595522D01*
X10472Y595401D01*
X10522Y595319D01*
X10563Y595233D01*
X10638Y595127D01*
X10706Y595016D01*
X10769Y594944D01*
X10825Y594867D01*
X10918Y594776D01*
X11004Y594679D01*
X11079Y594619D01*
X11147Y594553D01*
X11255Y594480D01*
X11357Y594399D01*
X11441Y594354D01*
X11520Y594301D01*
X11639Y594248D01*
X11754Y594187D01*
X11845Y594157D01*
X11932Y594118D01*
X12059Y594088D01*
X12182Y594047D01*
X12277Y594034D01*
X12370Y594012D01*
X12499Y594004D01*
X12628Y593986D01*
X12724Y593990D01*
X12819Y593984D01*
X12948Y593999D01*
X13078Y594004D01*
X13171Y594025D01*
X13266Y594036D01*
X13391Y594074D01*
X13518Y594102D01*
X13606Y594139D01*
X13697Y594166D01*
X13813Y594225D01*
X13933Y594276D01*
X14013Y594327D01*
X14099Y594371D01*
X14202Y594449D01*
X14311Y594520D01*
X14409Y594606D01*
X14457Y594643D01*
X14488Y594676D01*
X14546Y594727D01*
X21403Y601584D01*
X23972Y602648D01*
X24160Y602746D01*
X24349Y602842D01*
X24359Y602850D01*
X24371Y602857D01*
X24540Y602987D01*
X24707Y603114D01*
X24716Y603124D01*
X24727Y603132D01*
X24869Y603290D01*
X25013Y603446D01*
X25020Y603457D01*
X25028Y603467D01*
X25140Y603645D01*
X25254Y603825D01*
X25259Y603838D01*
X25266Y603849D01*
X25345Y604046D01*
X25425Y604242D01*
X25428Y604255D01*
X25433Y604267D01*
X25476Y604475D01*
X25520Y604682D01*
X25521Y604698D01*
X25523Y604708D01*
X25524Y604748D01*
X25539Y604994D01*
X25539Y622072D01*
X27028Y623561D01*
X44372Y623561D01*
X45861Y622072D01*
X45861Y605090D01*
X45864Y605055D01*
X45862Y605021D01*
X45884Y604832D01*
X45901Y604641D01*
X45910Y604608D01*
X45914Y604574D01*
X45969Y604391D01*
X46019Y604207D01*
X46034Y604176D01*
X46044Y604143D01*
X46131Y603972D01*
X46213Y603800D01*
X46233Y603772D01*
X46248Y603741D01*
X46364Y603589D01*
X46475Y603434D01*
X46500Y603410D01*
X46520Y603383D01*
X46660Y603254D01*
X46797Y603120D01*
X46826Y603101D01*
X46852Y603077D01*
X47013Y602975D01*
X47170Y602868D01*
X47202Y602854D01*
X47231Y602836D01*
X47408Y602763D01*
X47582Y602686D01*
X47616Y602678D01*
X47648Y602665D01*
X47835Y602625D01*
X48020Y602579D01*
X48054Y602577D01*
X48088Y602570D01*
X48400Y602551D01*
X90318Y602551D01*
X90481Y602565D01*
X90646Y602572D01*
X90705Y602585D01*
X90766Y602591D01*
X90925Y602634D01*
X91085Y602670D01*
X91142Y602693D01*
X91201Y602709D01*
X91349Y602780D01*
X91501Y602843D01*
X91552Y602876D01*
X91607Y602903D01*
X91741Y602998D01*
X91879Y603088D01*
X91937Y603139D01*
X91973Y603165D01*
X92016Y603208D01*
X92113Y603294D01*
X143823Y655004D01*
X143907Y655104D01*
X143997Y655197D01*
X144051Y655277D01*
X144112Y655350D01*
X144177Y655463D01*
X144249Y655570D01*
X144288Y655658D01*
X144335Y655741D01*
X144379Y655863D01*
X144432Y655982D01*
X144454Y656075D01*
X144486Y656165D01*
X144508Y656294D01*
X144538Y656420D01*
X144544Y656515D01*
X144560Y656609D01*
X144558Y656740D01*
X144566Y656869D01*
X144555Y656964D01*
X144554Y657060D01*
X144529Y657187D01*
X144514Y657316D01*
X144486Y657408D01*
X144468Y657502D01*
X144439Y657576D01*
X144439Y666961D01*
X153814Y666961D01*
X153909Y666937D01*
X154032Y666897D01*
X154127Y666884D01*
X154220Y666862D01*
X154349Y666854D01*
X154478Y666836D01*
X154574Y666840D01*
X154669Y666834D01*
X154798Y666849D01*
X154928Y666854D01*
X155021Y666875D01*
X155116Y666886D01*
X155241Y666924D01*
X155368Y666952D01*
X155456Y666989D01*
X155547Y667016D01*
X155663Y667075D01*
X155783Y667125D01*
X155864Y667177D01*
X155948Y667221D01*
X156052Y667299D01*
X156161Y667370D01*
X156259Y667456D01*
X156307Y667493D01*
X156338Y667526D01*
X156395Y667577D01*
X156396Y667577D01*
X156501Y667703D01*
X156613Y667824D01*
X156645Y667875D01*
X156684Y667922D01*
X156766Y668065D01*
X156854Y668204D01*
X156878Y668260D01*
X156908Y668313D01*
X156963Y668468D01*
X157025Y668620D01*
X157038Y668680D01*
X157059Y668737D01*
X157085Y668900D01*
X157120Y669060D01*
X157125Y669137D01*
X157132Y669182D01*
X157131Y669243D01*
X157139Y669372D01*
X157139Y673709D01*
X163091Y679661D01*
X171509Y679661D01*
X177461Y673709D01*
X177461Y667792D01*
X177479Y667586D01*
X177494Y667380D01*
X177499Y667362D01*
X177501Y667344D01*
X177555Y667144D01*
X177607Y666944D01*
X177615Y666924D01*
X177619Y666909D01*
X177640Y666866D01*
X177729Y666657D01*
X177775Y666582D01*
X177813Y666503D01*
X177835Y666471D01*
X177893Y666391D01*
X177965Y666273D01*
X178024Y666208D01*
X178075Y666137D01*
X178174Y666040D01*
X178265Y665938D01*
X178334Y665884D01*
X178397Y665823D01*
X178512Y665745D01*
X178620Y665661D01*
X178698Y665620D01*
X178770Y665571D01*
X178897Y665515D01*
X179018Y665450D01*
X179102Y665424D01*
X179182Y665388D01*
X179316Y665356D01*
X179447Y665314D01*
X179535Y665302D01*
X179620Y665282D01*
X179757Y665273D01*
X179894Y665255D01*
X179982Y665259D01*
X180069Y665254D01*
X180206Y665270D01*
X180344Y665276D01*
X180429Y665296D01*
X180516Y665306D01*
X180648Y665346D01*
X180783Y665377D01*
X180863Y665411D01*
X180947Y665436D01*
X181070Y665499D01*
X181197Y665553D01*
X181270Y665601D01*
X181349Y665641D01*
X181459Y665724D01*
X181574Y665799D01*
X181637Y665860D01*
X181707Y665913D01*
X181801Y666014D01*
X181901Y666109D01*
X181953Y666179D01*
X182013Y666244D01*
X182087Y666360D01*
X182168Y666471D01*
X182207Y666550D01*
X182254Y666624D01*
X182307Y666751D01*
X182368Y666875D01*
X182392Y666959D01*
X182425Y667040D01*
X182454Y667175D01*
X182493Y667307D01*
X182502Y667394D01*
X182520Y667480D01*
X182534Y667708D01*
X182539Y667755D01*
X182538Y667770D01*
X182539Y667792D01*
X182539Y673709D01*
X188491Y679661D01*
X196909Y679661D01*
X202861Y673709D01*
X202861Y665291D01*
X196909Y659339D01*
X190992Y659339D01*
X190863Y659328D01*
X190733Y659326D01*
X190639Y659308D01*
X190544Y659299D01*
X190418Y659265D01*
X190291Y659240D01*
X190201Y659206D01*
X190109Y659181D01*
X189992Y659125D01*
X189871Y659078D01*
X189789Y659028D01*
X189703Y658987D01*
X189597Y658912D01*
X189486Y658844D01*
X189414Y658781D01*
X189337Y658725D01*
X189246Y658632D01*
X189149Y658546D01*
X189089Y658471D01*
X189023Y658403D01*
X188950Y658295D01*
X188869Y658193D01*
X188824Y658109D01*
X188771Y658030D01*
X188718Y657911D01*
X188657Y657796D01*
X188627Y657705D01*
X188588Y657618D01*
X188558Y657491D01*
X188517Y657368D01*
X188504Y657273D01*
X188482Y657180D01*
X188474Y657051D01*
X188456Y656922D01*
X188460Y656826D01*
X188454Y656731D01*
X188469Y656602D01*
X188474Y656472D01*
X188495Y656379D01*
X188506Y656284D01*
X188544Y656159D01*
X188572Y656032D01*
X188609Y655944D01*
X188636Y655853D01*
X188695Y655737D01*
X188746Y655617D01*
X188797Y655536D01*
X188841Y655451D01*
X188919Y655348D01*
X188990Y655239D01*
X189076Y655141D01*
X189113Y655093D01*
X189146Y655062D01*
X189197Y655004D01*
X227647Y616554D01*
X227773Y616449D01*
X227894Y616337D01*
X227945Y616305D01*
X227992Y616266D01*
X228135Y616184D01*
X228274Y616096D01*
X228330Y616072D01*
X228383Y616042D01*
X228538Y615987D01*
X228690Y615925D01*
X228750Y615912D01*
X228807Y615891D01*
X228970Y615865D01*
X229130Y615830D01*
X229207Y615825D01*
X229252Y615818D01*
X229313Y615819D01*
X229442Y615811D01*
X244803Y615811D01*
X247137Y614844D01*
X248924Y613057D01*
X249891Y610723D01*
X249891Y608197D01*
X248924Y605863D01*
X247137Y604076D01*
X244803Y603109D01*
X224497Y603109D01*
X222163Y604076D01*
X168306Y657933D01*
X168279Y657956D01*
X168256Y657981D01*
X168107Y658099D01*
X167960Y658222D01*
X167930Y658239D01*
X167903Y658261D01*
X167735Y658351D01*
X167569Y658445D01*
X167537Y658457D01*
X167506Y658473D01*
X167325Y658532D01*
X167145Y658596D01*
X167111Y658602D01*
X167078Y658613D01*
X166889Y658639D01*
X166701Y658670D01*
X166666Y658669D01*
X166632Y658674D01*
X166441Y658666D01*
X166250Y658664D01*
X166216Y658657D01*
X166182Y658656D01*
X165996Y658614D01*
X165808Y658578D01*
X165776Y658566D01*
X165742Y658558D01*
X165566Y658485D01*
X165388Y658416D01*
X165359Y658398D01*
X165327Y658384D01*
X165167Y658281D01*
X165004Y658182D01*
X164978Y658159D01*
X164949Y658140D01*
X164714Y657933D01*
X99741Y592960D01*
X97597Y590816D01*
X95263Y589849D01*
X48314Y589849D01*
X48185Y589838D01*
X48054Y589836D01*
X47961Y589818D01*
X47866Y589809D01*
X47740Y589775D01*
X47612Y589750D01*
X47523Y589716D01*
X47431Y589691D01*
X47314Y589635D01*
X47192Y589588D01*
X47111Y589538D01*
X47025Y589497D01*
X46919Y589422D01*
X46808Y589354D01*
X46736Y589291D01*
X46659Y589235D01*
X46568Y589142D01*
X46470Y589056D01*
X46411Y588981D01*
X46345Y588913D01*
X46272Y588805D01*
X46191Y588703D01*
X46146Y588619D01*
X46092Y588540D01*
X46040Y588421D01*
X45978Y588306D01*
X45949Y588215D01*
X45910Y588128D01*
X45879Y588001D01*
X45839Y587878D01*
X45826Y587783D01*
X45804Y587690D01*
X45796Y587561D01*
X45778Y587432D01*
X45782Y587336D01*
X45776Y587241D01*
X45791Y587112D01*
X45796Y586982D01*
X45817Y586889D01*
X45828Y586794D01*
X45866Y586669D01*
X45894Y586542D01*
X45931Y586454D01*
X45958Y586363D01*
X46017Y586247D01*
X46061Y586143D01*
X46061Y578790D01*
X46064Y578755D01*
X46062Y578721D01*
X46084Y578532D01*
X46101Y578341D01*
X46110Y578308D01*
X46114Y578274D01*
X46169Y578091D01*
X46219Y577907D01*
X46234Y577876D01*
X46244Y577843D01*
X46331Y577672D01*
X46413Y577500D01*
X46433Y577472D01*
X46448Y577441D01*
X46564Y577289D01*
X46675Y577134D01*
X46700Y577110D01*
X46720Y577083D01*
X46860Y576954D01*
X46997Y576820D01*
X47026Y576801D01*
X47052Y576777D01*
X47213Y576675D01*
X47370Y576568D01*
X47402Y576554D01*
X47431Y576536D01*
X47608Y576463D01*
X47782Y576386D01*
X47816Y576378D01*
X47848Y576365D01*
X48035Y576325D01*
X48220Y576279D01*
X48254Y576277D01*
X48288Y576270D01*
X48600Y576251D01*
X197577Y576251D01*
X197707Y576262D01*
X197837Y576264D01*
X197930Y576282D01*
X198026Y576291D01*
X198151Y576325D01*
X198279Y576350D01*
X198368Y576384D01*
X198460Y576409D01*
X198578Y576465D01*
X198699Y576512D01*
X198781Y576562D01*
X198867Y576603D01*
X198972Y576678D01*
X199084Y576746D01*
X199155Y576809D01*
X199233Y576865D01*
X199324Y576958D01*
X199421Y577044D01*
X199480Y577119D01*
X199547Y577187D01*
X199620Y577295D01*
X199700Y577397D01*
X199746Y577481D01*
X199799Y577560D01*
X199852Y577679D01*
X199913Y577794D01*
X199943Y577885D01*
X199981Y577972D01*
X200012Y578099D01*
X200052Y578222D01*
X200065Y578317D01*
X200088Y578410D01*
X200096Y578539D01*
X200114Y578668D01*
X200110Y578764D01*
X200116Y578859D01*
X200101Y578988D01*
X200095Y579118D01*
X200075Y579211D01*
X200064Y579306D01*
X200026Y579431D01*
X199998Y579558D01*
X199961Y579646D01*
X199933Y579737D01*
X199874Y579853D01*
X199824Y579973D01*
X199772Y580053D01*
X199729Y580139D01*
X199650Y580242D01*
X199580Y580351D01*
X199494Y580449D01*
X199457Y580497D01*
X199424Y580528D01*
X199373Y580586D01*
X198240Y581718D01*
X197277Y584042D01*
X197277Y585182D01*
X197263Y585345D01*
X197256Y585510D01*
X197243Y585569D01*
X197237Y585630D01*
X197194Y585789D01*
X197158Y585949D01*
X197135Y586006D01*
X197119Y586065D01*
X197048Y586213D01*
X196985Y586365D01*
X196952Y586416D01*
X196925Y586471D01*
X196830Y586605D01*
X196740Y586743D01*
X196689Y586801D01*
X196663Y586837D01*
X196620Y586880D01*
X196534Y586977D01*
X195665Y587846D01*
X195539Y587951D01*
X195418Y588063D01*
X195367Y588095D01*
X195320Y588134D01*
X195177Y588216D01*
X195038Y588304D01*
X194982Y588328D01*
X194929Y588358D01*
X194774Y588413D01*
X194622Y588475D01*
X194562Y588488D01*
X194505Y588509D01*
X194342Y588535D01*
X194182Y588570D01*
X194105Y588575D01*
X194060Y588582D01*
X193999Y588581D01*
X193870Y588589D01*
X123781Y588589D01*
X123617Y588575D01*
X123453Y588568D01*
X123393Y588555D01*
X123332Y588549D01*
X123173Y588506D01*
X123013Y588470D01*
X122957Y588447D01*
X122898Y588431D01*
X122750Y588360D01*
X122598Y588297D01*
X122546Y588264D01*
X122491Y588237D01*
X122358Y588142D01*
X122219Y588052D01*
X122162Y588001D01*
X122125Y587975D01*
X122083Y587932D01*
X121985Y587846D01*
X120402Y586262D01*
X118078Y585299D01*
X115562Y585299D01*
X113238Y586262D01*
X111460Y588040D01*
X110497Y590364D01*
X110497Y592880D01*
X111460Y595204D01*
X113238Y596982D01*
X115562Y597945D01*
X118078Y597945D01*
X120402Y596982D01*
X120429Y596954D01*
X120556Y596849D01*
X120676Y596737D01*
X120728Y596705D01*
X120775Y596666D01*
X120917Y596584D01*
X121056Y596496D01*
X121113Y596472D01*
X121166Y596442D01*
X121320Y596387D01*
X121473Y596325D01*
X121532Y596312D01*
X121590Y596291D01*
X121752Y596265D01*
X121913Y596230D01*
X121990Y596225D01*
X122034Y596218D01*
X122095Y596219D01*
X122225Y596211D01*
X197258Y596211D01*
X198659Y595631D01*
X201923Y592366D01*
X202049Y592261D01*
X202170Y592149D01*
X202221Y592117D01*
X202268Y592078D01*
X202411Y591996D01*
X202550Y591908D01*
X202606Y591884D01*
X202659Y591854D01*
X202814Y591799D01*
X202966Y591737D01*
X203026Y591724D01*
X203083Y591703D01*
X203246Y591677D01*
X203406Y591642D01*
X203483Y591637D01*
X203528Y591630D01*
X203589Y591631D01*
X203718Y591623D01*
X204858Y591623D01*
X207182Y590660D01*
X208960Y588882D01*
X209923Y586558D01*
X209923Y584042D01*
X208960Y581718D01*
X207827Y580586D01*
X207744Y580486D01*
X207653Y580393D01*
X207600Y580313D01*
X207538Y580240D01*
X207474Y580127D01*
X207401Y580020D01*
X207362Y579932D01*
X207315Y579849D01*
X207271Y579727D01*
X207219Y579608D01*
X207196Y579515D01*
X207164Y579425D01*
X207143Y579297D01*
X207112Y579170D01*
X207106Y579075D01*
X207091Y578981D01*
X207092Y578851D01*
X207084Y578721D01*
X207095Y578626D01*
X207097Y578530D01*
X207121Y578403D01*
X207136Y578274D01*
X207164Y578182D01*
X207182Y578088D01*
X207229Y577967D01*
X207267Y577843D01*
X207310Y577757D01*
X207345Y577668D01*
X207412Y577557D01*
X207471Y577441D01*
X207529Y577365D01*
X207578Y577284D01*
X207665Y577186D01*
X207743Y577083D01*
X207813Y577018D01*
X207877Y576946D01*
X207979Y576866D01*
X208074Y576777D01*
X208155Y576726D01*
X208230Y576667D01*
X208344Y576605D01*
X208454Y576536D01*
X208542Y576499D01*
X208627Y576454D01*
X208750Y576414D01*
X208871Y576365D01*
X208964Y576345D01*
X209055Y576315D01*
X209183Y576297D01*
X209311Y576270D01*
X209441Y576262D01*
X209501Y576254D01*
X209546Y576255D01*
X209623Y576251D01*
X284537Y576251D01*
X284667Y576262D01*
X284797Y576264D01*
X284891Y576282D01*
X284986Y576291D01*
X285111Y576325D01*
X285239Y576350D01*
X285328Y576384D01*
X285420Y576409D01*
X285537Y576465D01*
X285659Y576512D01*
X285741Y576562D01*
X285827Y576603D01*
X285932Y576678D01*
X286044Y576746D01*
X286115Y576809D01*
X286193Y576865D01*
X286284Y576958D01*
X286381Y577044D01*
X286440Y577119D01*
X286507Y577187D01*
X286580Y577295D01*
X286660Y577397D01*
X286706Y577481D01*
X286759Y577560D01*
X286812Y577679D01*
X286873Y577794D01*
X286903Y577885D01*
X286941Y577972D01*
X286972Y578099D01*
X287012Y578222D01*
X287025Y578317D01*
X287048Y578410D01*
X287056Y578539D01*
X287074Y578668D01*
X287070Y578764D01*
X287076Y578859D01*
X287061Y578988D01*
X287055Y579118D01*
X287035Y579211D01*
X287024Y579306D01*
X286986Y579431D01*
X286958Y579558D01*
X286921Y579646D01*
X286893Y579737D01*
X286834Y579853D01*
X286784Y579973D01*
X286732Y580053D01*
X286689Y580139D01*
X286610Y580242D01*
X286540Y580351D01*
X286454Y580449D01*
X286450Y580453D01*
X285477Y582802D01*
X285477Y585318D01*
X286440Y587642D01*
X286992Y588193D01*
X287097Y588320D01*
X287209Y588440D01*
X287241Y588492D01*
X287280Y588539D01*
X287362Y588681D01*
X287450Y588820D01*
X287474Y588877D01*
X287504Y588930D01*
X287559Y589084D01*
X287621Y589237D01*
X287634Y589296D01*
X287655Y589354D01*
X287681Y589516D01*
X287716Y589677D01*
X287721Y589754D01*
X287728Y589798D01*
X287727Y589859D01*
X287735Y589989D01*
X287735Y593065D01*
X287721Y593228D01*
X287714Y593393D01*
X287701Y593452D01*
X287695Y593513D01*
X287652Y593672D01*
X287616Y593832D01*
X287593Y593889D01*
X287577Y593947D01*
X287506Y594096D01*
X287443Y594248D01*
X287410Y594299D01*
X287383Y594354D01*
X287288Y594488D01*
X287198Y594626D01*
X287147Y594684D01*
X287121Y594720D01*
X287078Y594763D01*
X286992Y594860D01*
X223256Y658596D01*
X223130Y658701D01*
X223009Y658813D01*
X222958Y658845D01*
X222911Y658884D01*
X222768Y658966D01*
X222629Y659054D01*
X222573Y659078D01*
X222520Y659108D01*
X222365Y659163D01*
X222213Y659225D01*
X222153Y659238D01*
X222095Y659259D01*
X221933Y659285D01*
X221772Y659320D01*
X221696Y659325D01*
X221651Y659332D01*
X221590Y659331D01*
X221461Y659339D01*
X209428Y659339D01*
X207939Y660828D01*
X207939Y678172D01*
X209428Y679661D01*
X226772Y679661D01*
X228261Y678172D01*
X228261Y666139D01*
X228275Y665976D01*
X228282Y665811D01*
X228295Y665752D01*
X228301Y665691D01*
X228344Y665532D01*
X228380Y665372D01*
X228403Y665315D01*
X228419Y665257D01*
X228490Y665108D01*
X228553Y664956D01*
X228586Y664905D01*
X228613Y664850D01*
X228708Y664716D01*
X228798Y664578D01*
X228849Y664520D01*
X228875Y664484D01*
X228918Y664441D01*
X229004Y664344D01*
X295246Y598102D01*
X295865Y596609D01*
X295865Y589989D01*
X295879Y589825D01*
X295886Y589661D01*
X295899Y589601D01*
X295905Y589540D01*
X295948Y589381D01*
X295984Y589221D01*
X296007Y589165D01*
X296023Y589106D01*
X296094Y588958D01*
X296157Y588806D01*
X296190Y588754D01*
X296217Y588699D01*
X296312Y588566D01*
X296402Y588427D01*
X296453Y588370D01*
X296479Y588333D01*
X296522Y588291D01*
X296608Y588193D01*
X297160Y587642D01*
X298123Y585318D01*
X298123Y582802D01*
X297148Y580449D01*
X297093Y580393D01*
X297040Y580313D01*
X296978Y580240D01*
X296914Y580127D01*
X296841Y580020D01*
X296802Y579932D01*
X296755Y579849D01*
X296711Y579727D01*
X296659Y579608D01*
X296636Y579515D01*
X296604Y579425D01*
X296583Y579297D01*
X296552Y579170D01*
X296546Y579075D01*
X296531Y578981D01*
X296532Y578851D01*
X296524Y578721D01*
X296535Y578626D01*
X296537Y578531D01*
X296561Y578403D01*
X296576Y578274D01*
X296604Y578182D01*
X296622Y578089D01*
X296669Y577967D01*
X296707Y577843D01*
X296750Y577757D01*
X296785Y577669D01*
X296852Y577557D01*
X296911Y577441D01*
X296969Y577365D01*
X297018Y577284D01*
X297105Y577186D01*
X297183Y577083D01*
X297253Y577018D01*
X297317Y576946D01*
X297419Y576866D01*
X297514Y576777D01*
X297595Y576726D01*
X297670Y576667D01*
X297784Y576606D01*
X297894Y576536D01*
X297982Y576499D01*
X298067Y576454D01*
X298190Y576414D01*
X298311Y576365D01*
X298404Y576345D01*
X298495Y576315D01*
X298623Y576297D01*
X298751Y576270D01*
X298881Y576262D01*
X298941Y576254D01*
X298985Y576255D01*
X299063Y576251D01*
X311600Y576251D01*
X311635Y576254D01*
X311669Y576252D01*
X311858Y576274D01*
X312049Y576291D01*
X312082Y576300D01*
X312116Y576304D01*
X312299Y576359D01*
X312483Y576409D01*
X312514Y576424D01*
X312547Y576434D01*
X312718Y576521D01*
X312890Y576603D01*
X312918Y576623D01*
X312949Y576638D01*
X313101Y576754D01*
X313256Y576865D01*
X313280Y576890D01*
X313307Y576910D01*
X313436Y577050D01*
X313570Y577187D01*
X313589Y577216D01*
X313613Y577242D01*
X313715Y577403D01*
X313822Y577560D01*
X313836Y577592D01*
X313854Y577621D01*
X313927Y577798D01*
X314004Y577972D01*
X314012Y578006D01*
X314025Y578038D01*
X314065Y578225D01*
X314111Y578410D01*
X314113Y578444D01*
X314120Y578478D01*
X314139Y578790D01*
X314139Y585972D01*
X315628Y587461D01*
X332972Y587461D01*
X334461Y585972D01*
X334461Y568628D01*
X332972Y567139D01*
X324172Y567139D01*
X323966Y567121D01*
X323760Y567106D01*
X323742Y567101D01*
X323724Y567099D01*
X323525Y567045D01*
X323324Y566993D01*
X323304Y566985D01*
X323289Y566981D01*
X323246Y566960D01*
X323037Y566871D01*
X322962Y566825D01*
X322883Y566787D01*
X322771Y566707D01*
X322653Y566635D01*
X322588Y566576D01*
X322517Y566525D01*
X322420Y566426D01*
X322318Y566335D01*
X322264Y566266D01*
X322203Y566203D01*
X322125Y566088D01*
X322041Y565980D01*
X322000Y565902D01*
X321951Y565830D01*
X321895Y565703D01*
X321830Y565582D01*
X321804Y565498D01*
X321768Y565418D01*
X321736Y565284D01*
X321694Y565153D01*
X321682Y565065D01*
X321662Y564980D01*
X321653Y564843D01*
X321635Y564706D01*
X321639Y564618D01*
X321634Y564531D01*
X321650Y564394D01*
X321656Y564256D01*
X321676Y564171D01*
X321686Y564084D01*
X321726Y563952D01*
X321757Y563817D01*
X321791Y563737D01*
X321816Y563653D01*
X321879Y563530D01*
X321933Y563403D01*
X321981Y563330D01*
X322021Y563251D01*
X322104Y563141D01*
X322179Y563026D01*
X322240Y562963D01*
X322293Y562893D01*
X322394Y562799D01*
X322489Y562699D01*
X322559Y562647D01*
X322624Y562587D01*
X322740Y562513D01*
X322851Y562432D01*
X322930Y562393D01*
X323004Y562346D01*
X323131Y562293D01*
X323255Y562232D01*
X323339Y562208D01*
X323420Y562175D01*
X323555Y562146D01*
X323687Y562107D01*
X323774Y562098D01*
X323860Y562080D01*
X324088Y562066D01*
X324135Y562061D01*
X324150Y562062D01*
X324172Y562061D01*
X328509Y562061D01*
X334461Y556109D01*
X334461Y547691D01*
X328509Y541739D01*
X320091Y541739D01*
X317025Y544806D01*
X316899Y544911D01*
X316778Y545023D01*
X316727Y545055D01*
X316680Y545094D01*
X316537Y545176D01*
X316398Y545264D01*
X316342Y545288D01*
X316289Y545318D01*
X316134Y545373D01*
X315982Y545435D01*
X315922Y545448D01*
X315864Y545469D01*
X315702Y545495D01*
X315541Y545530D01*
X315464Y545535D01*
X315420Y545542D01*
X315359Y545541D01*
X315230Y545549D01*
X225150Y545549D01*
X225115Y545546D01*
X225081Y545548D01*
X224892Y545526D01*
X224701Y545509D01*
X224668Y545500D01*
X224634Y545496D01*
X224451Y545441D01*
X224267Y545391D01*
X224236Y545376D01*
X224203Y545366D01*
X224032Y545279D01*
X223860Y545197D01*
X223832Y545177D01*
X223801Y545162D01*
X223649Y545046D01*
X223494Y544935D01*
X223470Y544910D01*
X223443Y544890D01*
X223314Y544750D01*
X223180Y544613D01*
X223161Y544584D01*
X223137Y544558D01*
X223035Y544397D01*
X222928Y544240D01*
X222914Y544208D01*
X222896Y544179D01*
X222823Y544002D01*
X222746Y543828D01*
X222738Y543794D01*
X222725Y543762D01*
X222685Y543575D01*
X222639Y543390D01*
X222637Y543356D01*
X222630Y543322D01*
X222611Y543010D01*
X222611Y511780D01*
X222614Y511745D01*
X222612Y511711D01*
X222634Y511522D01*
X222651Y511331D01*
X222660Y511298D01*
X222664Y511264D01*
X222719Y511081D01*
X222769Y510897D01*
X222784Y510866D01*
X222794Y510833D01*
X222881Y510662D01*
X222963Y510490D01*
X222983Y510462D01*
X222998Y510431D01*
X223114Y510279D01*
X223225Y510124D01*
X223250Y510100D01*
X223270Y510073D01*
X223410Y509944D01*
X223547Y509810D01*
X223576Y509791D01*
X223602Y509767D01*
X223763Y509665D01*
X223920Y509558D01*
X223952Y509544D01*
X223981Y509526D01*
X224158Y509453D01*
X224332Y509376D01*
X224366Y509368D01*
X224398Y509355D01*
X224585Y509315D01*
X224770Y509269D01*
X224804Y509267D01*
X224838Y509260D01*
X225150Y509241D01*
X227352Y509241D01*
X228354Y508239D01*
X228381Y508216D01*
X228404Y508190D01*
X228554Y508072D01*
X228700Y507950D01*
X228730Y507933D01*
X228757Y507911D01*
X228925Y507821D01*
X229091Y507726D01*
X229123Y507715D01*
X229154Y507698D01*
X229335Y507639D01*
X229515Y507576D01*
X229549Y507570D01*
X229582Y507559D01*
X229772Y507533D01*
X229959Y507502D01*
X229994Y507503D01*
X230028Y507498D01*
X230219Y507506D01*
X230409Y507508D01*
X230444Y507515D01*
X230478Y507516D01*
X230664Y507557D01*
X230852Y507594D01*
X230884Y507606D01*
X230918Y507614D01*
X231094Y507687D01*
X231272Y507756D01*
X231301Y507774D01*
X231333Y507787D01*
X231493Y507891D01*
X231656Y507990D01*
X231682Y508013D01*
X231711Y508032D01*
X231946Y508239D01*
X232440Y508733D01*
X233019Y509068D01*
X233665Y509241D01*
X238251Y509241D01*
X238251Y500910D01*
X238254Y500876D01*
X238252Y500841D01*
X238274Y500652D01*
X238291Y500462D01*
X238300Y500428D01*
X238304Y500394D01*
X238359Y500211D01*
X238409Y500027D01*
X238424Y499996D01*
X238434Y499963D01*
X238521Y499792D01*
X238603Y499621D01*
X238623Y499593D01*
X238638Y499562D01*
X238754Y499410D01*
X238865Y499255D01*
X238890Y499230D01*
X238910Y499203D01*
X239050Y499074D01*
X239187Y498941D01*
X239216Y498921D01*
X239242Y498898D01*
X239403Y498795D01*
X239560Y498688D01*
X239592Y498674D01*
X239621Y498656D01*
X239798Y498583D01*
X239849Y498561D01*
X239854Y498543D01*
X239941Y498372D01*
X240023Y498200D01*
X240043Y498172D01*
X240059Y498141D01*
X240174Y497989D01*
X240285Y497834D01*
X240310Y497810D01*
X240331Y497783D01*
X240471Y497654D01*
X240608Y497520D01*
X240636Y497501D01*
X240662Y497477D01*
X240823Y497375D01*
X240981Y497268D01*
X241012Y497254D01*
X241042Y497236D01*
X241218Y497163D01*
X241392Y497086D01*
X241426Y497078D01*
X241458Y497065D01*
X241645Y497024D01*
X241830Y496979D01*
X241864Y496977D01*
X241898Y496970D01*
X242210Y496951D01*
X251541Y496951D01*
X251541Y493365D01*
X251368Y492719D01*
X250953Y492002D01*
X250889Y491863D01*
X250816Y491728D01*
X250794Y491659D01*
X250764Y491593D01*
X250725Y491445D01*
X250677Y491300D01*
X250667Y491228D01*
X250649Y491158D01*
X250637Y491005D01*
X250616Y490854D01*
X250619Y490781D01*
X250613Y490709D01*
X250628Y490557D01*
X250634Y490404D01*
X250650Y490333D01*
X250657Y490261D01*
X250699Y490114D01*
X250732Y489964D01*
X250760Y489897D01*
X250780Y489827D01*
X250846Y489690D01*
X250905Y489549D01*
X250945Y489488D01*
X250977Y489423D01*
X251067Y489299D01*
X251150Y489171D01*
X251212Y489100D01*
X251242Y489059D01*
X251283Y489020D01*
X251357Y488936D01*
X251541Y488752D01*
X251541Y488617D01*
X251548Y488535D01*
X251546Y488453D01*
X251568Y488312D01*
X251581Y488169D01*
X251602Y488089D01*
X251615Y488008D01*
X251662Y487872D01*
X251699Y487735D01*
X251734Y487660D01*
X251761Y487582D01*
X251831Y487457D01*
X251893Y487328D01*
X251940Y487261D01*
X251981Y487189D01*
X252071Y487078D01*
X252155Y486962D01*
X252214Y486904D01*
X252266Y486841D01*
X252375Y486748D01*
X252477Y486648D01*
X252546Y486602D01*
X252608Y486548D01*
X252732Y486476D01*
X252850Y486396D01*
X252926Y486362D01*
X252997Y486321D01*
X253131Y486271D01*
X253262Y486213D01*
X253342Y486194D01*
X253420Y486166D01*
X253561Y486141D01*
X253700Y486107D01*
X253782Y486102D01*
X253863Y486087D01*
X254006Y486088D01*
X254149Y486079D01*
X254231Y486089D01*
X254313Y486089D01*
X254454Y486115D01*
X254596Y486131D01*
X254675Y486155D01*
X254756Y486170D01*
X254968Y486243D01*
X257498Y486243D01*
X259822Y485280D01*
X261600Y483502D01*
X262563Y481178D01*
X262563Y478662D01*
X261600Y476338D01*
X259822Y474560D01*
X257498Y473597D01*
X254982Y473597D01*
X254081Y473971D01*
X253879Y474034D01*
X253677Y474100D01*
X253664Y474102D01*
X253651Y474105D01*
X253441Y474132D01*
X253231Y474161D01*
X253218Y474161D01*
X253204Y474162D01*
X252994Y474151D01*
X252781Y474143D01*
X252768Y474140D01*
X252755Y474139D01*
X252550Y474092D01*
X252341Y474045D01*
X252329Y474040D01*
X252316Y474037D01*
X252122Y473953D01*
X251926Y473872D01*
X251915Y473864D01*
X251903Y473859D01*
X251726Y473742D01*
X251548Y473627D01*
X251536Y473617D01*
X251527Y473611D01*
X251498Y473584D01*
X251313Y473420D01*
X250052Y472159D01*
X232948Y472159D01*
X231946Y473161D01*
X231919Y473184D01*
X231896Y473210D01*
X231747Y473328D01*
X231600Y473450D01*
X231570Y473467D01*
X231543Y473489D01*
X231375Y473579D01*
X231209Y473674D01*
X231177Y473685D01*
X231146Y473702D01*
X230965Y473760D01*
X230785Y473824D01*
X230751Y473830D01*
X230718Y473841D01*
X230529Y473867D01*
X230341Y473898D01*
X230306Y473897D01*
X230272Y473902D01*
X230081Y473894D01*
X229891Y473892D01*
X229856Y473885D01*
X229822Y473884D01*
X229636Y473842D01*
X229448Y473806D01*
X229416Y473794D01*
X229382Y473786D01*
X229206Y473713D01*
X229028Y473644D01*
X228999Y473626D01*
X228967Y473613D01*
X228806Y473509D01*
X228644Y473410D01*
X228618Y473387D01*
X228589Y473368D01*
X228354Y473161D01*
X227352Y472159D01*
X210248Y472159D01*
X209496Y472911D01*
X209469Y472934D01*
X209446Y472960D01*
X209297Y473078D01*
X209150Y473200D01*
X209120Y473217D01*
X209093Y473239D01*
X208925Y473329D01*
X208759Y473424D01*
X208727Y473435D01*
X208696Y473452D01*
X208515Y473510D01*
X208335Y473574D01*
X208301Y473580D01*
X208268Y473591D01*
X208079Y473617D01*
X207891Y473648D01*
X207856Y473647D01*
X207822Y473652D01*
X207631Y473644D01*
X207441Y473642D01*
X207406Y473635D01*
X207372Y473634D01*
X207186Y473592D01*
X206998Y473556D01*
X206966Y473544D01*
X206932Y473536D01*
X206756Y473463D01*
X206578Y473394D01*
X206549Y473376D01*
X206517Y473363D01*
X206356Y473259D01*
X206194Y473160D01*
X206168Y473137D01*
X206139Y473118D01*
X205904Y472911D01*
X205052Y472059D01*
X187948Y472059D01*
X187246Y472761D01*
X187219Y472784D01*
X187196Y472810D01*
X187047Y472928D01*
X186900Y473050D01*
X186870Y473067D01*
X186843Y473089D01*
X186675Y473179D01*
X186509Y473274D01*
X186477Y473285D01*
X186446Y473302D01*
X186265Y473361D01*
X186085Y473424D01*
X186051Y473430D01*
X186018Y473441D01*
X185829Y473467D01*
X185641Y473498D01*
X185606Y473497D01*
X185572Y473502D01*
X185381Y473494D01*
X185190Y473492D01*
X185156Y473485D01*
X185122Y473484D01*
X184936Y473443D01*
X184748Y473406D01*
X184716Y473394D01*
X184682Y473386D01*
X184507Y473313D01*
X184328Y473244D01*
X184299Y473226D01*
X184267Y473213D01*
X184107Y473109D01*
X183944Y473010D01*
X183918Y472987D01*
X183889Y472968D01*
X183654Y472761D01*
X182652Y471759D01*
X165372Y471759D01*
X165286Y471810D01*
X165273Y471814D01*
X165262Y471821D01*
X165062Y471892D01*
X164863Y471965D01*
X164850Y471967D01*
X164838Y471972D01*
X164628Y472007D01*
X164420Y472043D01*
X164406Y472043D01*
X164393Y472045D01*
X164180Y472042D01*
X163969Y472042D01*
X163956Y472039D01*
X163943Y472039D01*
X163734Y471999D01*
X163526Y471961D01*
X163511Y471956D01*
X163501Y471954D01*
X163464Y471939D01*
X163231Y471859D01*
X161778Y471257D01*
X159262Y471257D01*
X156938Y472220D01*
X155160Y473998D01*
X154197Y476322D01*
X154197Y478838D01*
X155160Y481162D01*
X156938Y482940D01*
X159262Y483903D01*
X161520Y483903D01*
X161555Y483906D01*
X161589Y483904D01*
X161778Y483926D01*
X161969Y483943D01*
X162002Y483952D01*
X162036Y483956D01*
X162219Y484011D01*
X162403Y484061D01*
X162434Y484076D01*
X162467Y484086D01*
X162638Y484173D01*
X162810Y484255D01*
X162838Y484275D01*
X162869Y484290D01*
X163021Y484406D01*
X163176Y484517D01*
X163200Y484542D01*
X163227Y484562D01*
X163356Y484702D01*
X163490Y484839D01*
X163509Y484868D01*
X163533Y484894D01*
X163635Y485055D01*
X163742Y485212D01*
X163756Y485244D01*
X163774Y485273D01*
X163847Y485450D01*
X163924Y485624D01*
X163932Y485658D01*
X163945Y485690D01*
X163985Y485877D01*
X164031Y486062D01*
X164033Y486096D01*
X164040Y486130D01*
X164059Y486442D01*
X164059Y488352D01*
X164243Y488536D01*
X164335Y488646D01*
X164369Y488681D01*
X164375Y488689D01*
X164446Y488765D01*
X164486Y488826D01*
X164532Y488882D01*
X164608Y489015D01*
X164691Y489143D01*
X164720Y489210D01*
X164756Y489273D01*
X164807Y489417D01*
X164866Y489558D01*
X164882Y489629D01*
X164906Y489697D01*
X164931Y489848D01*
X164965Y489997D01*
X164968Y490070D01*
X164980Y490141D01*
X164978Y490294D01*
X164984Y490447D01*
X164975Y490519D01*
X164974Y490591D01*
X164945Y490742D01*
X164924Y490893D01*
X164902Y490962D01*
X164888Y491033D01*
X164833Y491176D01*
X164786Y491322D01*
X164744Y491406D01*
X164726Y491453D01*
X164696Y491502D01*
X164647Y491602D01*
X164232Y492319D01*
X164059Y492965D01*
X164059Y496551D01*
X173390Y496551D01*
X173424Y496554D01*
X173459Y496552D01*
X173648Y496574D01*
X173838Y496591D01*
X173872Y496600D01*
X173906Y496604D01*
X174087Y496658D01*
X174245Y496624D01*
X174430Y496579D01*
X174464Y496577D01*
X174498Y496570D01*
X174810Y496551D01*
X183920Y496551D01*
X183955Y496554D01*
X183989Y496552D01*
X184178Y496574D01*
X184369Y496591D01*
X184402Y496600D01*
X184436Y496604D01*
X184619Y496659D01*
X184803Y496709D01*
X184834Y496724D01*
X184867Y496734D01*
X185038Y496821D01*
X185101Y496851D01*
X195790Y496851D01*
X195824Y496854D01*
X195859Y496852D01*
X196048Y496874D01*
X196238Y496891D01*
X196272Y496900D01*
X196306Y496904D01*
X196489Y496959D01*
X196673Y497009D01*
X196704Y497024D01*
X196737Y497034D01*
X196908Y497121D01*
X197079Y497203D01*
X197107Y497223D01*
X197138Y497238D01*
X197290Y497354D01*
X197445Y497465D01*
X197470Y497490D01*
X197497Y497510D01*
X197626Y497650D01*
X197759Y497787D01*
X197779Y497816D01*
X197802Y497842D01*
X197905Y498003D01*
X198012Y498160D01*
X198026Y498192D01*
X198044Y498221D01*
X198117Y498398D01*
X198139Y498449D01*
X198157Y498454D01*
X198328Y498541D01*
X198500Y498623D01*
X198528Y498643D01*
X198559Y498659D01*
X198711Y498774D01*
X198866Y498885D01*
X198890Y498910D01*
X198917Y498931D01*
X199046Y499071D01*
X199180Y499208D01*
X199199Y499236D01*
X199223Y499262D01*
X199325Y499423D01*
X199432Y499581D01*
X199446Y499612D01*
X199464Y499642D01*
X199537Y499818D01*
X199614Y499992D01*
X199622Y500026D01*
X199635Y500058D01*
X199675Y500245D01*
X199721Y500430D01*
X199723Y500464D01*
X199730Y500498D01*
X199749Y500810D01*
X199749Y509141D01*
X204335Y509141D01*
X204981Y508968D01*
X205560Y508633D01*
X205804Y508389D01*
X205831Y508366D01*
X205854Y508340D01*
X206004Y508222D01*
X206150Y508100D01*
X206180Y508083D01*
X206207Y508061D01*
X206375Y507971D01*
X206541Y507876D01*
X206573Y507865D01*
X206604Y507848D01*
X206785Y507789D01*
X206965Y507726D01*
X206999Y507720D01*
X207032Y507709D01*
X207222Y507683D01*
X207409Y507652D01*
X207444Y507653D01*
X207478Y507648D01*
X207669Y507656D01*
X207859Y507658D01*
X207893Y507665D01*
X207928Y507666D01*
X208114Y507707D01*
X208302Y507744D01*
X208334Y507756D01*
X208368Y507764D01*
X208543Y507837D01*
X208722Y507906D01*
X208751Y507924D01*
X208783Y507937D01*
X208944Y508041D01*
X209106Y508140D01*
X209132Y508163D01*
X209161Y508182D01*
X209396Y508389D01*
X210248Y509241D01*
X212450Y509241D01*
X212485Y509244D01*
X212519Y509242D01*
X212708Y509264D01*
X212899Y509281D01*
X212932Y509290D01*
X212966Y509294D01*
X213149Y509349D01*
X213333Y509399D01*
X213364Y509414D01*
X213397Y509424D01*
X213568Y509511D01*
X213740Y509593D01*
X213768Y509613D01*
X213799Y509628D01*
X213951Y509744D01*
X214106Y509855D01*
X214130Y509880D01*
X214157Y509900D01*
X214286Y510040D01*
X214420Y510177D01*
X214439Y510206D01*
X214463Y510232D01*
X214565Y510393D01*
X214672Y510550D01*
X214686Y510582D01*
X214704Y510611D01*
X214777Y510788D01*
X214854Y510962D01*
X214862Y510996D01*
X214875Y511028D01*
X214915Y511215D01*
X214961Y511400D01*
X214963Y511434D01*
X214970Y511468D01*
X214989Y511780D01*
X214989Y543010D01*
X214986Y543045D01*
X214988Y543079D01*
X214966Y543268D01*
X214949Y543459D01*
X214940Y543492D01*
X214936Y543526D01*
X214881Y543709D01*
X214831Y543893D01*
X214816Y543924D01*
X214806Y543957D01*
X214719Y544128D01*
X214637Y544300D01*
X214617Y544328D01*
X214602Y544359D01*
X214486Y544511D01*
X214375Y544666D01*
X214350Y544690D01*
X214330Y544717D01*
X214190Y544846D01*
X214053Y544980D01*
X214024Y544999D01*
X213998Y545023D01*
X213837Y545125D01*
X213680Y545232D01*
X213648Y545246D01*
X213619Y545264D01*
X213442Y545337D01*
X213268Y545414D01*
X213234Y545422D01*
X213202Y545435D01*
X213015Y545475D01*
X212830Y545521D01*
X212796Y545523D01*
X212762Y545530D01*
X212450Y545549D01*
X125078Y545549D01*
X125036Y545558D01*
X124932Y545591D01*
X124817Y545605D01*
X124702Y545630D01*
X124548Y545640D01*
X124486Y545647D01*
X124449Y545646D01*
X124390Y545649D01*
X45070Y545649D01*
X44907Y545635D01*
X44742Y545628D01*
X44683Y545615D01*
X44622Y545609D01*
X44463Y545566D01*
X44303Y545530D01*
X44246Y545507D01*
X44188Y545491D01*
X44040Y545420D01*
X43887Y545357D01*
X43836Y545324D01*
X43781Y545297D01*
X43648Y545202D01*
X43509Y545112D01*
X43451Y545061D01*
X43415Y545035D01*
X43372Y544992D01*
X43275Y544906D01*
X40109Y541739D01*
X31691Y541739D01*
X28086Y545345D01*
X27986Y545428D01*
X27893Y545519D01*
X27813Y545573D01*
X27740Y545634D01*
X27627Y545698D01*
X27520Y545771D01*
X27432Y545810D01*
X27349Y545857D01*
X27227Y545901D01*
X27108Y545954D01*
X27015Y545976D01*
X26925Y546008D01*
X26797Y546029D01*
X26670Y546060D01*
X26575Y546066D01*
X26481Y546082D01*
X26351Y546080D01*
X26221Y546088D01*
X26126Y546077D01*
X26030Y546076D01*
X25903Y546051D01*
X25774Y546036D01*
X25682Y546008D01*
X25588Y545990D01*
X25467Y545943D01*
X25343Y545906D01*
X25258Y545862D01*
X25168Y545828D01*
X25057Y545760D01*
X24941Y545701D01*
X24865Y545643D01*
X24784Y545594D01*
X24686Y545508D01*
X24583Y545429D01*
X24518Y545359D01*
X24446Y545296D01*
X24366Y545194D01*
X24277Y545098D01*
X24226Y545017D01*
X24167Y544943D01*
X24106Y544828D01*
X24036Y544718D01*
X23999Y544630D01*
X23954Y544546D01*
X23914Y544422D01*
X23865Y544302D01*
X23845Y544208D01*
X23815Y544117D01*
X23797Y543989D01*
X23770Y543861D01*
X23762Y543732D01*
X23754Y543671D01*
X23755Y543626D01*
X23751Y543550D01*
X23751Y526862D01*
X23765Y526699D01*
X23772Y526534D01*
X23785Y526475D01*
X23791Y526414D01*
X23834Y526255D01*
X23870Y526095D01*
X23893Y526038D01*
X23909Y525979D01*
X23980Y525831D01*
X24043Y525679D01*
X24076Y525628D01*
X24103Y525573D01*
X24198Y525439D01*
X24288Y525301D01*
X24339Y525243D01*
X24365Y525207D01*
X24408Y525164D01*
X24494Y525067D01*
X55884Y493677D01*
X56270Y492745D01*
X56324Y492641D01*
X56369Y492533D01*
X56428Y492442D01*
X56479Y492346D01*
X56508Y492309D01*
X57523Y489858D01*
X57523Y487546D01*
X57534Y487416D01*
X57536Y487285D01*
X57554Y487192D01*
X57563Y487098D01*
X57597Y486972D01*
X57622Y486843D01*
X57656Y486755D01*
X57681Y486663D01*
X57737Y486545D01*
X57784Y486424D01*
X57834Y486342D01*
X57875Y486257D01*
X57951Y486151D01*
X58018Y486039D01*
X58081Y485968D01*
X58137Y485891D01*
X58230Y485799D01*
X58317Y485702D01*
X58391Y485643D01*
X58459Y485577D01*
X58568Y485503D01*
X58670Y485422D01*
X58754Y485378D01*
X58832Y485324D01*
X58952Y485272D01*
X59067Y485210D01*
X59157Y485181D01*
X59244Y485142D01*
X59371Y485111D01*
X59495Y485071D01*
X59589Y485058D01*
X59682Y485036D01*
X59812Y485028D01*
X59941Y485010D01*
X60036Y485014D01*
X60131Y485008D01*
X60261Y485023D01*
X60391Y485028D01*
X60447Y485041D01*
X76252Y485041D01*
X76436Y484857D01*
X76554Y484758D01*
X76665Y484654D01*
X76726Y484614D01*
X76782Y484568D01*
X76915Y484492D01*
X77043Y484409D01*
X77110Y484380D01*
X77173Y484344D01*
X77317Y484293D01*
X77458Y484234D01*
X77529Y484218D01*
X77597Y484194D01*
X77748Y484169D01*
X77897Y484135D01*
X77970Y484132D01*
X78041Y484120D01*
X78194Y484122D01*
X78347Y484116D01*
X78419Y484125D01*
X78491Y484126D01*
X78642Y484155D01*
X78793Y484176D01*
X78862Y484198D01*
X78933Y484212D01*
X79076Y484267D01*
X79222Y484314D01*
X79306Y484356D01*
X79353Y484374D01*
X79402Y484404D01*
X79502Y484453D01*
X80219Y484868D01*
X80865Y485041D01*
X84451Y485041D01*
X84451Y475210D01*
X84454Y475176D01*
X84452Y475141D01*
X84474Y474952D01*
X84491Y474762D01*
X84500Y474728D01*
X84504Y474694D01*
X84559Y474511D01*
X84609Y474327D01*
X84624Y474296D01*
X84634Y474263D01*
X84721Y474092D01*
X84803Y473921D01*
X84823Y473893D01*
X84838Y473862D01*
X84954Y473710D01*
X85065Y473555D01*
X85090Y473530D01*
X85110Y473503D01*
X85250Y473374D01*
X85387Y473241D01*
X85416Y473221D01*
X85442Y473198D01*
X85603Y473095D01*
X85760Y472988D01*
X85792Y472974D01*
X85821Y472956D01*
X85998Y472883D01*
X86049Y472861D01*
X86054Y472843D01*
X86141Y472672D01*
X86223Y472500D01*
X86243Y472472D01*
X86259Y472441D01*
X86374Y472289D01*
X86485Y472134D01*
X86510Y472110D01*
X86531Y472083D01*
X86671Y471954D01*
X86808Y471820D01*
X86836Y471801D01*
X86862Y471777D01*
X87023Y471675D01*
X87181Y471568D01*
X87212Y471554D01*
X87242Y471536D01*
X87418Y471463D01*
X87592Y471386D01*
X87626Y471378D01*
X87658Y471365D01*
X87845Y471324D01*
X88030Y471279D01*
X88064Y471277D01*
X88098Y471270D01*
X88410Y471251D01*
X96741Y471251D01*
X96741Y466750D01*
X96744Y466716D01*
X96742Y466681D01*
X96764Y466491D01*
X96781Y466301D01*
X96790Y466268D01*
X96794Y466234D01*
X96849Y466050D01*
X96899Y465867D01*
X96914Y465836D01*
X96924Y465803D01*
X97011Y465633D01*
X97093Y465460D01*
X97113Y465432D01*
X97128Y465401D01*
X97244Y465249D01*
X97355Y465094D01*
X97379Y465070D01*
X97400Y465043D01*
X97541Y464913D01*
X97677Y464780D01*
X97706Y464761D01*
X97732Y464737D01*
X97893Y464635D01*
X98050Y464528D01*
X98082Y464514D01*
X98111Y464496D01*
X98288Y464423D01*
X98462Y464346D01*
X98496Y464338D01*
X98528Y464325D01*
X98715Y464284D01*
X98900Y464239D01*
X98934Y464237D01*
X98968Y464230D01*
X99280Y464211D01*
X227358Y464211D01*
X228759Y463631D01*
X241531Y450859D01*
X242111Y449458D01*
X242111Y445183D01*
X242125Y445019D01*
X242132Y444855D01*
X242145Y444795D01*
X242151Y444734D01*
X242194Y444575D01*
X242230Y444415D01*
X242253Y444359D01*
X242269Y444300D01*
X242340Y444152D01*
X242403Y444000D01*
X242436Y443948D01*
X242463Y443893D01*
X242558Y443760D01*
X242648Y443621D01*
X242699Y443564D01*
X242725Y443527D01*
X242768Y443485D01*
X242854Y443387D01*
X243660Y442582D01*
X244623Y440258D01*
X244623Y437742D01*
X243981Y436194D01*
X243943Y436070D01*
X243894Y435949D01*
X243875Y435856D01*
X243847Y435765D01*
X243830Y435635D01*
X243804Y435508D01*
X243802Y435413D01*
X243790Y435318D01*
X243797Y435188D01*
X243794Y435058D01*
X243808Y434964D01*
X243813Y434868D01*
X243842Y434742D01*
X243862Y434613D01*
X243894Y434523D01*
X243915Y434430D01*
X243966Y434310D01*
X244009Y434187D01*
X244055Y434104D01*
X244093Y434016D01*
X244165Y433908D01*
X244228Y433794D01*
X244289Y433720D01*
X244341Y433640D01*
X244431Y433547D01*
X244513Y433446D01*
X244586Y433384D01*
X244652Y433315D01*
X244757Y433238D01*
X244856Y433153D01*
X244938Y433105D01*
X245015Y433049D01*
X245132Y432992D01*
X245244Y432926D01*
X245334Y432893D01*
X245420Y432851D01*
X245545Y432815D01*
X245667Y432771D01*
X245761Y432754D01*
X245853Y432728D01*
X245983Y432715D01*
X246111Y432693D01*
X246206Y432693D01*
X246301Y432683D01*
X246431Y432694D01*
X246561Y432694D01*
X246655Y432711D01*
X246750Y432719D01*
X246876Y432752D01*
X247004Y432775D01*
X247126Y432817D01*
X247186Y432833D01*
X247226Y432852D01*
X247299Y432877D01*
X247362Y432903D01*
X249878Y432903D01*
X252202Y431940D01*
X253980Y430162D01*
X254943Y427838D01*
X254943Y425322D01*
X253980Y422998D01*
X253174Y422193D01*
X253069Y422066D01*
X252957Y421946D01*
X252925Y421894D01*
X252886Y421847D01*
X252804Y421705D01*
X252716Y421566D01*
X252692Y421509D01*
X252662Y421456D01*
X252607Y421302D01*
X252545Y421149D01*
X252532Y421090D01*
X252511Y421032D01*
X252485Y420870D01*
X252450Y420709D01*
X252445Y420632D01*
X252438Y420588D01*
X252439Y420527D01*
X252431Y420397D01*
X252431Y397882D01*
X251851Y396481D01*
X250606Y395237D01*
X250501Y395111D01*
X250389Y394990D01*
X250357Y394939D01*
X250318Y394892D01*
X250236Y394749D01*
X250148Y394610D01*
X250124Y394554D01*
X250094Y394501D01*
X250039Y394346D01*
X249977Y394194D01*
X249964Y394134D01*
X249943Y394077D01*
X249917Y393914D01*
X249882Y393754D01*
X249877Y393677D01*
X249870Y393632D01*
X249871Y393571D01*
X249863Y393442D01*
X249863Y392302D01*
X248900Y389978D01*
X247122Y388200D01*
X246721Y388034D01*
X246648Y387996D01*
X246571Y387966D01*
X246448Y387892D01*
X246322Y387825D01*
X246257Y387775D01*
X246186Y387732D01*
X246079Y387637D01*
X245966Y387550D01*
X245910Y387488D01*
X245849Y387434D01*
X245760Y387322D01*
X245664Y387215D01*
X245620Y387145D01*
X245569Y387081D01*
X245502Y386955D01*
X245426Y386833D01*
X245396Y386756D01*
X245357Y386684D01*
X245312Y386548D01*
X245259Y386415D01*
X245243Y386334D01*
X245217Y386256D01*
X245198Y386114D01*
X245169Y385974D01*
X245167Y385891D01*
X245156Y385810D01*
X245162Y385666D01*
X245158Y385523D01*
X245171Y385442D01*
X245174Y385360D01*
X245206Y385220D01*
X245227Y385078D01*
X245254Y385001D01*
X245272Y384920D01*
X245327Y384788D01*
X245374Y384653D01*
X245414Y384581D01*
X245446Y384505D01*
X245523Y384384D01*
X245593Y384259D01*
X245645Y384196D01*
X245690Y384126D01*
X245854Y383941D01*
X245878Y383911D01*
X245886Y383904D01*
X245897Y383892D01*
X246915Y382874D01*
X247041Y382769D01*
X247162Y382657D01*
X247213Y382625D01*
X247260Y382586D01*
X247403Y382504D01*
X247542Y382416D01*
X247598Y382392D01*
X247651Y382362D01*
X247806Y382307D01*
X247958Y382245D01*
X248018Y382232D01*
X248075Y382211D01*
X248238Y382185D01*
X248398Y382150D01*
X248475Y382145D01*
X248520Y382138D01*
X248581Y382139D01*
X248710Y382131D01*
X290530Y382131D01*
X290565Y382134D01*
X290599Y382132D01*
X290788Y382154D01*
X290979Y382171D01*
X291012Y382180D01*
X291046Y382184D01*
X291229Y382239D01*
X291413Y382289D01*
X291444Y382304D01*
X291477Y382314D01*
X291648Y382401D01*
X291820Y382483D01*
X291848Y382503D01*
X291879Y382518D01*
X292031Y382634D01*
X292186Y382745D01*
X292210Y382770D01*
X292237Y382790D01*
X292366Y382930D01*
X292500Y383067D01*
X292519Y383096D01*
X292543Y383122D01*
X292645Y383283D01*
X292752Y383440D01*
X292766Y383472D01*
X292784Y383501D01*
X292857Y383678D01*
X292934Y383852D01*
X292942Y383886D01*
X292955Y383918D01*
X292995Y384105D01*
X293041Y384290D01*
X293043Y384324D01*
X293050Y384358D01*
X293069Y384670D01*
X293069Y420397D01*
X293055Y420561D01*
X293048Y420725D01*
X293035Y420785D01*
X293029Y420846D01*
X292986Y421005D01*
X292950Y421165D01*
X292927Y421221D01*
X292911Y421280D01*
X292840Y421428D01*
X292777Y421580D01*
X292744Y421632D01*
X292717Y421687D01*
X292622Y421820D01*
X292532Y421959D01*
X292481Y422016D01*
X292455Y422053D01*
X292412Y422095D01*
X292326Y422193D01*
X291520Y422998D01*
X290557Y425322D01*
X290557Y427838D01*
X291520Y430162D01*
X293298Y431940D01*
X295622Y432903D01*
X298138Y432903D01*
X300462Y431940D01*
X302240Y430162D01*
X303203Y427838D01*
X303203Y425322D01*
X302240Y422998D01*
X301434Y422193D01*
X301329Y422066D01*
X301217Y421946D01*
X301185Y421894D01*
X301146Y421847D01*
X301064Y421705D01*
X300976Y421566D01*
X300952Y421509D01*
X300922Y421456D01*
X300867Y421302D01*
X300805Y421149D01*
X300792Y421090D01*
X300771Y421032D01*
X300745Y420870D01*
X300710Y420709D01*
X300705Y420632D01*
X300698Y420588D01*
X300699Y420527D01*
X300691Y420397D01*
X300691Y384503D01*
X300705Y384339D01*
X300712Y384175D01*
X300725Y384115D01*
X300731Y384054D01*
X300774Y383895D01*
X300810Y383735D01*
X300833Y383679D01*
X300849Y383620D01*
X300920Y383472D01*
X300983Y383320D01*
X301016Y383268D01*
X301043Y383213D01*
X301138Y383080D01*
X301228Y382941D01*
X301279Y382884D01*
X301305Y382847D01*
X301348Y382805D01*
X301434Y382707D01*
X302240Y381902D01*
X303203Y379578D01*
X303203Y377062D01*
X302240Y374738D01*
X300462Y372960D01*
X298138Y371997D01*
X295622Y371997D01*
X293298Y372960D01*
X292493Y373766D01*
X292366Y373871D01*
X292246Y373983D01*
X292194Y374015D01*
X292147Y374054D01*
X292005Y374136D01*
X291866Y374224D01*
X291809Y374248D01*
X291756Y374278D01*
X291602Y374333D01*
X291449Y374395D01*
X291390Y374408D01*
X291332Y374429D01*
X291170Y374455D01*
X291009Y374490D01*
X290932Y374495D01*
X290888Y374502D01*
X290827Y374501D01*
X290697Y374509D01*
X254970Y374509D01*
X254935Y374506D01*
X254901Y374508D01*
X254712Y374486D01*
X254521Y374469D01*
X254488Y374460D01*
X254454Y374456D01*
X254271Y374401D01*
X254087Y374351D01*
X254056Y374336D01*
X254023Y374326D01*
X253852Y374239D01*
X253680Y374157D01*
X253652Y374137D01*
X253621Y374122D01*
X253469Y374006D01*
X253314Y373895D01*
X253290Y373870D01*
X253263Y373850D01*
X253134Y373710D01*
X253000Y373573D01*
X252981Y373544D01*
X252957Y373518D01*
X252855Y373357D01*
X252748Y373200D01*
X252734Y373168D01*
X252716Y373139D01*
X252643Y372962D01*
X252566Y372788D01*
X252558Y372754D01*
X252545Y372722D01*
X252505Y372535D01*
X252459Y372350D01*
X252457Y372316D01*
X252450Y372282D01*
X252431Y371970D01*
X252431Y368400D01*
X252434Y368366D01*
X252432Y368331D01*
X252454Y368142D01*
X252471Y367952D01*
X252480Y367918D01*
X252484Y367884D01*
X252539Y367701D01*
X252589Y367517D01*
X252604Y367486D01*
X252614Y367453D01*
X252701Y367282D01*
X252783Y367111D01*
X252803Y367082D01*
X252818Y367051D01*
X252934Y366899D01*
X253045Y366744D01*
X253070Y366720D01*
X253090Y366693D01*
X253230Y366564D01*
X253367Y366430D01*
X253396Y366411D01*
X253422Y366388D01*
X253583Y366285D01*
X253740Y366178D01*
X253772Y366164D01*
X253801Y366146D01*
X253978Y366073D01*
X254152Y365996D01*
X254186Y365988D01*
X254218Y365975D01*
X254405Y365935D01*
X254590Y365889D01*
X254624Y365887D01*
X254658Y365880D01*
X254970Y365861D01*
X329752Y365861D01*
X329881Y365872D01*
G37*
G36*
X709881Y365872D02*
X709881Y365872D01*
X710011Y365874D01*
X710105Y365892D01*
X710200Y365901D01*
X710326Y365935D01*
X710453Y365960D01*
X710542Y365994D01*
X710634Y366019D01*
X710752Y366075D01*
X710873Y366122D01*
X710955Y366172D01*
X711041Y366213D01*
X711147Y366288D01*
X711258Y366356D01*
X711329Y366419D01*
X711407Y366475D01*
X711498Y366568D01*
X711595Y366654D01*
X711655Y366729D01*
X711721Y366797D01*
X711794Y366905D01*
X711875Y367007D01*
X711920Y367091D01*
X711973Y367170D01*
X712026Y367289D01*
X712087Y367404D01*
X712117Y367495D01*
X712156Y367582D01*
X712186Y367709D01*
X712226Y367832D01*
X712240Y367927D01*
X712262Y368020D01*
X712270Y368149D01*
X712288Y368278D01*
X712284Y368374D01*
X712290Y368469D01*
X712275Y368598D01*
X712270Y368728D01*
X712249Y368821D01*
X712238Y368916D01*
X712200Y369041D01*
X712172Y369168D01*
X712135Y369256D01*
X712107Y369347D01*
X712048Y369463D01*
X711998Y369583D01*
X711946Y369663D01*
X711903Y369749D01*
X711825Y369852D01*
X711754Y369961D01*
X711668Y370059D01*
X711631Y370107D01*
X711598Y370138D01*
X711547Y370196D01*
X708213Y373529D01*
X708213Y375199D01*
X718374Y375199D01*
X718408Y375202D01*
X718443Y375200D01*
X718632Y375222D01*
X718822Y375238D01*
X718856Y375248D01*
X718890Y375252D01*
X719073Y375307D01*
X719257Y375357D01*
X719288Y375372D01*
X719321Y375382D01*
X719492Y375469D01*
X719663Y375550D01*
X719691Y375571D01*
X719722Y375586D01*
X719874Y375701D01*
X720029Y375813D01*
X720053Y375837D01*
X720081Y375858D01*
X720081Y375859D01*
X720210Y375998D01*
X720343Y376135D01*
X720344Y376136D01*
X720363Y376164D01*
X720387Y376190D01*
X720489Y376351D01*
X720596Y376509D01*
X720610Y376540D01*
X720628Y376570D01*
X720701Y376746D01*
X720778Y376921D01*
X720786Y376954D01*
X720799Y376986D01*
X720840Y377173D01*
X720885Y377358D01*
X720887Y377392D01*
X720894Y377426D01*
X720913Y377738D01*
X720913Y387899D01*
X722583Y387899D01*
X725454Y385027D01*
X725554Y384944D01*
X725647Y384853D01*
X725727Y384799D01*
X725800Y384738D01*
X725913Y384674D01*
X726020Y384601D01*
X726108Y384562D01*
X726191Y384515D01*
X726313Y384471D01*
X726432Y384418D01*
X726525Y384396D01*
X726615Y384364D01*
X726743Y384343D01*
X726870Y384312D01*
X726965Y384306D01*
X727059Y384290D01*
X727189Y384292D01*
X727319Y384284D01*
X727414Y384295D01*
X727510Y384296D01*
X727637Y384321D01*
X727766Y384336D01*
X727858Y384364D01*
X727952Y384382D01*
X728073Y384429D01*
X728197Y384466D01*
X728283Y384510D01*
X728372Y384544D01*
X728483Y384612D01*
X728599Y384671D01*
X728675Y384729D01*
X728756Y384778D01*
X728854Y384864D01*
X728957Y384943D01*
X729022Y385013D01*
X729094Y385076D01*
X729174Y385178D01*
X729263Y385274D01*
X729314Y385355D01*
X729373Y385429D01*
X729434Y385544D01*
X729504Y385654D01*
X729541Y385742D01*
X729586Y385826D01*
X729626Y385950D01*
X729675Y386070D01*
X729695Y386164D01*
X729725Y386255D01*
X729743Y386383D01*
X729770Y386511D01*
X729778Y386640D01*
X729786Y386701D01*
X729785Y386746D01*
X729789Y386822D01*
X729789Y390438D01*
X729786Y390473D01*
X729788Y390507D01*
X729766Y390696D01*
X729749Y390887D01*
X729740Y390920D01*
X729736Y390954D01*
X729681Y391137D01*
X729631Y391321D01*
X729616Y391352D01*
X729606Y391385D01*
X729519Y391556D01*
X729437Y391728D01*
X729417Y391756D01*
X729402Y391787D01*
X729286Y391939D01*
X729175Y392094D01*
X729150Y392118D01*
X729130Y392145D01*
X728990Y392274D01*
X728853Y392408D01*
X728824Y392427D01*
X728798Y392451D01*
X728637Y392553D01*
X728480Y392660D01*
X728448Y392674D01*
X728419Y392692D01*
X728242Y392765D01*
X728068Y392842D01*
X728034Y392850D01*
X728002Y392863D01*
X727815Y392903D01*
X727630Y392949D01*
X727596Y392951D01*
X727562Y392958D01*
X727250Y392977D01*
X709702Y392977D01*
X708213Y394466D01*
X708213Y411810D01*
X709702Y413299D01*
X727250Y413299D01*
X727285Y413302D01*
X727319Y413300D01*
X727508Y413322D01*
X727699Y413339D01*
X727732Y413348D01*
X727766Y413352D01*
X727949Y413407D01*
X728133Y413457D01*
X728164Y413472D01*
X728197Y413482D01*
X728368Y413569D01*
X728540Y413651D01*
X728568Y413671D01*
X728599Y413686D01*
X728751Y413802D01*
X728906Y413913D01*
X728930Y413938D01*
X728957Y413958D01*
X729086Y414098D01*
X729220Y414235D01*
X729239Y414264D01*
X729263Y414290D01*
X729365Y414451D01*
X729472Y414608D01*
X729486Y414640D01*
X729504Y414669D01*
X729577Y414846D01*
X729654Y415020D01*
X729662Y415054D01*
X729675Y415086D01*
X729715Y415273D01*
X729761Y415458D01*
X729763Y415492D01*
X729770Y415526D01*
X729789Y415838D01*
X729789Y422638D01*
X729786Y422673D01*
X729788Y422707D01*
X729766Y422896D01*
X729749Y423087D01*
X729740Y423120D01*
X729736Y423154D01*
X729681Y423337D01*
X729631Y423521D01*
X729616Y423552D01*
X729606Y423585D01*
X729519Y423756D01*
X729437Y423928D01*
X729417Y423956D01*
X729402Y423987D01*
X729286Y424139D01*
X729175Y424294D01*
X729150Y424318D01*
X729130Y424345D01*
X728990Y424474D01*
X728853Y424608D01*
X728824Y424627D01*
X728798Y424651D01*
X728637Y424753D01*
X728480Y424860D01*
X728448Y424874D01*
X728419Y424892D01*
X728242Y424965D01*
X728068Y425042D01*
X728034Y425050D01*
X728002Y425063D01*
X727815Y425103D01*
X727630Y425149D01*
X727596Y425151D01*
X727562Y425158D01*
X727250Y425177D01*
X708862Y425177D01*
X707373Y426666D01*
X707373Y444010D01*
X708862Y445499D01*
X727250Y445499D01*
X727285Y445502D01*
X727319Y445500D01*
X727508Y445522D01*
X727699Y445539D01*
X727732Y445548D01*
X727766Y445552D01*
X727949Y445607D01*
X728133Y445657D01*
X728164Y445672D01*
X728197Y445682D01*
X728368Y445769D01*
X728540Y445851D01*
X728568Y445871D01*
X728599Y445886D01*
X728751Y446002D01*
X728906Y446113D01*
X728930Y446138D01*
X728957Y446158D01*
X729086Y446298D01*
X729220Y446435D01*
X729239Y446464D01*
X729263Y446490D01*
X729365Y446651D01*
X729472Y446808D01*
X729486Y446840D01*
X729504Y446869D01*
X729577Y447046D01*
X729654Y447220D01*
X729662Y447254D01*
X729675Y447286D01*
X729715Y447473D01*
X729761Y447658D01*
X729763Y447692D01*
X729770Y447726D01*
X729789Y448038D01*
X729789Y452494D01*
X729778Y452623D01*
X729776Y452753D01*
X729758Y452847D01*
X729749Y452942D01*
X729715Y453068D01*
X729690Y453195D01*
X729656Y453284D01*
X729631Y453376D01*
X729575Y453494D01*
X729528Y453615D01*
X729478Y453697D01*
X729437Y453783D01*
X729362Y453889D01*
X729294Y454000D01*
X729231Y454071D01*
X729175Y454149D01*
X729082Y454240D01*
X728996Y454337D01*
X728921Y454397D01*
X728853Y454463D01*
X728745Y454536D01*
X728643Y454617D01*
X728559Y454662D01*
X728480Y454715D01*
X728361Y454768D01*
X728246Y454829D01*
X728155Y454859D01*
X728068Y454898D01*
X727941Y454928D01*
X727818Y454969D01*
X727723Y454982D01*
X727630Y455004D01*
X727501Y455012D01*
X727372Y455030D01*
X727276Y455026D01*
X727181Y455032D01*
X727052Y455017D01*
X726922Y455012D01*
X726829Y454991D01*
X726734Y454980D01*
X726609Y454942D01*
X726482Y454914D01*
X726394Y454877D01*
X726303Y454850D01*
X726187Y454790D01*
X726067Y454740D01*
X725987Y454689D01*
X725901Y454645D01*
X725798Y454567D01*
X725689Y454496D01*
X725591Y454410D01*
X725543Y454373D01*
X725512Y454340D01*
X725454Y454289D01*
X721743Y450577D01*
X713325Y450577D01*
X707373Y456529D01*
X707373Y464947D01*
X713325Y470899D01*
X721743Y470899D01*
X725454Y467187D01*
X725554Y467104D01*
X725647Y467013D01*
X725727Y466959D01*
X725800Y466898D01*
X725913Y466834D01*
X726020Y466761D01*
X726108Y466722D01*
X726191Y466675D01*
X726313Y466631D01*
X726432Y466578D01*
X726525Y466556D01*
X726615Y466524D01*
X726743Y466503D01*
X726870Y466472D01*
X726965Y466466D01*
X727059Y466450D01*
X727189Y466452D01*
X727319Y466444D01*
X727414Y466455D01*
X727510Y466456D01*
X727637Y466481D01*
X727766Y466496D01*
X727858Y466524D01*
X727952Y466542D01*
X728073Y466589D01*
X728197Y466626D01*
X728282Y466670D01*
X728372Y466704D01*
X728483Y466772D01*
X728599Y466831D01*
X728675Y466889D01*
X728756Y466938D01*
X728854Y467024D01*
X728957Y467103D01*
X729022Y467173D01*
X729094Y467236D01*
X729174Y467338D01*
X729263Y467434D01*
X729314Y467515D01*
X729373Y467589D01*
X729434Y467704D01*
X729504Y467814D01*
X729541Y467902D01*
X729586Y467986D01*
X729626Y468110D01*
X729675Y468230D01*
X729695Y468324D01*
X729725Y468415D01*
X729743Y468543D01*
X729770Y468671D01*
X729778Y468800D01*
X729786Y468861D01*
X729785Y468906D01*
X729789Y468982D01*
X729789Y477894D01*
X729778Y478023D01*
X729776Y478153D01*
X729758Y478247D01*
X729749Y478342D01*
X729715Y478468D01*
X729690Y478595D01*
X729656Y478684D01*
X729631Y478776D01*
X729575Y478894D01*
X729528Y479015D01*
X729478Y479097D01*
X729437Y479183D01*
X729362Y479289D01*
X729294Y479400D01*
X729231Y479471D01*
X729175Y479549D01*
X729082Y479640D01*
X728996Y479737D01*
X728921Y479797D01*
X728853Y479863D01*
X728745Y479936D01*
X728643Y480017D01*
X728559Y480062D01*
X728480Y480115D01*
X728361Y480168D01*
X728246Y480229D01*
X728155Y480259D01*
X728068Y480298D01*
X727941Y480328D01*
X727818Y480369D01*
X727723Y480382D01*
X727630Y480404D01*
X727501Y480412D01*
X727372Y480430D01*
X727276Y480426D01*
X727181Y480432D01*
X727052Y480417D01*
X726922Y480412D01*
X726829Y480391D01*
X726734Y480380D01*
X726609Y480342D01*
X726482Y480314D01*
X726394Y480277D01*
X726303Y480250D01*
X726187Y480190D01*
X726067Y480140D01*
X725987Y480089D01*
X725901Y480045D01*
X725798Y479967D01*
X725689Y479896D01*
X725591Y479810D01*
X725543Y479773D01*
X725512Y479740D01*
X725454Y479689D01*
X721743Y475977D01*
X713325Y475977D01*
X707373Y481929D01*
X707373Y490347D01*
X713325Y496299D01*
X721743Y496299D01*
X725454Y492587D01*
X725554Y492504D01*
X725647Y492413D01*
X725727Y492359D01*
X725800Y492298D01*
X725913Y492234D01*
X726020Y492161D01*
X726108Y492122D01*
X726191Y492075D01*
X726313Y492031D01*
X726432Y491978D01*
X726525Y491956D01*
X726615Y491924D01*
X726743Y491903D01*
X726870Y491872D01*
X726965Y491866D01*
X727059Y491850D01*
X727189Y491852D01*
X727319Y491844D01*
X727414Y491855D01*
X727510Y491856D01*
X727637Y491881D01*
X727766Y491896D01*
X727858Y491924D01*
X727952Y491942D01*
X728073Y491989D01*
X728197Y492026D01*
X728282Y492070D01*
X728372Y492104D01*
X728483Y492172D01*
X728599Y492231D01*
X728675Y492289D01*
X728756Y492338D01*
X728854Y492424D01*
X728957Y492503D01*
X729022Y492573D01*
X729094Y492636D01*
X729174Y492738D01*
X729263Y492834D01*
X729314Y492915D01*
X729373Y492989D01*
X729434Y493104D01*
X729504Y493214D01*
X729541Y493302D01*
X729586Y493386D01*
X729626Y493510D01*
X729675Y493630D01*
X729695Y493724D01*
X729725Y493815D01*
X729743Y493943D01*
X729770Y494071D01*
X729778Y494200D01*
X729786Y494261D01*
X729785Y494306D01*
X729789Y494382D01*
X729789Y503294D01*
X729778Y503423D01*
X729776Y503553D01*
X729758Y503647D01*
X729749Y503742D01*
X729715Y503868D01*
X729690Y503995D01*
X729656Y504084D01*
X729631Y504176D01*
X729575Y504294D01*
X729528Y504415D01*
X729478Y504497D01*
X729437Y504583D01*
X729362Y504689D01*
X729294Y504800D01*
X729231Y504871D01*
X729175Y504949D01*
X729082Y505040D01*
X728996Y505137D01*
X728921Y505197D01*
X728853Y505263D01*
X728745Y505336D01*
X728643Y505417D01*
X728559Y505462D01*
X728480Y505515D01*
X728361Y505568D01*
X728246Y505629D01*
X728155Y505659D01*
X728068Y505698D01*
X727941Y505728D01*
X727818Y505769D01*
X727723Y505782D01*
X727630Y505804D01*
X727501Y505812D01*
X727372Y505830D01*
X727276Y505826D01*
X727181Y505832D01*
X727052Y505817D01*
X726922Y505812D01*
X726829Y505791D01*
X726734Y505780D01*
X726609Y505742D01*
X726482Y505714D01*
X726394Y505677D01*
X726303Y505650D01*
X726187Y505590D01*
X726067Y505540D01*
X725987Y505489D01*
X725901Y505445D01*
X725798Y505367D01*
X725689Y505296D01*
X725591Y505210D01*
X725543Y505173D01*
X725512Y505140D01*
X725454Y505089D01*
X721743Y501377D01*
X720073Y501377D01*
X720073Y511538D01*
X720073Y521699D01*
X721743Y521699D01*
X725454Y517987D01*
X725554Y517904D01*
X725647Y517813D01*
X725727Y517759D01*
X725800Y517698D01*
X725913Y517634D01*
X726020Y517561D01*
X726108Y517522D01*
X726191Y517475D01*
X726313Y517431D01*
X726432Y517378D01*
X726525Y517356D01*
X726615Y517324D01*
X726743Y517303D01*
X726870Y517272D01*
X726965Y517266D01*
X727059Y517250D01*
X727189Y517252D01*
X727319Y517244D01*
X727414Y517255D01*
X727510Y517256D01*
X727637Y517281D01*
X727766Y517296D01*
X727858Y517324D01*
X727952Y517342D01*
X728073Y517389D01*
X728197Y517426D01*
X728282Y517470D01*
X728372Y517504D01*
X728483Y517572D01*
X728599Y517631D01*
X728675Y517689D01*
X728756Y517738D01*
X728854Y517824D01*
X728957Y517903D01*
X729022Y517973D01*
X729094Y518036D01*
X729174Y518138D01*
X729263Y518234D01*
X729314Y518315D01*
X729373Y518389D01*
X729434Y518504D01*
X729504Y518614D01*
X729541Y518702D01*
X729586Y518786D01*
X729626Y518910D01*
X729675Y519030D01*
X729695Y519124D01*
X729725Y519215D01*
X729743Y519343D01*
X729770Y519471D01*
X729778Y519600D01*
X729786Y519661D01*
X729785Y519706D01*
X729789Y519782D01*
X729789Y677500D01*
X729784Y677562D01*
X729781Y677699D01*
X729692Y678833D01*
X729668Y678974D01*
X729654Y679116D01*
X729627Y679222D01*
X729617Y679277D01*
X729600Y679326D01*
X729576Y679419D01*
X728875Y681576D01*
X728868Y681592D01*
X728864Y681608D01*
X728840Y681662D01*
X728836Y681675D01*
X728822Y681703D01*
X728780Y681798D01*
X728698Y681990D01*
X728689Y682005D01*
X728682Y682020D01*
X728514Y682284D01*
X727181Y684119D01*
X727169Y684132D01*
X727160Y684146D01*
X727023Y684300D01*
X726885Y684458D01*
X726871Y684469D01*
X726860Y684482D01*
X726619Y684681D01*
X725967Y685154D01*
X725804Y685252D01*
X725643Y685354D01*
X725611Y685368D01*
X725581Y685386D01*
X725403Y685453D01*
X725227Y685525D01*
X725193Y685533D01*
X725160Y685545D01*
X724973Y685580D01*
X724786Y685620D01*
X724744Y685623D01*
X724717Y685628D01*
X724656Y685628D01*
X724475Y685639D01*
X395525Y685639D01*
X395335Y685622D01*
X395146Y685611D01*
X395112Y685602D01*
X395077Y685599D01*
X394893Y685549D01*
X394708Y685504D01*
X394676Y685490D01*
X394643Y685481D01*
X394471Y685399D01*
X394296Y685322D01*
X394260Y685299D01*
X394236Y685287D01*
X394187Y685252D01*
X394033Y685154D01*
X393381Y684681D01*
X393368Y684669D01*
X393354Y684660D01*
X393198Y684521D01*
X393042Y684385D01*
X393031Y684371D01*
X393018Y684360D01*
X392819Y684119D01*
X391486Y682284D01*
X391477Y682269D01*
X391466Y682256D01*
X391362Y682076D01*
X391255Y681897D01*
X391249Y681882D01*
X391240Y681867D01*
X391125Y681576D01*
X390424Y679419D01*
X390392Y679279D01*
X390351Y679143D01*
X390336Y679035D01*
X390324Y678980D01*
X390321Y678928D01*
X390308Y678833D01*
X390219Y677699D01*
X390219Y677637D01*
X390211Y677500D01*
X390211Y596522D01*
X390222Y596393D01*
X390224Y596263D01*
X390242Y596169D01*
X390251Y596074D01*
X390285Y595948D01*
X390310Y595821D01*
X390344Y595731D01*
X390369Y595639D01*
X390425Y595522D01*
X390472Y595401D01*
X390522Y595319D01*
X390563Y595233D01*
X390638Y595127D01*
X390706Y595016D01*
X390769Y594944D01*
X390825Y594867D01*
X390918Y594776D01*
X391004Y594679D01*
X391079Y594619D01*
X391147Y594553D01*
X391255Y594480D01*
X391357Y594399D01*
X391441Y594354D01*
X391520Y594301D01*
X391639Y594248D01*
X391754Y594187D01*
X391845Y594157D01*
X391932Y594118D01*
X392059Y594088D01*
X392182Y594047D01*
X392277Y594034D01*
X392370Y594012D01*
X392499Y594004D01*
X392628Y593986D01*
X392724Y593990D01*
X392819Y593984D01*
X392948Y593999D01*
X393078Y594004D01*
X393171Y594025D01*
X393266Y594036D01*
X393391Y594074D01*
X393518Y594102D01*
X393606Y594139D01*
X393697Y594166D01*
X393813Y594225D01*
X393933Y594276D01*
X394013Y594327D01*
X394099Y594371D01*
X394202Y594449D01*
X394311Y594520D01*
X394409Y594606D01*
X394457Y594643D01*
X394488Y594676D01*
X394546Y594727D01*
X401403Y601584D01*
X403972Y602648D01*
X404160Y602746D01*
X404349Y602842D01*
X404359Y602850D01*
X404371Y602857D01*
X404540Y602987D01*
X404707Y603114D01*
X404716Y603124D01*
X404727Y603132D01*
X404869Y603290D01*
X405013Y603446D01*
X405020Y603457D01*
X405028Y603467D01*
X405140Y603645D01*
X405254Y603825D01*
X405259Y603838D01*
X405266Y603849D01*
X405345Y604046D01*
X405425Y604242D01*
X405428Y604255D01*
X405433Y604267D01*
X405476Y604475D01*
X405520Y604682D01*
X405521Y604698D01*
X405523Y604708D01*
X405524Y604748D01*
X405539Y604994D01*
X405539Y622072D01*
X407028Y623561D01*
X424372Y623561D01*
X425861Y622072D01*
X425861Y605090D01*
X425864Y605055D01*
X425862Y605021D01*
X425884Y604832D01*
X425901Y604641D01*
X425910Y604608D01*
X425914Y604574D01*
X425969Y604391D01*
X426019Y604207D01*
X426034Y604176D01*
X426044Y604143D01*
X426131Y603972D01*
X426213Y603800D01*
X426233Y603772D01*
X426248Y603741D01*
X426364Y603589D01*
X426475Y603434D01*
X426500Y603410D01*
X426520Y603383D01*
X426660Y603254D01*
X426797Y603120D01*
X426826Y603101D01*
X426852Y603077D01*
X427013Y602975D01*
X427170Y602868D01*
X427202Y602854D01*
X427231Y602836D01*
X427408Y602763D01*
X427582Y602686D01*
X427616Y602678D01*
X427648Y602665D01*
X427835Y602625D01*
X428020Y602579D01*
X428054Y602577D01*
X428088Y602570D01*
X428400Y602551D01*
X470318Y602551D01*
X470481Y602565D01*
X470646Y602572D01*
X470705Y602585D01*
X470766Y602591D01*
X470925Y602634D01*
X471085Y602670D01*
X471142Y602693D01*
X471201Y602709D01*
X471349Y602780D01*
X471501Y602843D01*
X471552Y602876D01*
X471607Y602903D01*
X471741Y602998D01*
X471879Y603088D01*
X471937Y603139D01*
X471973Y603165D01*
X472016Y603208D01*
X472113Y603294D01*
X523823Y655004D01*
X523907Y655104D01*
X523997Y655197D01*
X524051Y655277D01*
X524112Y655350D01*
X524177Y655463D01*
X524249Y655570D01*
X524288Y655658D01*
X524335Y655741D01*
X524379Y655863D01*
X524432Y655982D01*
X524454Y656075D01*
X524486Y656165D01*
X524508Y656294D01*
X524538Y656420D01*
X524544Y656515D01*
X524560Y656609D01*
X524558Y656740D01*
X524566Y656869D01*
X524555Y656964D01*
X524554Y657060D01*
X524529Y657187D01*
X524514Y657316D01*
X524486Y657408D01*
X524468Y657502D01*
X524439Y657576D01*
X524439Y666961D01*
X533814Y666961D01*
X533868Y666948D01*
X533950Y666918D01*
X534086Y666894D01*
X534220Y666862D01*
X534307Y666856D01*
X534394Y666841D01*
X534531Y666842D01*
X534669Y666834D01*
X534756Y666844D01*
X534844Y666845D01*
X534979Y666870D01*
X535116Y666886D01*
X535200Y666911D01*
X535287Y666928D01*
X535415Y666976D01*
X535547Y667016D01*
X535626Y667056D01*
X535708Y667087D01*
X535826Y667158D01*
X535949Y667221D01*
X536018Y667274D01*
X536094Y667319D01*
X536198Y667410D01*
X536307Y667493D01*
X536367Y667557D01*
X536433Y667615D01*
X536519Y667723D01*
X536612Y667824D01*
X536660Y667898D01*
X536714Y667966D01*
X536829Y668163D01*
X536842Y668184D01*
X536854Y668204D01*
X536860Y668217D01*
X536871Y668237D01*
X536947Y668429D01*
X537025Y668620D01*
X537029Y668638D01*
X537036Y668656D01*
X537076Y668858D01*
X537120Y669060D01*
X537121Y669083D01*
X537124Y669097D01*
X537125Y669145D01*
X537139Y669372D01*
X537139Y673709D01*
X543091Y679661D01*
X551509Y679661D01*
X557461Y673709D01*
X557461Y667792D01*
X557479Y667586D01*
X557494Y667380D01*
X557499Y667362D01*
X557501Y667344D01*
X557555Y667144D01*
X557607Y666944D01*
X557615Y666924D01*
X557619Y666909D01*
X557640Y666866D01*
X557729Y666657D01*
X557775Y666582D01*
X557813Y666503D01*
X557835Y666471D01*
X557893Y666391D01*
X557965Y666273D01*
X558024Y666208D01*
X558075Y666137D01*
X558174Y666040D01*
X558265Y665938D01*
X558334Y665884D01*
X558397Y665823D01*
X558512Y665745D01*
X558620Y665661D01*
X558698Y665620D01*
X558770Y665571D01*
X558897Y665515D01*
X559018Y665450D01*
X559102Y665424D01*
X559182Y665388D01*
X559316Y665356D01*
X559447Y665314D01*
X559535Y665302D01*
X559620Y665282D01*
X559757Y665273D01*
X559894Y665255D01*
X559982Y665259D01*
X560069Y665254D01*
X560206Y665270D01*
X560344Y665276D01*
X560429Y665296D01*
X560516Y665306D01*
X560648Y665346D01*
X560783Y665377D01*
X560863Y665411D01*
X560947Y665436D01*
X561070Y665499D01*
X561197Y665553D01*
X561270Y665601D01*
X561349Y665641D01*
X561459Y665724D01*
X561574Y665799D01*
X561637Y665860D01*
X561707Y665913D01*
X561801Y666014D01*
X561901Y666109D01*
X561953Y666179D01*
X562013Y666244D01*
X562087Y666360D01*
X562168Y666471D01*
X562207Y666550D01*
X562254Y666624D01*
X562307Y666751D01*
X562368Y666875D01*
X562392Y666959D01*
X562425Y667040D01*
X562454Y667175D01*
X562493Y667307D01*
X562502Y667394D01*
X562520Y667480D01*
X562534Y667708D01*
X562539Y667755D01*
X562538Y667770D01*
X562539Y667792D01*
X562539Y673709D01*
X568491Y679661D01*
X576909Y679661D01*
X582861Y673709D01*
X582861Y665291D01*
X576909Y659339D01*
X570992Y659339D01*
X570863Y659328D01*
X570733Y659326D01*
X570639Y659308D01*
X570544Y659299D01*
X570418Y659265D01*
X570291Y659240D01*
X570201Y659206D01*
X570109Y659181D01*
X569992Y659125D01*
X569871Y659078D01*
X569789Y659028D01*
X569703Y658987D01*
X569597Y658912D01*
X569486Y658844D01*
X569414Y658781D01*
X569337Y658725D01*
X569246Y658632D01*
X569149Y658546D01*
X569089Y658471D01*
X569023Y658403D01*
X568950Y658295D01*
X568869Y658193D01*
X568824Y658109D01*
X568771Y658030D01*
X568718Y657911D01*
X568657Y657796D01*
X568627Y657705D01*
X568588Y657618D01*
X568558Y657491D01*
X568517Y657368D01*
X568504Y657273D01*
X568482Y657180D01*
X568474Y657051D01*
X568456Y656922D01*
X568460Y656826D01*
X568454Y656731D01*
X568469Y656602D01*
X568474Y656472D01*
X568495Y656379D01*
X568506Y656284D01*
X568544Y656159D01*
X568572Y656032D01*
X568609Y655944D01*
X568636Y655853D01*
X568695Y655737D01*
X568746Y655617D01*
X568797Y655536D01*
X568841Y655451D01*
X568919Y655348D01*
X568990Y655239D01*
X569076Y655141D01*
X569113Y655093D01*
X569146Y655062D01*
X569197Y655004D01*
X607647Y616554D01*
X607773Y616449D01*
X607894Y616337D01*
X607945Y616305D01*
X607992Y616266D01*
X608135Y616184D01*
X608274Y616096D01*
X608330Y616072D01*
X608383Y616042D01*
X608538Y615987D01*
X608690Y615925D01*
X608750Y615912D01*
X608807Y615891D01*
X608970Y615865D01*
X609130Y615830D01*
X609207Y615825D01*
X609252Y615818D01*
X609313Y615819D01*
X609442Y615811D01*
X624803Y615811D01*
X627137Y614844D01*
X628924Y613057D01*
X629891Y610723D01*
X629891Y608197D01*
X628924Y605863D01*
X627137Y604076D01*
X624803Y603109D01*
X604497Y603109D01*
X602163Y604076D01*
X548306Y657933D01*
X548279Y657956D01*
X548256Y657981D01*
X548107Y658099D01*
X547960Y658222D01*
X547930Y658239D01*
X547903Y658261D01*
X547735Y658351D01*
X547569Y658445D01*
X547537Y658457D01*
X547506Y658473D01*
X547325Y658532D01*
X547145Y658596D01*
X547111Y658602D01*
X547078Y658613D01*
X546889Y658639D01*
X546701Y658670D01*
X546666Y658669D01*
X546632Y658674D01*
X546441Y658666D01*
X546250Y658664D01*
X546216Y658657D01*
X546182Y658656D01*
X545996Y658614D01*
X545808Y658578D01*
X545776Y658566D01*
X545742Y658558D01*
X545566Y658485D01*
X545388Y658416D01*
X545359Y658398D01*
X545327Y658384D01*
X545167Y658281D01*
X545004Y658182D01*
X544978Y658159D01*
X544949Y658140D01*
X544714Y657933D01*
X479741Y592960D01*
X477597Y590816D01*
X475263Y589849D01*
X428314Y589849D01*
X428185Y589838D01*
X428054Y589836D01*
X427961Y589818D01*
X427866Y589809D01*
X427740Y589775D01*
X427612Y589750D01*
X427523Y589716D01*
X427431Y589691D01*
X427314Y589635D01*
X427192Y589588D01*
X427111Y589538D01*
X427025Y589497D01*
X426919Y589422D01*
X426808Y589354D01*
X426736Y589291D01*
X426659Y589235D01*
X426568Y589142D01*
X426470Y589056D01*
X426411Y588981D01*
X426345Y588913D01*
X426272Y588805D01*
X426191Y588703D01*
X426146Y588619D01*
X426092Y588540D01*
X426040Y588421D01*
X425978Y588306D01*
X425949Y588215D01*
X425910Y588128D01*
X425879Y588001D01*
X425839Y587878D01*
X425826Y587783D01*
X425804Y587690D01*
X425796Y587561D01*
X425778Y587432D01*
X425782Y587336D01*
X425776Y587241D01*
X425791Y587112D01*
X425796Y586982D01*
X425817Y586889D01*
X425828Y586794D01*
X425866Y586669D01*
X425894Y586542D01*
X425931Y586454D01*
X425958Y586363D01*
X426017Y586247D01*
X426061Y586143D01*
X426061Y578790D01*
X426064Y578755D01*
X426062Y578721D01*
X426084Y578532D01*
X426101Y578341D01*
X426110Y578308D01*
X426114Y578274D01*
X426169Y578091D01*
X426219Y577907D01*
X426234Y577876D01*
X426244Y577843D01*
X426331Y577672D01*
X426413Y577500D01*
X426433Y577472D01*
X426448Y577441D01*
X426564Y577289D01*
X426675Y577134D01*
X426700Y577110D01*
X426720Y577083D01*
X426860Y576954D01*
X426997Y576820D01*
X427026Y576801D01*
X427052Y576777D01*
X427213Y576675D01*
X427370Y576568D01*
X427402Y576554D01*
X427431Y576536D01*
X427608Y576463D01*
X427782Y576386D01*
X427816Y576378D01*
X427848Y576365D01*
X428035Y576325D01*
X428220Y576279D01*
X428254Y576277D01*
X428288Y576270D01*
X428600Y576251D01*
X577577Y576251D01*
X577707Y576262D01*
X577837Y576264D01*
X577930Y576282D01*
X578026Y576291D01*
X578151Y576325D01*
X578279Y576350D01*
X578368Y576384D01*
X578460Y576409D01*
X578578Y576465D01*
X578699Y576512D01*
X578781Y576562D01*
X578867Y576603D01*
X578972Y576678D01*
X579084Y576746D01*
X579155Y576809D01*
X579233Y576865D01*
X579324Y576958D01*
X579421Y577044D01*
X579480Y577119D01*
X579547Y577187D01*
X579620Y577295D01*
X579700Y577397D01*
X579746Y577481D01*
X579799Y577560D01*
X579852Y577679D01*
X579913Y577794D01*
X579943Y577885D01*
X579981Y577972D01*
X580012Y578099D01*
X580052Y578222D01*
X580065Y578317D01*
X580088Y578410D01*
X580096Y578539D01*
X580114Y578668D01*
X580110Y578764D01*
X580116Y578859D01*
X580101Y578988D01*
X580095Y579118D01*
X580075Y579211D01*
X580064Y579306D01*
X580026Y579431D01*
X579998Y579558D01*
X579961Y579646D01*
X579933Y579737D01*
X579874Y579853D01*
X579824Y579973D01*
X579772Y580053D01*
X579729Y580139D01*
X579650Y580242D01*
X579580Y580351D01*
X579494Y580449D01*
X579457Y580497D01*
X579424Y580528D01*
X579373Y580586D01*
X578240Y581718D01*
X577277Y584042D01*
X577277Y585182D01*
X577263Y585345D01*
X577256Y585510D01*
X577243Y585569D01*
X577237Y585630D01*
X577194Y585789D01*
X577158Y585949D01*
X577135Y586006D01*
X577119Y586065D01*
X577048Y586213D01*
X576985Y586365D01*
X576952Y586416D01*
X576925Y586471D01*
X576830Y586605D01*
X576740Y586743D01*
X576689Y586801D01*
X576663Y586837D01*
X576620Y586880D01*
X576534Y586977D01*
X575665Y587846D01*
X575539Y587951D01*
X575418Y588063D01*
X575367Y588095D01*
X575320Y588134D01*
X575177Y588216D01*
X575038Y588304D01*
X574982Y588328D01*
X574929Y588358D01*
X574774Y588413D01*
X574622Y588475D01*
X574562Y588488D01*
X574505Y588509D01*
X574342Y588535D01*
X574182Y588570D01*
X574105Y588575D01*
X574060Y588582D01*
X573999Y588581D01*
X573870Y588589D01*
X503781Y588589D01*
X503617Y588575D01*
X503453Y588568D01*
X503393Y588555D01*
X503332Y588549D01*
X503173Y588506D01*
X503013Y588470D01*
X502957Y588447D01*
X502898Y588431D01*
X502750Y588360D01*
X502598Y588297D01*
X502546Y588264D01*
X502491Y588237D01*
X502358Y588142D01*
X502219Y588052D01*
X502162Y588001D01*
X502125Y587975D01*
X502083Y587932D01*
X501985Y587846D01*
X500402Y586262D01*
X498078Y585299D01*
X495562Y585299D01*
X493238Y586262D01*
X491460Y588040D01*
X490497Y590364D01*
X490497Y592880D01*
X491460Y595204D01*
X493238Y596982D01*
X495562Y597945D01*
X498078Y597945D01*
X500402Y596982D01*
X500429Y596954D01*
X500556Y596849D01*
X500676Y596737D01*
X500728Y596705D01*
X500775Y596666D01*
X500917Y596584D01*
X501056Y596496D01*
X501113Y596472D01*
X501166Y596442D01*
X501320Y596387D01*
X501473Y596325D01*
X501532Y596312D01*
X501590Y596291D01*
X501752Y596265D01*
X501913Y596230D01*
X501990Y596225D01*
X502034Y596218D01*
X502095Y596219D01*
X502225Y596211D01*
X577258Y596211D01*
X578659Y595631D01*
X581923Y592366D01*
X582049Y592261D01*
X582170Y592149D01*
X582221Y592117D01*
X582268Y592078D01*
X582411Y591996D01*
X582550Y591908D01*
X582606Y591884D01*
X582659Y591854D01*
X582814Y591799D01*
X582966Y591737D01*
X583026Y591724D01*
X583083Y591703D01*
X583246Y591677D01*
X583406Y591642D01*
X583483Y591637D01*
X583528Y591630D01*
X583589Y591631D01*
X583718Y591623D01*
X584858Y591623D01*
X587182Y590660D01*
X588960Y588882D01*
X589923Y586558D01*
X589923Y584042D01*
X588960Y581718D01*
X587827Y580586D01*
X587744Y580486D01*
X587653Y580393D01*
X587600Y580313D01*
X587538Y580240D01*
X587474Y580127D01*
X587401Y580020D01*
X587362Y579932D01*
X587315Y579849D01*
X587271Y579727D01*
X587219Y579608D01*
X587196Y579515D01*
X587164Y579425D01*
X587143Y579297D01*
X587112Y579170D01*
X587106Y579075D01*
X587091Y578981D01*
X587092Y578851D01*
X587084Y578721D01*
X587095Y578626D01*
X587097Y578530D01*
X587121Y578403D01*
X587136Y578274D01*
X587164Y578182D01*
X587182Y578088D01*
X587229Y577967D01*
X587267Y577843D01*
X587310Y577757D01*
X587345Y577668D01*
X587412Y577557D01*
X587471Y577441D01*
X587529Y577365D01*
X587578Y577284D01*
X587665Y577186D01*
X587743Y577083D01*
X587813Y577018D01*
X587877Y576946D01*
X587979Y576866D01*
X588074Y576777D01*
X588155Y576726D01*
X588230Y576667D01*
X588344Y576605D01*
X588454Y576536D01*
X588542Y576499D01*
X588627Y576454D01*
X588750Y576414D01*
X588871Y576365D01*
X588964Y576345D01*
X589055Y576315D01*
X589183Y576297D01*
X589311Y576270D01*
X589441Y576262D01*
X589501Y576254D01*
X589546Y576255D01*
X589623Y576251D01*
X664537Y576251D01*
X664667Y576262D01*
X664797Y576264D01*
X664891Y576282D01*
X664986Y576291D01*
X665111Y576325D01*
X665239Y576350D01*
X665328Y576384D01*
X665420Y576409D01*
X665537Y576465D01*
X665659Y576512D01*
X665741Y576562D01*
X665827Y576603D01*
X665932Y576678D01*
X666044Y576746D01*
X666115Y576809D01*
X666193Y576865D01*
X666284Y576958D01*
X666381Y577044D01*
X666440Y577119D01*
X666507Y577187D01*
X666580Y577295D01*
X666660Y577397D01*
X666706Y577481D01*
X666759Y577560D01*
X666812Y577679D01*
X666873Y577794D01*
X666903Y577885D01*
X666941Y577972D01*
X666972Y578099D01*
X667012Y578222D01*
X667025Y578317D01*
X667048Y578410D01*
X667056Y578539D01*
X667074Y578668D01*
X667070Y578764D01*
X667076Y578859D01*
X667061Y578988D01*
X667055Y579118D01*
X667035Y579211D01*
X667024Y579306D01*
X666986Y579431D01*
X666958Y579558D01*
X666921Y579646D01*
X666893Y579737D01*
X666834Y579853D01*
X666784Y579973D01*
X666732Y580053D01*
X666689Y580139D01*
X666610Y580242D01*
X666540Y580351D01*
X666454Y580449D01*
X666450Y580453D01*
X665477Y582802D01*
X665477Y585318D01*
X666440Y587642D01*
X666992Y588193D01*
X667097Y588320D01*
X667209Y588440D01*
X667241Y588492D01*
X667280Y588539D01*
X667362Y588681D01*
X667450Y588820D01*
X667474Y588877D01*
X667504Y588930D01*
X667559Y589084D01*
X667621Y589237D01*
X667634Y589296D01*
X667655Y589354D01*
X667681Y589516D01*
X667716Y589677D01*
X667721Y589754D01*
X667728Y589798D01*
X667727Y589859D01*
X667735Y589989D01*
X667735Y593065D01*
X667721Y593228D01*
X667714Y593393D01*
X667701Y593452D01*
X667695Y593513D01*
X667652Y593672D01*
X667616Y593832D01*
X667593Y593889D01*
X667577Y593947D01*
X667506Y594096D01*
X667443Y594248D01*
X667410Y594299D01*
X667383Y594354D01*
X667288Y594488D01*
X667198Y594626D01*
X667147Y594684D01*
X667121Y594720D01*
X667078Y594763D01*
X666992Y594860D01*
X603256Y658596D01*
X603130Y658701D01*
X603009Y658813D01*
X602958Y658845D01*
X602911Y658884D01*
X602768Y658966D01*
X602629Y659054D01*
X602573Y659078D01*
X602520Y659108D01*
X602365Y659163D01*
X602213Y659225D01*
X602153Y659238D01*
X602095Y659259D01*
X601933Y659285D01*
X601772Y659320D01*
X601696Y659325D01*
X601651Y659332D01*
X601590Y659331D01*
X601461Y659339D01*
X589428Y659339D01*
X587939Y660828D01*
X587939Y678172D01*
X589428Y679661D01*
X606772Y679661D01*
X608261Y678172D01*
X608261Y666139D01*
X608275Y665976D01*
X608282Y665811D01*
X608295Y665752D01*
X608301Y665691D01*
X608344Y665532D01*
X608380Y665372D01*
X608403Y665315D01*
X608419Y665257D01*
X608490Y665108D01*
X608553Y664956D01*
X608586Y664905D01*
X608613Y664850D01*
X608708Y664716D01*
X608798Y664578D01*
X608849Y664520D01*
X608875Y664484D01*
X608918Y664441D01*
X609004Y664344D01*
X675246Y598102D01*
X675865Y596609D01*
X675865Y589989D01*
X675879Y589825D01*
X675886Y589661D01*
X675899Y589601D01*
X675905Y589540D01*
X675948Y589381D01*
X675984Y589221D01*
X676007Y589165D01*
X676023Y589106D01*
X676094Y588958D01*
X676157Y588806D01*
X676190Y588754D01*
X676217Y588699D01*
X676312Y588566D01*
X676402Y588427D01*
X676453Y588370D01*
X676479Y588333D01*
X676522Y588291D01*
X676608Y588193D01*
X677160Y587642D01*
X678123Y585318D01*
X678123Y582802D01*
X677148Y580449D01*
X677093Y580393D01*
X677040Y580313D01*
X676978Y580240D01*
X676914Y580127D01*
X676841Y580020D01*
X676802Y579932D01*
X676755Y579849D01*
X676711Y579727D01*
X676659Y579608D01*
X676636Y579515D01*
X676604Y579425D01*
X676583Y579297D01*
X676552Y579170D01*
X676546Y579075D01*
X676531Y578981D01*
X676532Y578851D01*
X676524Y578721D01*
X676535Y578626D01*
X676537Y578531D01*
X676561Y578403D01*
X676576Y578274D01*
X676604Y578182D01*
X676622Y578089D01*
X676669Y577967D01*
X676707Y577843D01*
X676750Y577757D01*
X676785Y577669D01*
X676852Y577557D01*
X676911Y577441D01*
X676969Y577365D01*
X677018Y577284D01*
X677105Y577186D01*
X677183Y577083D01*
X677253Y577018D01*
X677317Y576946D01*
X677419Y576866D01*
X677514Y576777D01*
X677595Y576726D01*
X677670Y576667D01*
X677784Y576606D01*
X677894Y576536D01*
X677982Y576499D01*
X678067Y576454D01*
X678190Y576414D01*
X678311Y576365D01*
X678404Y576345D01*
X678495Y576315D01*
X678623Y576297D01*
X678751Y576270D01*
X678881Y576262D01*
X678941Y576254D01*
X678985Y576255D01*
X679063Y576251D01*
X691600Y576251D01*
X691635Y576254D01*
X691669Y576252D01*
X691858Y576274D01*
X692049Y576291D01*
X692082Y576300D01*
X692116Y576304D01*
X692299Y576359D01*
X692483Y576409D01*
X692514Y576424D01*
X692547Y576434D01*
X692718Y576521D01*
X692890Y576603D01*
X692918Y576623D01*
X692949Y576638D01*
X693101Y576754D01*
X693256Y576865D01*
X693280Y576890D01*
X693307Y576910D01*
X693436Y577050D01*
X693570Y577187D01*
X693589Y577216D01*
X693613Y577242D01*
X693715Y577403D01*
X693822Y577560D01*
X693836Y577592D01*
X693854Y577621D01*
X693927Y577798D01*
X694004Y577972D01*
X694012Y578006D01*
X694025Y578038D01*
X694065Y578225D01*
X694111Y578410D01*
X694113Y578444D01*
X694120Y578478D01*
X694139Y578790D01*
X694139Y585972D01*
X695628Y587461D01*
X712972Y587461D01*
X714461Y585972D01*
X714461Y568628D01*
X712972Y567139D01*
X704172Y567139D01*
X703966Y567121D01*
X703760Y567106D01*
X703742Y567101D01*
X703724Y567099D01*
X703525Y567045D01*
X703324Y566993D01*
X703304Y566985D01*
X703289Y566981D01*
X703246Y566960D01*
X703037Y566871D01*
X702962Y566825D01*
X702883Y566787D01*
X702771Y566707D01*
X702653Y566635D01*
X702588Y566576D01*
X702517Y566525D01*
X702420Y566426D01*
X702318Y566335D01*
X702264Y566266D01*
X702203Y566203D01*
X702125Y566088D01*
X702041Y565980D01*
X702000Y565902D01*
X701951Y565830D01*
X701895Y565703D01*
X701830Y565582D01*
X701804Y565498D01*
X701768Y565418D01*
X701736Y565284D01*
X701694Y565153D01*
X701682Y565065D01*
X701662Y564980D01*
X701653Y564843D01*
X701635Y564706D01*
X701639Y564618D01*
X701634Y564531D01*
X701650Y564394D01*
X701656Y564256D01*
X701676Y564171D01*
X701686Y564084D01*
X701726Y563952D01*
X701757Y563817D01*
X701791Y563737D01*
X701816Y563653D01*
X701879Y563530D01*
X701933Y563403D01*
X701981Y563330D01*
X702021Y563251D01*
X702104Y563141D01*
X702179Y563026D01*
X702240Y562963D01*
X702293Y562893D01*
X702394Y562799D01*
X702489Y562699D01*
X702559Y562647D01*
X702624Y562587D01*
X702740Y562513D01*
X702851Y562432D01*
X702930Y562393D01*
X703004Y562346D01*
X703131Y562293D01*
X703255Y562232D01*
X703339Y562208D01*
X703420Y562175D01*
X703555Y562146D01*
X703687Y562107D01*
X703774Y562098D01*
X703860Y562080D01*
X704088Y562066D01*
X704135Y562061D01*
X704150Y562062D01*
X704172Y562061D01*
X708509Y562061D01*
X714461Y556109D01*
X714461Y547691D01*
X708509Y541739D01*
X700091Y541739D01*
X697025Y544806D01*
X696899Y544911D01*
X696778Y545023D01*
X696727Y545055D01*
X696680Y545094D01*
X696537Y545176D01*
X696398Y545264D01*
X696342Y545288D01*
X696289Y545318D01*
X696134Y545373D01*
X695982Y545435D01*
X695922Y545448D01*
X695864Y545469D01*
X695702Y545495D01*
X695541Y545530D01*
X695464Y545535D01*
X695420Y545542D01*
X695359Y545541D01*
X695230Y545549D01*
X605150Y545549D01*
X605115Y545546D01*
X605081Y545548D01*
X604892Y545526D01*
X604701Y545509D01*
X604668Y545500D01*
X604634Y545496D01*
X604451Y545441D01*
X604267Y545391D01*
X604236Y545376D01*
X604203Y545366D01*
X604032Y545279D01*
X603860Y545197D01*
X603832Y545177D01*
X603801Y545162D01*
X603649Y545046D01*
X603494Y544935D01*
X603470Y544910D01*
X603443Y544890D01*
X603314Y544750D01*
X603180Y544613D01*
X603161Y544584D01*
X603137Y544558D01*
X603035Y544397D01*
X602928Y544240D01*
X602914Y544208D01*
X602896Y544179D01*
X602823Y544002D01*
X602746Y543828D01*
X602738Y543794D01*
X602725Y543762D01*
X602685Y543575D01*
X602639Y543390D01*
X602637Y543356D01*
X602630Y543322D01*
X602611Y543010D01*
X602611Y511780D01*
X602614Y511745D01*
X602612Y511711D01*
X602634Y511522D01*
X602651Y511331D01*
X602660Y511298D01*
X602664Y511264D01*
X602719Y511081D01*
X602769Y510897D01*
X602784Y510866D01*
X602794Y510833D01*
X602881Y510662D01*
X602963Y510490D01*
X602983Y510462D01*
X602998Y510431D01*
X603114Y510279D01*
X603225Y510124D01*
X603250Y510100D01*
X603270Y510073D01*
X603410Y509944D01*
X603547Y509810D01*
X603576Y509791D01*
X603602Y509767D01*
X603763Y509665D01*
X603920Y509558D01*
X603952Y509544D01*
X603981Y509526D01*
X604158Y509453D01*
X604332Y509376D01*
X604366Y509368D01*
X604398Y509355D01*
X604585Y509315D01*
X604770Y509269D01*
X604804Y509267D01*
X604838Y509260D01*
X605150Y509241D01*
X607352Y509241D01*
X608354Y508239D01*
X608381Y508216D01*
X608404Y508190D01*
X608554Y508072D01*
X608700Y507950D01*
X608730Y507933D01*
X608757Y507911D01*
X608925Y507821D01*
X609091Y507726D01*
X609123Y507715D01*
X609154Y507698D01*
X609335Y507639D01*
X609515Y507576D01*
X609549Y507570D01*
X609582Y507559D01*
X609772Y507533D01*
X609959Y507502D01*
X609994Y507503D01*
X610028Y507498D01*
X610219Y507506D01*
X610409Y507508D01*
X610444Y507515D01*
X610478Y507516D01*
X610664Y507557D01*
X610852Y507594D01*
X610884Y507606D01*
X610918Y507614D01*
X611094Y507687D01*
X611272Y507756D01*
X611301Y507774D01*
X611333Y507787D01*
X611493Y507891D01*
X611656Y507990D01*
X611682Y508013D01*
X611711Y508032D01*
X611946Y508239D01*
X612440Y508733D01*
X613019Y509068D01*
X613665Y509241D01*
X618251Y509241D01*
X618251Y500910D01*
X618254Y500876D01*
X618252Y500841D01*
X618274Y500652D01*
X618291Y500462D01*
X618300Y500428D01*
X618304Y500394D01*
X618359Y500211D01*
X618409Y500027D01*
X618424Y499996D01*
X618434Y499963D01*
X618521Y499792D01*
X618603Y499621D01*
X618623Y499593D01*
X618638Y499562D01*
X618754Y499410D01*
X618865Y499255D01*
X618890Y499230D01*
X618910Y499203D01*
X619050Y499074D01*
X619187Y498941D01*
X619216Y498921D01*
X619242Y498898D01*
X619403Y498795D01*
X619560Y498688D01*
X619592Y498674D01*
X619621Y498656D01*
X619798Y498583D01*
X619849Y498561D01*
X619854Y498543D01*
X619941Y498372D01*
X620023Y498200D01*
X620043Y498172D01*
X620059Y498141D01*
X620174Y497989D01*
X620285Y497834D01*
X620310Y497810D01*
X620331Y497783D01*
X620471Y497654D01*
X620608Y497520D01*
X620636Y497501D01*
X620662Y497477D01*
X620823Y497375D01*
X620981Y497268D01*
X621012Y497254D01*
X621042Y497236D01*
X621218Y497163D01*
X621392Y497086D01*
X621426Y497078D01*
X621458Y497065D01*
X621645Y497024D01*
X621830Y496979D01*
X621864Y496977D01*
X621898Y496970D01*
X622210Y496951D01*
X631541Y496951D01*
X631541Y493365D01*
X631368Y492719D01*
X630953Y492002D01*
X630889Y491863D01*
X630817Y491728D01*
X630794Y491659D01*
X630764Y491593D01*
X630725Y491445D01*
X630677Y491300D01*
X630667Y491228D01*
X630649Y491158D01*
X630637Y491005D01*
X630616Y490854D01*
X630619Y490781D01*
X630613Y490709D01*
X630628Y490556D01*
X630634Y490404D01*
X630650Y490333D01*
X630657Y490261D01*
X630699Y490114D01*
X630732Y489964D01*
X630760Y489897D01*
X630780Y489827D01*
X630846Y489690D01*
X630905Y489549D01*
X630945Y489488D01*
X630977Y489423D01*
X631067Y489299D01*
X631150Y489171D01*
X631212Y489100D01*
X631242Y489059D01*
X631283Y489020D01*
X631357Y488936D01*
X631541Y488752D01*
X631541Y488617D01*
X631548Y488535D01*
X631546Y488453D01*
X631568Y488312D01*
X631581Y488169D01*
X631602Y488089D01*
X631615Y488008D01*
X631662Y487872D01*
X631699Y487735D01*
X631734Y487660D01*
X631761Y487582D01*
X631831Y487457D01*
X631893Y487328D01*
X631940Y487261D01*
X631981Y487189D01*
X632071Y487078D01*
X632155Y486962D01*
X632214Y486904D01*
X632266Y486841D01*
X632375Y486748D01*
X632477Y486648D01*
X632546Y486602D01*
X632608Y486548D01*
X632732Y486476D01*
X632850Y486396D01*
X632926Y486362D01*
X632997Y486321D01*
X633131Y486271D01*
X633262Y486213D01*
X633342Y486194D01*
X633420Y486166D01*
X633561Y486141D01*
X633700Y486107D01*
X633782Y486102D01*
X633863Y486087D01*
X634006Y486088D01*
X634149Y486079D01*
X634231Y486089D01*
X634313Y486089D01*
X634454Y486115D01*
X634596Y486131D01*
X634675Y486155D01*
X634756Y486170D01*
X634968Y486243D01*
X637498Y486243D01*
X639822Y485280D01*
X641600Y483502D01*
X642563Y481178D01*
X642563Y478662D01*
X641600Y476338D01*
X639822Y474560D01*
X637498Y473597D01*
X634982Y473597D01*
X634081Y473971D01*
X633879Y474034D01*
X633677Y474100D01*
X633664Y474102D01*
X633651Y474105D01*
X633441Y474132D01*
X633231Y474161D01*
X633218Y474161D01*
X633204Y474162D01*
X632994Y474151D01*
X632781Y474143D01*
X632768Y474140D01*
X632755Y474139D01*
X632550Y474092D01*
X632341Y474045D01*
X632329Y474040D01*
X632316Y474037D01*
X632122Y473953D01*
X631926Y473872D01*
X631915Y473864D01*
X631903Y473859D01*
X631726Y473742D01*
X631548Y473627D01*
X631536Y473617D01*
X631527Y473611D01*
X631498Y473584D01*
X631313Y473420D01*
X630052Y472159D01*
X612948Y472159D01*
X611946Y473161D01*
X611919Y473184D01*
X611896Y473210D01*
X611747Y473328D01*
X611600Y473450D01*
X611570Y473467D01*
X611543Y473489D01*
X611375Y473579D01*
X611209Y473674D01*
X611177Y473685D01*
X611146Y473702D01*
X610965Y473761D01*
X610785Y473824D01*
X610751Y473830D01*
X610718Y473841D01*
X610529Y473867D01*
X610341Y473898D01*
X610306Y473897D01*
X610272Y473902D01*
X610081Y473894D01*
X609890Y473892D01*
X609856Y473885D01*
X609822Y473884D01*
X609636Y473843D01*
X609448Y473806D01*
X609416Y473794D01*
X609382Y473786D01*
X609207Y473713D01*
X609028Y473644D01*
X608999Y473626D01*
X608967Y473613D01*
X608807Y473509D01*
X608644Y473410D01*
X608618Y473387D01*
X608589Y473368D01*
X608354Y473161D01*
X607352Y472159D01*
X590248Y472159D01*
X589496Y472911D01*
X589469Y472934D01*
X589446Y472960D01*
X589297Y473078D01*
X589150Y473200D01*
X589120Y473217D01*
X589093Y473239D01*
X588925Y473329D01*
X588759Y473424D01*
X588727Y473435D01*
X588696Y473452D01*
X588515Y473510D01*
X588335Y473574D01*
X588301Y473580D01*
X588268Y473591D01*
X588079Y473617D01*
X587891Y473648D01*
X587856Y473647D01*
X587822Y473652D01*
X587631Y473644D01*
X587441Y473642D01*
X587406Y473635D01*
X587372Y473634D01*
X587186Y473592D01*
X586998Y473556D01*
X586966Y473544D01*
X586932Y473536D01*
X586756Y473463D01*
X586578Y473394D01*
X586549Y473376D01*
X586517Y473363D01*
X586356Y473259D01*
X586194Y473160D01*
X586168Y473137D01*
X586139Y473118D01*
X585904Y472911D01*
X585052Y472059D01*
X567948Y472059D01*
X567246Y472761D01*
X567219Y472784D01*
X567196Y472810D01*
X567047Y472928D01*
X566900Y473050D01*
X566870Y473067D01*
X566843Y473089D01*
X566675Y473179D01*
X566509Y473274D01*
X566477Y473285D01*
X566446Y473302D01*
X566265Y473361D01*
X566085Y473424D01*
X566051Y473430D01*
X566018Y473441D01*
X565829Y473467D01*
X565641Y473498D01*
X565606Y473497D01*
X565572Y473502D01*
X565381Y473494D01*
X565190Y473492D01*
X565156Y473485D01*
X565122Y473484D01*
X564936Y473443D01*
X564748Y473406D01*
X564716Y473394D01*
X564682Y473386D01*
X564507Y473313D01*
X564328Y473244D01*
X564299Y473226D01*
X564267Y473213D01*
X564107Y473109D01*
X563944Y473010D01*
X563918Y472987D01*
X563889Y472968D01*
X563654Y472761D01*
X562652Y471759D01*
X545372Y471759D01*
X545286Y471810D01*
X545273Y471814D01*
X545262Y471821D01*
X545063Y471892D01*
X544863Y471965D01*
X544850Y471967D01*
X544838Y471972D01*
X544629Y472006D01*
X544420Y472043D01*
X544406Y472043D01*
X544393Y472045D01*
X544181Y472042D01*
X543969Y472042D01*
X543956Y472039D01*
X543943Y472039D01*
X543735Y471999D01*
X543526Y471961D01*
X543512Y471956D01*
X543501Y471954D01*
X543465Y471940D01*
X543231Y471859D01*
X541778Y471257D01*
X539262Y471257D01*
X536938Y472220D01*
X535160Y473998D01*
X534197Y476322D01*
X534197Y478838D01*
X535160Y481162D01*
X536938Y482940D01*
X539262Y483903D01*
X541520Y483903D01*
X541555Y483906D01*
X541589Y483904D01*
X541778Y483926D01*
X541969Y483943D01*
X542002Y483952D01*
X542036Y483956D01*
X542219Y484011D01*
X542403Y484061D01*
X542434Y484076D01*
X542467Y484086D01*
X542638Y484173D01*
X542810Y484255D01*
X542838Y484275D01*
X542869Y484290D01*
X543021Y484406D01*
X543176Y484517D01*
X543200Y484542D01*
X543227Y484562D01*
X543356Y484702D01*
X543490Y484839D01*
X543509Y484868D01*
X543533Y484894D01*
X543635Y485055D01*
X543742Y485212D01*
X543756Y485244D01*
X543774Y485273D01*
X543847Y485450D01*
X543924Y485624D01*
X543932Y485658D01*
X543945Y485690D01*
X543985Y485877D01*
X544031Y486062D01*
X544033Y486096D01*
X544040Y486130D01*
X544059Y486442D01*
X544059Y488352D01*
X544243Y488536D01*
X544335Y488646D01*
X544369Y488681D01*
X544375Y488689D01*
X544446Y488765D01*
X544486Y488826D01*
X544532Y488882D01*
X544608Y489015D01*
X544691Y489143D01*
X544720Y489210D01*
X544756Y489273D01*
X544807Y489417D01*
X544866Y489558D01*
X544882Y489629D01*
X544906Y489697D01*
X544931Y489848D01*
X544965Y489997D01*
X544968Y490070D01*
X544980Y490141D01*
X544978Y490294D01*
X544984Y490447D01*
X544975Y490519D01*
X544974Y490591D01*
X544945Y490742D01*
X544924Y490893D01*
X544902Y490962D01*
X544888Y491033D01*
X544833Y491176D01*
X544786Y491322D01*
X544744Y491406D01*
X544726Y491453D01*
X544696Y491502D01*
X544647Y491602D01*
X544232Y492319D01*
X544059Y492965D01*
X544059Y496551D01*
X553390Y496551D01*
X553424Y496554D01*
X553459Y496552D01*
X553648Y496574D01*
X553838Y496591D01*
X553872Y496600D01*
X553906Y496604D01*
X554087Y496658D01*
X554245Y496624D01*
X554430Y496579D01*
X554464Y496577D01*
X554498Y496570D01*
X554810Y496551D01*
X563920Y496551D01*
X563955Y496554D01*
X563989Y496552D01*
X564178Y496574D01*
X564369Y496591D01*
X564402Y496600D01*
X564436Y496604D01*
X564619Y496659D01*
X564803Y496709D01*
X564834Y496724D01*
X564867Y496734D01*
X565038Y496821D01*
X565101Y496851D01*
X575790Y496851D01*
X575824Y496854D01*
X575859Y496852D01*
X576048Y496874D01*
X576238Y496891D01*
X576272Y496900D01*
X576306Y496904D01*
X576489Y496959D01*
X576673Y497009D01*
X576704Y497024D01*
X576737Y497034D01*
X576908Y497121D01*
X577079Y497203D01*
X577107Y497223D01*
X577138Y497238D01*
X577290Y497354D01*
X577445Y497465D01*
X577470Y497490D01*
X577497Y497510D01*
X577626Y497650D01*
X577759Y497787D01*
X577779Y497816D01*
X577802Y497842D01*
X577905Y498003D01*
X578012Y498160D01*
X578026Y498192D01*
X578044Y498221D01*
X578117Y498398D01*
X578139Y498449D01*
X578157Y498454D01*
X578328Y498541D01*
X578500Y498623D01*
X578528Y498643D01*
X578559Y498659D01*
X578711Y498774D01*
X578866Y498885D01*
X578890Y498910D01*
X578917Y498931D01*
X579046Y499071D01*
X579180Y499208D01*
X579199Y499236D01*
X579223Y499262D01*
X579325Y499423D01*
X579432Y499581D01*
X579446Y499612D01*
X579464Y499642D01*
X579537Y499818D01*
X579614Y499992D01*
X579622Y500026D01*
X579635Y500058D01*
X579675Y500245D01*
X579721Y500430D01*
X579723Y500464D01*
X579730Y500498D01*
X579749Y500810D01*
X579749Y509141D01*
X584335Y509141D01*
X584981Y508968D01*
X585560Y508633D01*
X585804Y508389D01*
X585831Y508366D01*
X585854Y508340D01*
X586004Y508222D01*
X586150Y508100D01*
X586180Y508083D01*
X586207Y508061D01*
X586375Y507971D01*
X586541Y507876D01*
X586573Y507865D01*
X586604Y507848D01*
X586785Y507789D01*
X586965Y507726D01*
X586999Y507720D01*
X587032Y507709D01*
X587222Y507683D01*
X587409Y507652D01*
X587444Y507653D01*
X587478Y507648D01*
X587669Y507656D01*
X587859Y507658D01*
X587893Y507665D01*
X587928Y507666D01*
X588114Y507707D01*
X588302Y507744D01*
X588334Y507756D01*
X588368Y507764D01*
X588543Y507837D01*
X588722Y507906D01*
X588751Y507924D01*
X588783Y507937D01*
X588944Y508041D01*
X589106Y508140D01*
X589132Y508163D01*
X589161Y508182D01*
X589396Y508389D01*
X590248Y509241D01*
X592450Y509241D01*
X592485Y509244D01*
X592519Y509242D01*
X592708Y509264D01*
X592899Y509281D01*
X592932Y509290D01*
X592966Y509294D01*
X593149Y509349D01*
X593333Y509399D01*
X593364Y509414D01*
X593397Y509424D01*
X593568Y509511D01*
X593740Y509593D01*
X593768Y509613D01*
X593799Y509628D01*
X593951Y509744D01*
X594106Y509855D01*
X594130Y509880D01*
X594157Y509900D01*
X594286Y510040D01*
X594420Y510177D01*
X594439Y510206D01*
X594463Y510232D01*
X594565Y510393D01*
X594672Y510550D01*
X594686Y510582D01*
X594704Y510611D01*
X594777Y510788D01*
X594854Y510962D01*
X594862Y510996D01*
X594875Y511028D01*
X594915Y511215D01*
X594961Y511400D01*
X594963Y511434D01*
X594970Y511468D01*
X594989Y511780D01*
X594989Y543010D01*
X594986Y543045D01*
X594988Y543079D01*
X594966Y543268D01*
X594949Y543459D01*
X594940Y543492D01*
X594936Y543526D01*
X594881Y543709D01*
X594831Y543893D01*
X594816Y543924D01*
X594806Y543957D01*
X594719Y544128D01*
X594637Y544300D01*
X594617Y544328D01*
X594602Y544359D01*
X594486Y544511D01*
X594375Y544666D01*
X594350Y544690D01*
X594330Y544717D01*
X594190Y544846D01*
X594053Y544980D01*
X594024Y544999D01*
X593998Y545023D01*
X593837Y545125D01*
X593680Y545232D01*
X593648Y545246D01*
X593619Y545264D01*
X593442Y545337D01*
X593268Y545414D01*
X593234Y545422D01*
X593202Y545435D01*
X593015Y545475D01*
X592830Y545521D01*
X592796Y545523D01*
X592762Y545530D01*
X592450Y545549D01*
X505078Y545549D01*
X505036Y545558D01*
X504932Y545591D01*
X504817Y545605D01*
X504702Y545630D01*
X504548Y545640D01*
X504486Y545647D01*
X504449Y545646D01*
X504390Y545649D01*
X425070Y545649D01*
X424907Y545635D01*
X424742Y545628D01*
X424683Y545615D01*
X424622Y545609D01*
X424463Y545566D01*
X424303Y545530D01*
X424246Y545507D01*
X424188Y545491D01*
X424040Y545420D01*
X423887Y545357D01*
X423836Y545324D01*
X423781Y545297D01*
X423648Y545202D01*
X423509Y545112D01*
X423451Y545061D01*
X423415Y545035D01*
X423372Y544992D01*
X423275Y544906D01*
X420109Y541739D01*
X411691Y541739D01*
X408086Y545345D01*
X407986Y545428D01*
X407893Y545519D01*
X407813Y545573D01*
X407740Y545634D01*
X407627Y545698D01*
X407520Y545771D01*
X407432Y545810D01*
X407349Y545857D01*
X407227Y545901D01*
X407108Y545954D01*
X407015Y545976D01*
X406925Y546008D01*
X406797Y546029D01*
X406670Y546060D01*
X406575Y546066D01*
X406481Y546082D01*
X406351Y546080D01*
X406221Y546088D01*
X406126Y546077D01*
X406030Y546076D01*
X405903Y546051D01*
X405774Y546036D01*
X405682Y546008D01*
X405588Y545990D01*
X405467Y545943D01*
X405343Y545906D01*
X405258Y545862D01*
X405168Y545828D01*
X405057Y545760D01*
X404941Y545701D01*
X404865Y545643D01*
X404784Y545594D01*
X404686Y545508D01*
X404583Y545429D01*
X404518Y545359D01*
X404446Y545296D01*
X404366Y545194D01*
X404277Y545098D01*
X404226Y545017D01*
X404167Y544943D01*
X404106Y544828D01*
X404036Y544718D01*
X403999Y544630D01*
X403954Y544546D01*
X403914Y544422D01*
X403865Y544302D01*
X403845Y544208D01*
X403815Y544117D01*
X403797Y543989D01*
X403770Y543861D01*
X403762Y543732D01*
X403754Y543671D01*
X403755Y543626D01*
X403751Y543550D01*
X403751Y526862D01*
X403765Y526699D01*
X403772Y526534D01*
X403785Y526475D01*
X403791Y526414D01*
X403834Y526255D01*
X403870Y526095D01*
X403893Y526038D01*
X403909Y525979D01*
X403980Y525831D01*
X404043Y525679D01*
X404076Y525628D01*
X404103Y525573D01*
X404198Y525439D01*
X404288Y525301D01*
X404339Y525243D01*
X404365Y525207D01*
X404408Y525164D01*
X404494Y525067D01*
X435884Y493677D01*
X436270Y492745D01*
X436324Y492641D01*
X436369Y492533D01*
X436428Y492442D01*
X436479Y492346D01*
X436508Y492309D01*
X437523Y489858D01*
X437523Y487546D01*
X437534Y487416D01*
X437536Y487285D01*
X437554Y487192D01*
X437563Y487098D01*
X437597Y486972D01*
X437622Y486843D01*
X437656Y486755D01*
X437681Y486663D01*
X437737Y486545D01*
X437784Y486424D01*
X437834Y486342D01*
X437875Y486257D01*
X437951Y486151D01*
X438018Y486039D01*
X438081Y485968D01*
X438137Y485891D01*
X438230Y485799D01*
X438317Y485702D01*
X438391Y485643D01*
X438459Y485577D01*
X438568Y485503D01*
X438670Y485422D01*
X438754Y485378D01*
X438832Y485324D01*
X438952Y485272D01*
X439067Y485210D01*
X439157Y485181D01*
X439244Y485142D01*
X439371Y485111D01*
X439495Y485071D01*
X439589Y485058D01*
X439682Y485036D01*
X439812Y485028D01*
X439941Y485010D01*
X440036Y485014D01*
X440131Y485008D01*
X440261Y485023D01*
X440391Y485028D01*
X440447Y485041D01*
X456252Y485041D01*
X456436Y484857D01*
X456554Y484758D01*
X456665Y484654D01*
X456726Y484614D01*
X456782Y484568D01*
X456915Y484492D01*
X457043Y484409D01*
X457110Y484380D01*
X457173Y484344D01*
X457317Y484293D01*
X457458Y484234D01*
X457529Y484218D01*
X457597Y484194D01*
X457748Y484169D01*
X457897Y484135D01*
X457970Y484132D01*
X458041Y484120D01*
X458194Y484122D01*
X458347Y484116D01*
X458419Y484125D01*
X458491Y484126D01*
X458642Y484155D01*
X458793Y484176D01*
X458862Y484198D01*
X458933Y484212D01*
X459076Y484267D01*
X459222Y484314D01*
X459306Y484356D01*
X459353Y484374D01*
X459402Y484404D01*
X459502Y484453D01*
X460219Y484868D01*
X460865Y485041D01*
X464451Y485041D01*
X464451Y475210D01*
X464454Y475176D01*
X464452Y475141D01*
X464474Y474952D01*
X464491Y474762D01*
X464500Y474728D01*
X464504Y474694D01*
X464559Y474511D01*
X464609Y474327D01*
X464624Y474296D01*
X464634Y474263D01*
X464721Y474092D01*
X464803Y473921D01*
X464823Y473893D01*
X464838Y473862D01*
X464954Y473710D01*
X465065Y473555D01*
X465090Y473530D01*
X465110Y473503D01*
X465250Y473374D01*
X465387Y473241D01*
X465416Y473221D01*
X465442Y473198D01*
X465603Y473095D01*
X465760Y472988D01*
X465792Y472974D01*
X465821Y472956D01*
X465998Y472883D01*
X466049Y472861D01*
X466054Y472843D01*
X466141Y472672D01*
X466223Y472500D01*
X466243Y472472D01*
X466259Y472441D01*
X466374Y472289D01*
X466485Y472134D01*
X466510Y472110D01*
X466531Y472083D01*
X466671Y471954D01*
X466808Y471820D01*
X466836Y471801D01*
X466862Y471777D01*
X467023Y471675D01*
X467181Y471568D01*
X467212Y471554D01*
X467242Y471536D01*
X467418Y471463D01*
X467592Y471386D01*
X467626Y471378D01*
X467658Y471365D01*
X467845Y471324D01*
X468030Y471279D01*
X468064Y471277D01*
X468098Y471270D01*
X468410Y471251D01*
X476741Y471251D01*
X476741Y466750D01*
X476744Y466715D01*
X476742Y466681D01*
X476764Y466492D01*
X476781Y466301D01*
X476790Y466268D01*
X476794Y466234D01*
X476849Y466051D01*
X476899Y465867D01*
X476914Y465836D01*
X476924Y465803D01*
X477011Y465632D01*
X477093Y465460D01*
X477113Y465432D01*
X477128Y465401D01*
X477244Y465249D01*
X477355Y465094D01*
X477380Y465070D01*
X477400Y465043D01*
X477540Y464914D01*
X477677Y464780D01*
X477706Y464761D01*
X477732Y464737D01*
X477893Y464635D01*
X478050Y464528D01*
X478082Y464514D01*
X478111Y464496D01*
X478288Y464423D01*
X478462Y464346D01*
X478496Y464338D01*
X478528Y464325D01*
X478714Y464285D01*
X478900Y464239D01*
X478934Y464237D01*
X478968Y464230D01*
X479280Y464211D01*
X607358Y464211D01*
X608759Y463631D01*
X621531Y450859D01*
X622111Y449458D01*
X622111Y445183D01*
X622125Y445019D01*
X622132Y444855D01*
X622145Y444795D01*
X622151Y444734D01*
X622194Y444575D01*
X622230Y444415D01*
X622253Y444359D01*
X622269Y444300D01*
X622340Y444152D01*
X622403Y444000D01*
X622436Y443948D01*
X622463Y443893D01*
X622558Y443760D01*
X622648Y443621D01*
X622699Y443564D01*
X622725Y443527D01*
X622768Y443485D01*
X622854Y443387D01*
X623660Y442582D01*
X624623Y440258D01*
X624623Y437742D01*
X623981Y436194D01*
X623943Y436070D01*
X623894Y435949D01*
X623875Y435856D01*
X623847Y435765D01*
X623830Y435635D01*
X623804Y435508D01*
X623802Y435413D01*
X623790Y435318D01*
X623797Y435188D01*
X623794Y435058D01*
X623808Y434964D01*
X623813Y434868D01*
X623842Y434742D01*
X623862Y434613D01*
X623894Y434523D01*
X623915Y434430D01*
X623966Y434310D01*
X624009Y434187D01*
X624055Y434104D01*
X624093Y434016D01*
X624165Y433908D01*
X624228Y433794D01*
X624289Y433720D01*
X624341Y433640D01*
X624431Y433547D01*
X624513Y433446D01*
X624586Y433384D01*
X624652Y433315D01*
X624757Y433238D01*
X624856Y433153D01*
X624938Y433105D01*
X625015Y433049D01*
X625132Y432992D01*
X625244Y432926D01*
X625334Y432893D01*
X625420Y432851D01*
X625545Y432815D01*
X625667Y432771D01*
X625761Y432754D01*
X625853Y432728D01*
X625983Y432715D01*
X626111Y432693D01*
X626206Y432693D01*
X626301Y432683D01*
X626431Y432694D01*
X626561Y432694D01*
X626655Y432711D01*
X626750Y432719D01*
X626876Y432752D01*
X627004Y432775D01*
X627126Y432817D01*
X627186Y432833D01*
X627226Y432852D01*
X627299Y432877D01*
X627362Y432903D01*
X629878Y432903D01*
X632202Y431940D01*
X633980Y430162D01*
X634943Y427838D01*
X634943Y425322D01*
X633980Y422998D01*
X633174Y422193D01*
X633069Y422066D01*
X632957Y421946D01*
X632925Y421894D01*
X632886Y421847D01*
X632804Y421705D01*
X632716Y421566D01*
X632692Y421509D01*
X632662Y421456D01*
X632607Y421302D01*
X632545Y421149D01*
X632532Y421090D01*
X632511Y421032D01*
X632485Y420870D01*
X632450Y420709D01*
X632445Y420632D01*
X632438Y420588D01*
X632439Y420527D01*
X632431Y420397D01*
X632431Y397882D01*
X631851Y396481D01*
X630606Y395237D01*
X630501Y395111D01*
X630389Y394990D01*
X630357Y394939D01*
X630318Y394892D01*
X630236Y394749D01*
X630148Y394610D01*
X630124Y394554D01*
X630094Y394501D01*
X630039Y394346D01*
X629977Y394194D01*
X629964Y394134D01*
X629943Y394077D01*
X629917Y393914D01*
X629882Y393754D01*
X629877Y393677D01*
X629870Y393632D01*
X629871Y393571D01*
X629863Y393442D01*
X629863Y392302D01*
X628900Y389978D01*
X627122Y388200D01*
X626721Y388034D01*
X626648Y387996D01*
X626571Y387966D01*
X626448Y387892D01*
X626322Y387825D01*
X626257Y387775D01*
X626186Y387732D01*
X626079Y387637D01*
X625966Y387550D01*
X625910Y387488D01*
X625849Y387434D01*
X625760Y387322D01*
X625664Y387215D01*
X625620Y387145D01*
X625569Y387081D01*
X625502Y386955D01*
X625426Y386833D01*
X625396Y386756D01*
X625357Y386684D01*
X625312Y386548D01*
X625259Y386415D01*
X625243Y386334D01*
X625217Y386256D01*
X625198Y386114D01*
X625169Y385974D01*
X625167Y385891D01*
X625156Y385810D01*
X625162Y385666D01*
X625158Y385523D01*
X625171Y385442D01*
X625174Y385360D01*
X625206Y385220D01*
X625227Y385078D01*
X625254Y385001D01*
X625272Y384920D01*
X625327Y384788D01*
X625374Y384653D01*
X625414Y384581D01*
X625446Y384505D01*
X625523Y384384D01*
X625593Y384259D01*
X625645Y384196D01*
X625690Y384126D01*
X625854Y383941D01*
X625878Y383911D01*
X625886Y383904D01*
X625897Y383892D01*
X626915Y382874D01*
X627041Y382769D01*
X627162Y382657D01*
X627213Y382625D01*
X627260Y382586D01*
X627403Y382504D01*
X627542Y382416D01*
X627598Y382392D01*
X627651Y382362D01*
X627806Y382307D01*
X627958Y382245D01*
X628018Y382232D01*
X628075Y382211D01*
X628238Y382185D01*
X628398Y382150D01*
X628475Y382145D01*
X628520Y382138D01*
X628581Y382139D01*
X628710Y382131D01*
X670530Y382131D01*
X670565Y382134D01*
X670599Y382132D01*
X670788Y382154D01*
X670979Y382171D01*
X671012Y382180D01*
X671046Y382184D01*
X671229Y382239D01*
X671413Y382289D01*
X671444Y382304D01*
X671477Y382314D01*
X671648Y382401D01*
X671820Y382483D01*
X671848Y382503D01*
X671879Y382518D01*
X672031Y382634D01*
X672186Y382745D01*
X672210Y382770D01*
X672237Y382790D01*
X672366Y382930D01*
X672500Y383067D01*
X672519Y383096D01*
X672543Y383122D01*
X672645Y383283D01*
X672752Y383440D01*
X672766Y383472D01*
X672784Y383501D01*
X672857Y383678D01*
X672934Y383852D01*
X672942Y383886D01*
X672955Y383918D01*
X672995Y384105D01*
X673041Y384290D01*
X673043Y384324D01*
X673050Y384358D01*
X673069Y384670D01*
X673069Y420397D01*
X673055Y420561D01*
X673048Y420725D01*
X673035Y420785D01*
X673029Y420846D01*
X672986Y421005D01*
X672950Y421165D01*
X672927Y421221D01*
X672911Y421280D01*
X672840Y421428D01*
X672777Y421580D01*
X672744Y421632D01*
X672717Y421687D01*
X672622Y421820D01*
X672532Y421959D01*
X672481Y422016D01*
X672455Y422053D01*
X672412Y422095D01*
X672326Y422193D01*
X671520Y422998D01*
X670557Y425322D01*
X670557Y427838D01*
X671520Y430162D01*
X673298Y431940D01*
X675622Y432903D01*
X678138Y432903D01*
X680462Y431940D01*
X682240Y430162D01*
X683203Y427838D01*
X683203Y425322D01*
X682240Y422998D01*
X681434Y422193D01*
X681329Y422066D01*
X681217Y421946D01*
X681185Y421894D01*
X681146Y421847D01*
X681064Y421705D01*
X680976Y421566D01*
X680952Y421509D01*
X680922Y421456D01*
X680867Y421302D01*
X680805Y421149D01*
X680792Y421090D01*
X680771Y421032D01*
X680745Y420870D01*
X680710Y420709D01*
X680705Y420632D01*
X680698Y420588D01*
X680699Y420527D01*
X680691Y420397D01*
X680691Y384503D01*
X680705Y384339D01*
X680712Y384175D01*
X680725Y384115D01*
X680731Y384054D01*
X680774Y383895D01*
X680810Y383735D01*
X680833Y383679D01*
X680849Y383620D01*
X680920Y383472D01*
X680983Y383320D01*
X681016Y383268D01*
X681043Y383213D01*
X681138Y383080D01*
X681228Y382941D01*
X681279Y382884D01*
X681305Y382847D01*
X681348Y382805D01*
X681434Y382707D01*
X682240Y381902D01*
X683203Y379578D01*
X683203Y377062D01*
X682240Y374738D01*
X680462Y372960D01*
X678138Y371997D01*
X675622Y371997D01*
X673298Y372960D01*
X672493Y373766D01*
X672366Y373871D01*
X672246Y373983D01*
X672194Y374015D01*
X672147Y374054D01*
X672005Y374136D01*
X671866Y374224D01*
X671809Y374248D01*
X671756Y374278D01*
X671602Y374333D01*
X671449Y374395D01*
X671390Y374408D01*
X671332Y374429D01*
X671170Y374455D01*
X671009Y374490D01*
X670932Y374495D01*
X670888Y374502D01*
X670827Y374501D01*
X670697Y374509D01*
X634970Y374509D01*
X634935Y374506D01*
X634901Y374508D01*
X634712Y374486D01*
X634521Y374469D01*
X634488Y374460D01*
X634454Y374456D01*
X634271Y374401D01*
X634087Y374351D01*
X634056Y374336D01*
X634023Y374326D01*
X633852Y374239D01*
X633680Y374157D01*
X633652Y374137D01*
X633621Y374122D01*
X633469Y374006D01*
X633314Y373895D01*
X633290Y373870D01*
X633263Y373850D01*
X633134Y373710D01*
X633000Y373573D01*
X632981Y373544D01*
X632957Y373518D01*
X632855Y373357D01*
X632748Y373200D01*
X632734Y373168D01*
X632716Y373139D01*
X632643Y372962D01*
X632566Y372788D01*
X632558Y372754D01*
X632545Y372722D01*
X632505Y372535D01*
X632459Y372350D01*
X632457Y372316D01*
X632450Y372282D01*
X632431Y371970D01*
X632431Y368400D01*
X632434Y368366D01*
X632432Y368331D01*
X632454Y368142D01*
X632471Y367952D01*
X632480Y367918D01*
X632484Y367884D01*
X632539Y367701D01*
X632589Y367517D01*
X632604Y367486D01*
X632614Y367453D01*
X632701Y367282D01*
X632783Y367111D01*
X632803Y367082D01*
X632818Y367051D01*
X632934Y366899D01*
X633045Y366744D01*
X633070Y366720D01*
X633090Y366693D01*
X633230Y366564D01*
X633367Y366430D01*
X633396Y366411D01*
X633422Y366388D01*
X633583Y366285D01*
X633740Y366178D01*
X633772Y366164D01*
X633801Y366146D01*
X633978Y366073D01*
X634152Y365996D01*
X634186Y365988D01*
X634218Y365975D01*
X634405Y365935D01*
X634590Y365889D01*
X634624Y365887D01*
X634658Y365880D01*
X634970Y365861D01*
X709752Y365861D01*
X709881Y365872D01*
G37*
G36*
X414303Y365875D02*
X414303Y365875D01*
X414468Y365882D01*
X414527Y365895D01*
X414588Y365901D01*
X414747Y365944D01*
X414907Y365980D01*
X414964Y366003D01*
X415023Y366019D01*
X415171Y366090D01*
X415323Y366153D01*
X415374Y366186D01*
X415429Y366213D01*
X415563Y366308D01*
X415701Y366398D01*
X415759Y366449D01*
X415795Y366475D01*
X415838Y366518D01*
X415935Y366604D01*
X463727Y414396D01*
X463750Y414423D01*
X463775Y414446D01*
X463893Y414595D01*
X464016Y414742D01*
X464033Y414772D01*
X464055Y414799D01*
X464145Y414967D01*
X464240Y415133D01*
X464251Y415165D01*
X464267Y415196D01*
X464326Y415377D01*
X464390Y415557D01*
X464396Y415591D01*
X464407Y415624D01*
X464433Y415813D01*
X464464Y416001D01*
X464463Y416036D01*
X464468Y416070D01*
X464460Y416261D01*
X464458Y416451D01*
X464451Y416486D01*
X464450Y416520D01*
X464408Y416706D01*
X464372Y416894D01*
X464360Y416926D01*
X464352Y416960D01*
X464279Y417136D01*
X464210Y417314D01*
X464192Y417343D01*
X464179Y417375D01*
X464075Y417535D01*
X463976Y417698D01*
X463953Y417724D01*
X463934Y417753D01*
X463727Y417987D01*
X426893Y454822D01*
X426119Y456689D01*
X426119Y483839D01*
X426109Y483955D01*
X426109Y484072D01*
X426089Y484179D01*
X426079Y484287D01*
X426049Y484400D01*
X426028Y484515D01*
X425977Y484661D01*
X425961Y484722D01*
X425945Y484754D01*
X425926Y484810D01*
X425510Y485816D01*
X425456Y485919D01*
X425410Y486027D01*
X425351Y486119D01*
X425301Y486215D01*
X425230Y486307D01*
X425166Y486405D01*
X425064Y486521D01*
X425025Y486571D01*
X424999Y486595D01*
X424959Y486640D01*
X394546Y517053D01*
X394446Y517137D01*
X394353Y517227D01*
X394273Y517281D01*
X394200Y517342D01*
X394087Y517407D01*
X393980Y517479D01*
X393892Y517518D01*
X393809Y517565D01*
X393687Y517609D01*
X393568Y517662D01*
X393475Y517684D01*
X393385Y517716D01*
X393256Y517738D01*
X393130Y517768D01*
X393035Y517774D01*
X392941Y517790D01*
X392810Y517788D01*
X392681Y517796D01*
X392586Y517785D01*
X392490Y517784D01*
X392363Y517759D01*
X392234Y517744D01*
X392142Y517716D01*
X392048Y517698D01*
X391927Y517651D01*
X391803Y517614D01*
X391718Y517570D01*
X391628Y517536D01*
X391517Y517468D01*
X391401Y517409D01*
X391325Y517352D01*
X391244Y517302D01*
X391146Y517216D01*
X391043Y517137D01*
X390978Y517067D01*
X390906Y517004D01*
X390826Y516902D01*
X390737Y516806D01*
X390686Y516725D01*
X390627Y516651D01*
X390566Y516536D01*
X390496Y516426D01*
X390459Y516338D01*
X390414Y516254D01*
X390374Y516130D01*
X390325Y516010D01*
X390305Y515916D01*
X390275Y515826D01*
X390257Y515697D01*
X390230Y515570D01*
X390222Y515440D01*
X390214Y515379D01*
X390215Y515335D01*
X390211Y515258D01*
X390211Y478679D01*
X388054Y473472D01*
X388030Y473395D01*
X388000Y473327D01*
X387992Y473294D01*
X387975Y473252D01*
X387952Y473146D01*
X387919Y473042D01*
X387907Y472948D01*
X387893Y472890D01*
X387892Y472867D01*
X387880Y472812D01*
X387871Y472658D01*
X387863Y472596D01*
X387864Y472559D01*
X387861Y472500D01*
X387861Y368400D01*
X387864Y368366D01*
X387862Y368331D01*
X387884Y368142D01*
X387901Y367952D01*
X387910Y367918D01*
X387914Y367884D01*
X387969Y367701D01*
X388019Y367517D01*
X388034Y367486D01*
X388044Y367453D01*
X388131Y367282D01*
X388213Y367111D01*
X388233Y367082D01*
X388248Y367051D01*
X388364Y366899D01*
X388475Y366744D01*
X388500Y366720D01*
X388520Y366693D01*
X388661Y366564D01*
X388797Y366430D01*
X388826Y366411D01*
X388852Y366388D01*
X389013Y366285D01*
X389170Y366178D01*
X389202Y366164D01*
X389231Y366146D01*
X389408Y366073D01*
X389582Y365996D01*
X389616Y365988D01*
X389648Y365975D01*
X389835Y365935D01*
X390020Y365889D01*
X390054Y365887D01*
X390088Y365880D01*
X390400Y365861D01*
X414140Y365861D01*
X414303Y365875D01*
G37*
G36*
X34303Y365875D02*
X34303Y365875D01*
X34468Y365882D01*
X34527Y365895D01*
X34588Y365901D01*
X34747Y365944D01*
X34907Y365980D01*
X34964Y366003D01*
X35023Y366019D01*
X35171Y366090D01*
X35323Y366153D01*
X35374Y366186D01*
X35429Y366213D01*
X35563Y366308D01*
X35701Y366398D01*
X35759Y366449D01*
X35795Y366475D01*
X35838Y366518D01*
X35935Y366604D01*
X83727Y414396D01*
X83750Y414423D01*
X83775Y414446D01*
X83893Y414595D01*
X84016Y414742D01*
X84033Y414772D01*
X84055Y414799D01*
X84145Y414967D01*
X84240Y415133D01*
X84251Y415165D01*
X84267Y415196D01*
X84326Y415377D01*
X84390Y415557D01*
X84396Y415591D01*
X84407Y415624D01*
X84433Y415813D01*
X84464Y416001D01*
X84463Y416036D01*
X84468Y416070D01*
X84460Y416261D01*
X84458Y416451D01*
X84451Y416486D01*
X84450Y416520D01*
X84408Y416706D01*
X84372Y416894D01*
X84360Y416926D01*
X84352Y416960D01*
X84279Y417136D01*
X84210Y417314D01*
X84192Y417343D01*
X84179Y417375D01*
X84075Y417535D01*
X83976Y417698D01*
X83953Y417724D01*
X83934Y417753D01*
X83727Y417987D01*
X46893Y454822D01*
X46119Y456689D01*
X46119Y483839D01*
X46109Y483955D01*
X46109Y484072D01*
X46089Y484179D01*
X46079Y484287D01*
X46049Y484400D01*
X46028Y484515D01*
X45977Y484661D01*
X45961Y484722D01*
X45945Y484754D01*
X45926Y484810D01*
X45510Y485816D01*
X45456Y485919D01*
X45410Y486027D01*
X45351Y486119D01*
X45301Y486215D01*
X45230Y486307D01*
X45166Y486405D01*
X45064Y486521D01*
X45025Y486571D01*
X44999Y486595D01*
X44959Y486640D01*
X14546Y517053D01*
X14446Y517137D01*
X14353Y517227D01*
X14273Y517281D01*
X14200Y517342D01*
X14087Y517407D01*
X13980Y517479D01*
X13892Y517518D01*
X13809Y517565D01*
X13687Y517609D01*
X13568Y517662D01*
X13475Y517684D01*
X13385Y517716D01*
X13256Y517738D01*
X13130Y517768D01*
X13035Y517774D01*
X12941Y517790D01*
X12810Y517788D01*
X12681Y517796D01*
X12586Y517785D01*
X12490Y517784D01*
X12363Y517759D01*
X12234Y517744D01*
X12142Y517716D01*
X12048Y517698D01*
X11927Y517651D01*
X11803Y517614D01*
X11718Y517570D01*
X11628Y517536D01*
X11517Y517468D01*
X11401Y517409D01*
X11325Y517352D01*
X11244Y517302D01*
X11146Y517216D01*
X11043Y517137D01*
X10978Y517067D01*
X10906Y517004D01*
X10826Y516902D01*
X10737Y516806D01*
X10686Y516725D01*
X10627Y516651D01*
X10566Y516536D01*
X10496Y516426D01*
X10459Y516338D01*
X10414Y516254D01*
X10374Y516130D01*
X10325Y516010D01*
X10305Y515916D01*
X10275Y515826D01*
X10257Y515697D01*
X10230Y515570D01*
X10222Y515440D01*
X10214Y515379D01*
X10215Y515335D01*
X10211Y515258D01*
X10211Y368400D01*
X10214Y368366D01*
X10212Y368331D01*
X10234Y368142D01*
X10251Y367952D01*
X10260Y367918D01*
X10264Y367884D01*
X10319Y367701D01*
X10369Y367517D01*
X10384Y367486D01*
X10394Y367453D01*
X10481Y367282D01*
X10563Y367111D01*
X10583Y367082D01*
X10598Y367051D01*
X10714Y366899D01*
X10825Y366744D01*
X10850Y366720D01*
X10870Y366693D01*
X11010Y366564D01*
X11147Y366430D01*
X11176Y366411D01*
X11202Y366388D01*
X11363Y366285D01*
X11520Y366178D01*
X11552Y366164D01*
X11581Y366146D01*
X11758Y366073D01*
X11932Y365996D01*
X11966Y365988D01*
X11998Y365975D01*
X12185Y365935D01*
X12370Y365889D01*
X12404Y365887D01*
X12438Y365880D01*
X12750Y365861D01*
X34140Y365861D01*
X34303Y365875D01*
G37*
%LPC*%
G36*
X678162Y463437D02*
X678162Y463437D01*
X675838Y464400D01*
X674060Y466178D01*
X673097Y468502D01*
X673097Y471018D01*
X674060Y473342D01*
X674866Y474147D01*
X674971Y474274D01*
X675083Y474394D01*
X675115Y474446D01*
X675154Y474493D01*
X675236Y474635D01*
X675324Y474774D01*
X675348Y474831D01*
X675378Y474884D01*
X675433Y475038D01*
X675495Y475191D01*
X675508Y475250D01*
X675529Y475308D01*
X675555Y475470D01*
X675590Y475631D01*
X675595Y475708D01*
X675602Y475752D01*
X675601Y475813D01*
X675609Y475943D01*
X675609Y479830D01*
X675595Y479993D01*
X675588Y480158D01*
X675575Y480217D01*
X675569Y480278D01*
X675526Y480437D01*
X675490Y480597D01*
X675467Y480654D01*
X675451Y480713D01*
X675380Y480861D01*
X675317Y481013D01*
X675284Y481064D01*
X675257Y481119D01*
X675162Y481253D01*
X675072Y481391D01*
X675021Y481449D01*
X674995Y481485D01*
X674952Y481528D01*
X674866Y481625D01*
X660777Y495714D01*
X660651Y495819D01*
X660530Y495931D01*
X660479Y495963D01*
X660432Y496002D01*
X660289Y496084D01*
X660150Y496172D01*
X660094Y496196D01*
X660041Y496226D01*
X659886Y496281D01*
X659734Y496343D01*
X659674Y496356D01*
X659617Y496377D01*
X659454Y496403D01*
X659294Y496438D01*
X659217Y496443D01*
X659172Y496450D01*
X659111Y496449D01*
X658982Y496457D01*
X657842Y496457D01*
X655518Y497420D01*
X653740Y499198D01*
X652777Y501522D01*
X652777Y504038D01*
X653740Y506362D01*
X655518Y508140D01*
X657842Y509103D01*
X660358Y509103D01*
X662682Y508140D01*
X664460Y506362D01*
X665423Y504038D01*
X665423Y502898D01*
X665437Y502735D01*
X665444Y502570D01*
X665457Y502511D01*
X665463Y502450D01*
X665506Y502291D01*
X665542Y502131D01*
X665565Y502074D01*
X665581Y502015D01*
X665652Y501867D01*
X665715Y501715D01*
X665748Y501664D01*
X665775Y501609D01*
X665870Y501475D01*
X665960Y501337D01*
X666011Y501279D01*
X666037Y501243D01*
X666080Y501200D01*
X666166Y501103D01*
X682651Y484619D01*
X683231Y483218D01*
X683231Y475943D01*
X683245Y475779D01*
X683252Y475615D01*
X683265Y475555D01*
X683271Y475494D01*
X683314Y475335D01*
X683350Y475175D01*
X683373Y475119D01*
X683389Y475060D01*
X683460Y474912D01*
X683523Y474760D01*
X683556Y474708D01*
X683583Y474653D01*
X683678Y474520D01*
X683768Y474381D01*
X683819Y474324D01*
X683845Y474287D01*
X683888Y474245D01*
X683974Y474147D01*
X684780Y473342D01*
X685743Y471018D01*
X685743Y468502D01*
X684780Y466178D01*
X683002Y464400D01*
X680678Y463437D01*
X678162Y463437D01*
G37*
%LPD*%
%LPC*%
G36*
X298162Y463437D02*
X298162Y463437D01*
X295838Y464400D01*
X294060Y466178D01*
X293097Y468502D01*
X293097Y471018D01*
X294060Y473342D01*
X294866Y474147D01*
X294971Y474274D01*
X295083Y474394D01*
X295115Y474446D01*
X295154Y474493D01*
X295236Y474635D01*
X295324Y474774D01*
X295348Y474831D01*
X295378Y474884D01*
X295433Y475038D01*
X295495Y475191D01*
X295508Y475250D01*
X295529Y475308D01*
X295555Y475470D01*
X295590Y475631D01*
X295595Y475708D01*
X295602Y475752D01*
X295601Y475813D01*
X295609Y475943D01*
X295609Y479830D01*
X295595Y479993D01*
X295588Y480158D01*
X295575Y480217D01*
X295569Y480278D01*
X295526Y480437D01*
X295490Y480597D01*
X295467Y480654D01*
X295451Y480713D01*
X295380Y480861D01*
X295317Y481013D01*
X295284Y481064D01*
X295257Y481119D01*
X295162Y481253D01*
X295072Y481391D01*
X295021Y481449D01*
X294995Y481485D01*
X294952Y481528D01*
X294866Y481625D01*
X280777Y495714D01*
X280651Y495819D01*
X280530Y495931D01*
X280479Y495963D01*
X280432Y496002D01*
X280289Y496084D01*
X280150Y496172D01*
X280094Y496196D01*
X280041Y496226D01*
X279886Y496281D01*
X279734Y496343D01*
X279674Y496356D01*
X279617Y496377D01*
X279454Y496403D01*
X279294Y496438D01*
X279217Y496443D01*
X279172Y496450D01*
X279111Y496449D01*
X278982Y496457D01*
X277842Y496457D01*
X275518Y497420D01*
X273740Y499198D01*
X272777Y501522D01*
X272777Y504038D01*
X273740Y506362D01*
X275518Y508140D01*
X277842Y509103D01*
X280358Y509103D01*
X282682Y508140D01*
X284460Y506362D01*
X285423Y504038D01*
X285423Y502898D01*
X285437Y502735D01*
X285444Y502570D01*
X285457Y502511D01*
X285463Y502450D01*
X285506Y502291D01*
X285542Y502131D01*
X285565Y502074D01*
X285581Y502015D01*
X285652Y501867D01*
X285715Y501715D01*
X285748Y501664D01*
X285775Y501609D01*
X285870Y501475D01*
X285960Y501337D01*
X286011Y501279D01*
X286037Y501243D01*
X286080Y501200D01*
X286166Y501103D01*
X302651Y484619D01*
X303231Y483218D01*
X303231Y475943D01*
X303245Y475779D01*
X303252Y475615D01*
X303265Y475555D01*
X303271Y475494D01*
X303314Y475335D01*
X303350Y475175D01*
X303373Y475119D01*
X303389Y475060D01*
X303460Y474912D01*
X303523Y474760D01*
X303556Y474708D01*
X303583Y474653D01*
X303678Y474520D01*
X303768Y474381D01*
X303819Y474324D01*
X303845Y474287D01*
X303888Y474245D01*
X303974Y474147D01*
X304780Y473342D01*
X305743Y471018D01*
X305743Y468502D01*
X304780Y466178D01*
X303002Y464400D01*
X300678Y463437D01*
X298162Y463437D01*
G37*
%LPD*%
%LPC*%
G36*
X696028Y603239D02*
X696028Y603239D01*
X694539Y604728D01*
X694539Y622072D01*
X696028Y623561D01*
X713372Y623561D01*
X714861Y622072D01*
X714861Y604728D01*
X713372Y603239D01*
X696028Y603239D01*
G37*
%LPD*%
%LPC*%
G36*
X328862Y425177D02*
X328862Y425177D01*
X327373Y426666D01*
X327373Y444010D01*
X328862Y445499D01*
X346206Y445499D01*
X347695Y444010D01*
X347695Y426666D01*
X346206Y425177D01*
X328862Y425177D01*
G37*
%LPD*%
%LPC*%
G36*
X316028Y603239D02*
X316028Y603239D01*
X314539Y604728D01*
X314539Y622072D01*
X316028Y623561D01*
X333372Y623561D01*
X334861Y622072D01*
X334861Y604728D01*
X333372Y603239D01*
X316028Y603239D01*
G37*
%LPD*%
%LPC*%
G36*
X333325Y450577D02*
X333325Y450577D01*
X327373Y456529D01*
X327373Y464947D01*
X333325Y470899D01*
X341743Y470899D01*
X347695Y464947D01*
X347695Y456529D01*
X341743Y450577D01*
X333325Y450577D01*
G37*
%LPD*%
%LPC*%
G36*
X177349Y503049D02*
X177349Y503049D01*
X177349Y508841D01*
X181935Y508841D01*
X182581Y508668D01*
X183160Y508333D01*
X183354Y508139D01*
X183381Y508116D01*
X183404Y508091D01*
X183553Y507973D01*
X183700Y507850D01*
X183730Y507833D01*
X183757Y507811D01*
X183925Y507721D01*
X184091Y507626D01*
X184123Y507615D01*
X184154Y507598D01*
X184335Y507540D01*
X184515Y507476D01*
X184549Y507470D01*
X184582Y507459D01*
X184771Y507433D01*
X184959Y507402D01*
X184994Y507403D01*
X185028Y507398D01*
X185219Y507406D01*
X185409Y507408D01*
X185443Y507415D01*
X185478Y507416D01*
X185664Y507457D01*
X185851Y507494D01*
X185884Y507506D01*
X185918Y507514D01*
X186094Y507587D01*
X186271Y507656D01*
X186301Y507674D01*
X186333Y507687D01*
X186494Y507791D01*
X186656Y507890D01*
X186682Y507913D01*
X186711Y507932D01*
X186946Y508139D01*
X187440Y508633D01*
X188019Y508968D01*
X188665Y509141D01*
X193251Y509141D01*
X193251Y503349D01*
X186680Y503349D01*
X186645Y503346D01*
X186611Y503348D01*
X186422Y503326D01*
X186231Y503309D01*
X186198Y503300D01*
X186164Y503296D01*
X185981Y503241D01*
X185797Y503191D01*
X185766Y503176D01*
X185733Y503166D01*
X185562Y503079D01*
X185499Y503049D01*
X177349Y503049D01*
G37*
%LPD*%
%LPC*%
G36*
X557349Y503049D02*
X557349Y503049D01*
X557349Y508841D01*
X561935Y508841D01*
X562581Y508668D01*
X563160Y508333D01*
X563354Y508139D01*
X563381Y508116D01*
X563404Y508091D01*
X563553Y507973D01*
X563700Y507850D01*
X563730Y507833D01*
X563757Y507811D01*
X563925Y507721D01*
X564091Y507626D01*
X564123Y507615D01*
X564154Y507598D01*
X564335Y507540D01*
X564515Y507476D01*
X564549Y507470D01*
X564582Y507459D01*
X564771Y507433D01*
X564959Y507402D01*
X564994Y507403D01*
X565028Y507398D01*
X565219Y507406D01*
X565409Y507408D01*
X565443Y507415D01*
X565478Y507416D01*
X565664Y507457D01*
X565851Y507494D01*
X565884Y507506D01*
X565918Y507514D01*
X566094Y507587D01*
X566271Y507656D01*
X566301Y507674D01*
X566333Y507687D01*
X566494Y507791D01*
X566656Y507890D01*
X566682Y507913D01*
X566711Y507932D01*
X566946Y508139D01*
X567440Y508633D01*
X568019Y508968D01*
X568665Y509141D01*
X573251Y509141D01*
X573251Y503349D01*
X566680Y503349D01*
X566645Y503346D01*
X566611Y503348D01*
X566422Y503326D01*
X566231Y503309D01*
X566198Y503300D01*
X566164Y503296D01*
X565981Y503241D01*
X565797Y503191D01*
X565766Y503176D01*
X565733Y503166D01*
X565562Y503079D01*
X565499Y503049D01*
X557349Y503049D01*
G37*
%LPD*%
%LPC*%
G36*
X470949Y477749D02*
X470949Y477749D01*
X470949Y485041D01*
X474535Y485041D01*
X475181Y484868D01*
X475760Y484533D01*
X476233Y484060D01*
X476568Y483481D01*
X476741Y482835D01*
X476741Y477749D01*
X470949Y477749D01*
G37*
%LPD*%
%LPC*%
G36*
X90949Y477749D02*
X90949Y477749D01*
X90949Y485041D01*
X94535Y485041D01*
X95181Y484868D01*
X95760Y484533D01*
X96233Y484060D01*
X96568Y483481D01*
X96741Y482835D01*
X96741Y477749D01*
X90949Y477749D01*
G37*
%LPD*%
%LPC*%
G36*
X707239Y641339D02*
X707239Y641339D01*
X707239Y648961D01*
X708909Y648961D01*
X714861Y643009D01*
X714861Y641339D01*
X707239Y641339D01*
G37*
%LPD*%
%LPC*%
G36*
X327239Y641339D02*
X327239Y641339D01*
X327239Y648961D01*
X328909Y648961D01*
X334861Y643009D01*
X334861Y641339D01*
X327239Y641339D01*
G37*
%LPD*%
%LPC*%
G36*
X418239Y641339D02*
X418239Y641339D01*
X418239Y648961D01*
X419909Y648961D01*
X425861Y643009D01*
X425861Y641339D01*
X418239Y641339D01*
G37*
%LPD*%
%LPC*%
G36*
X38239Y641339D02*
X38239Y641339D01*
X38239Y648961D01*
X39909Y648961D01*
X45861Y643009D01*
X45861Y641339D01*
X38239Y641339D01*
G37*
%LPD*%
%LPC*%
G36*
X144439Y672039D02*
X144439Y672039D01*
X144439Y679661D01*
X146109Y679661D01*
X152061Y673709D01*
X152061Y672039D01*
X144439Y672039D01*
G37*
%LPD*%
%LPC*%
G36*
X524439Y672039D02*
X524439Y672039D01*
X524439Y679661D01*
X526109Y679661D01*
X532061Y673709D01*
X532061Y672039D01*
X524439Y672039D01*
G37*
%LPD*%
%LPC*%
G36*
X131739Y672039D02*
X131739Y672039D01*
X131739Y673709D01*
X137691Y679661D01*
X139361Y679661D01*
X139361Y672039D01*
X131739Y672039D01*
G37*
%LPD*%
%LPC*%
G36*
X511739Y672039D02*
X511739Y672039D01*
X511739Y673709D01*
X517691Y679661D01*
X519361Y679661D01*
X519361Y672039D01*
X511739Y672039D01*
G37*
%LPD*%
%LPC*%
G36*
X694539Y641339D02*
X694539Y641339D01*
X694539Y643009D01*
X700491Y648961D01*
X702161Y648961D01*
X702161Y641339D01*
X694539Y641339D01*
G37*
%LPD*%
%LPC*%
G36*
X707373Y514077D02*
X707373Y514077D01*
X707373Y515747D01*
X713325Y521699D01*
X714995Y521699D01*
X714995Y514077D01*
X707373Y514077D01*
G37*
%LPD*%
%LPC*%
G36*
X327373Y514077D02*
X327373Y514077D01*
X327373Y515747D01*
X333325Y521699D01*
X334995Y521699D01*
X334995Y514077D01*
X327373Y514077D01*
G37*
%LPD*%
%LPC*%
G36*
X405539Y641339D02*
X405539Y641339D01*
X405539Y643009D01*
X411491Y648961D01*
X413161Y648961D01*
X413161Y641339D01*
X405539Y641339D01*
G37*
%LPD*%
%LPC*%
G36*
X25539Y641339D02*
X25539Y641339D01*
X25539Y643009D01*
X31491Y648961D01*
X33161Y648961D01*
X33161Y641339D01*
X25539Y641339D01*
G37*
%LPD*%
%LPC*%
G36*
X314539Y641339D02*
X314539Y641339D01*
X314539Y643009D01*
X320491Y648961D01*
X322161Y648961D01*
X322161Y641339D01*
X314539Y641339D01*
G37*
%LPD*%
%LPC*%
G36*
X708213Y380277D02*
X708213Y380277D01*
X708213Y381947D01*
X714165Y387899D01*
X715835Y387899D01*
X715835Y380277D01*
X708213Y380277D01*
G37*
%LPD*%
%LPC*%
G36*
X328213Y380277D02*
X328213Y380277D01*
X328213Y381947D01*
X334165Y387899D01*
X335835Y387899D01*
X335835Y380277D01*
X328213Y380277D01*
G37*
%LPD*%
%LPC*%
G36*
X327239Y628639D02*
X327239Y628639D01*
X327239Y636261D01*
X334861Y636261D01*
X334861Y634591D01*
X328909Y628639D01*
X327239Y628639D01*
G37*
%LPD*%
%LPC*%
G36*
X707239Y628639D02*
X707239Y628639D01*
X707239Y636261D01*
X714861Y636261D01*
X714861Y634591D01*
X708909Y628639D01*
X707239Y628639D01*
G37*
%LPD*%
%LPC*%
G36*
X418239Y628639D02*
X418239Y628639D01*
X418239Y636261D01*
X425861Y636261D01*
X425861Y634591D01*
X419909Y628639D01*
X418239Y628639D01*
G37*
%LPD*%
%LPC*%
G36*
X38239Y628639D02*
X38239Y628639D01*
X38239Y636261D01*
X45861Y636261D01*
X45861Y634591D01*
X39909Y628639D01*
X38239Y628639D01*
G37*
%LPD*%
%LPC*%
G36*
X517691Y659339D02*
X517691Y659339D01*
X511739Y665291D01*
X511739Y666961D01*
X519361Y666961D01*
X519361Y659339D01*
X517691Y659339D01*
G37*
%LPD*%
%LPC*%
G36*
X137691Y659339D02*
X137691Y659339D01*
X131739Y665291D01*
X131739Y666961D01*
X139361Y666961D01*
X139361Y659339D01*
X137691Y659339D01*
G37*
%LPD*%
%LPC*%
G36*
X411491Y628639D02*
X411491Y628639D01*
X405539Y634591D01*
X405539Y636261D01*
X413161Y636261D01*
X413161Y628639D01*
X411491Y628639D01*
G37*
%LPD*%
%LPC*%
G36*
X320491Y628639D02*
X320491Y628639D01*
X314539Y634591D01*
X314539Y636261D01*
X322161Y636261D01*
X322161Y628639D01*
X320491Y628639D01*
G37*
%LPD*%
%LPC*%
G36*
X700491Y628639D02*
X700491Y628639D01*
X694539Y634591D01*
X694539Y636261D01*
X702161Y636261D01*
X702161Y628639D01*
X700491Y628639D01*
G37*
%LPD*%
%LPC*%
G36*
X31491Y628639D02*
X31491Y628639D01*
X25539Y634591D01*
X25539Y636261D01*
X33161Y636261D01*
X33161Y628639D01*
X31491Y628639D01*
G37*
%LPD*%
%LPC*%
G36*
X713325Y501377D02*
X713325Y501377D01*
X707373Y507329D01*
X707373Y508999D01*
X714995Y508999D01*
X714995Y501377D01*
X713325Y501377D01*
G37*
%LPD*%
%LPC*%
G36*
X333325Y501377D02*
X333325Y501377D01*
X327373Y507329D01*
X327373Y508999D01*
X334995Y508999D01*
X334995Y501377D01*
X333325Y501377D01*
G37*
%LPD*%
%LPC*%
G36*
X624749Y503449D02*
X624749Y503449D01*
X624749Y509241D01*
X629335Y509241D01*
X629981Y509068D01*
X630560Y508733D01*
X631033Y508260D01*
X631368Y507681D01*
X631541Y507035D01*
X631541Y503449D01*
X624749Y503449D01*
G37*
%LPD*%
%LPC*%
G36*
X244749Y503449D02*
X244749Y503449D01*
X244749Y509241D01*
X249335Y509241D01*
X249981Y509068D01*
X250560Y508733D01*
X251033Y508260D01*
X251368Y507681D01*
X251541Y507035D01*
X251541Y503449D01*
X244749Y503449D01*
G37*
%LPD*%
%LPC*%
G36*
X544059Y503049D02*
X544059Y503049D01*
X544059Y506635D01*
X544232Y507281D01*
X544567Y507860D01*
X545040Y508333D01*
X545619Y508668D01*
X546265Y508841D01*
X550851Y508841D01*
X550851Y503049D01*
X544059Y503049D01*
G37*
%LPD*%
%LPC*%
G36*
X164059Y503049D02*
X164059Y503049D01*
X164059Y506635D01*
X164232Y507281D01*
X164567Y507860D01*
X165040Y508333D01*
X165619Y508668D01*
X166265Y508841D01*
X170851Y508841D01*
X170851Y503049D01*
X164059Y503049D01*
G37*
%LPD*%
D10*
X231500Y285600D03*
X250500Y285600D03*
D11*
X338374Y403138D03*
D12*
X338374Y377738D03*
X338374Y352338D03*
D11*
X337534Y435338D03*
D13*
X337534Y460738D03*
X337534Y486138D03*
X337534Y511538D03*
D14*
X153000Y323500D03*
X207000Y323500D03*
X153000Y286500D03*
X207000Y286500D03*
D10*
X231500Y331900D03*
X250500Y331900D03*
X250500Y308900D03*
X231500Y308900D03*
D14*
X153000Y213500D03*
X207000Y213500D03*
X153000Y176500D03*
X207000Y176500D03*
D15*
X203500Y149000D03*
X203500Y130000D03*
X155800Y129700D03*
X155800Y148700D03*
X179300Y148800D03*
X179300Y129800D03*
D14*
X153000Y103500D03*
X207000Y103500D03*
X153000Y66500D03*
X207000Y66500D03*
D15*
X207800Y42400D03*
X207800Y23400D03*
X162500Y22900D03*
X162500Y41900D03*
X185000Y42300D03*
X185000Y23300D03*
D14*
X43000Y213500D03*
X97000Y213500D03*
X43000Y176500D03*
X97000Y176500D03*
D10*
X134800Y172400D03*
X115800Y172400D03*
X115300Y214400D03*
X134300Y214400D03*
X134400Y194000D03*
X115400Y194000D03*
D14*
X263000Y213500D03*
X317000Y213500D03*
X263000Y176500D03*
X317000Y176500D03*
D10*
X225200Y219300D03*
X244200Y219300D03*
X244200Y174900D03*
X225200Y174900D03*
X225500Y197200D03*
X244500Y197200D03*
D11*
X218100Y669500D03*
D16*
X192700Y669500D03*
X167300Y669500D03*
X141900Y669500D03*
D14*
X43000Y323500D03*
X97000Y323500D03*
X43000Y286500D03*
X97000Y286500D03*
D15*
X92300Y239500D03*
X92300Y258500D03*
X43200Y258700D03*
X43200Y239700D03*
X68300Y239500D03*
X68300Y258500D03*
X174100Y480800D03*
X174100Y499800D03*
X218800Y481200D03*
X218800Y500200D03*
X196500Y481100D03*
X196500Y500100D03*
D11*
X324700Y613400D03*
D13*
X324700Y638800D03*
D11*
X35700Y613400D03*
D13*
X35700Y638800D03*
D15*
X241500Y500200D03*
X241500Y481200D03*
D17*
X87700Y474500D03*
X68700Y474500D03*
D11*
X35900Y577300D03*
D12*
X35900Y551900D03*
D11*
X324300Y577300D03*
D12*
X324300Y551900D03*
D10*
X611500Y285600D03*
X630500Y285600D03*
D11*
X718374Y403138D03*
D12*
X718374Y377738D03*
X718374Y352338D03*
D11*
X717534Y435338D03*
D13*
X717534Y460738D03*
X717534Y486138D03*
X717534Y511538D03*
D14*
X533000Y323500D03*
X587000Y323500D03*
X533000Y286500D03*
X587000Y286500D03*
D10*
X611500Y331900D03*
X630500Y331900D03*
X630500Y308900D03*
X611500Y308900D03*
D14*
X533000Y213500D03*
X587000Y213500D03*
X533000Y176500D03*
X587000Y176500D03*
D15*
X583500Y149000D03*
X583500Y130000D03*
X535800Y129700D03*
X535800Y148700D03*
X559300Y148800D03*
X559300Y129800D03*
D14*
X533000Y103500D03*
X587000Y103500D03*
X533000Y66500D03*
X587000Y66500D03*
D15*
X587800Y42400D03*
X587800Y23400D03*
X542500Y22900D03*
X542500Y41900D03*
X565000Y42300D03*
X565000Y23300D03*
D14*
X423000Y213500D03*
X477000Y213500D03*
X423000Y176500D03*
X477000Y176500D03*
D10*
X514800Y172400D03*
X495800Y172400D03*
X495300Y214400D03*
X514300Y214400D03*
X514400Y194000D03*
X495400Y194000D03*
D14*
X643000Y213500D03*
X697000Y213500D03*
X643000Y176500D03*
X697000Y176500D03*
D10*
X605200Y219300D03*
X624200Y219300D03*
X624200Y174900D03*
X605200Y174900D03*
X605500Y197200D03*
X624500Y197200D03*
D11*
X598100Y669500D03*
D16*
X572700Y669500D03*
X547300Y669500D03*
X521900Y669500D03*
D14*
X423000Y323500D03*
X477000Y323500D03*
X423000Y286500D03*
X477000Y286500D03*
D15*
X472300Y239500D03*
X472300Y258500D03*
X423200Y258700D03*
X423200Y239700D03*
X448300Y239500D03*
X448300Y258500D03*
X554100Y480800D03*
X554100Y499800D03*
X598800Y481200D03*
X598800Y500200D03*
X576500Y481100D03*
X576500Y500100D03*
D11*
X704700Y613400D03*
D13*
X704700Y638800D03*
D11*
X415700Y613400D03*
D13*
X415700Y638800D03*
D15*
X621500Y500200D03*
X621500Y481200D03*
D17*
X467700Y474500D03*
X448700Y474500D03*
D11*
X415900Y577300D03*
D12*
X415900Y551900D03*
D11*
X704300Y577300D03*
D12*
X704300Y551900D03*
D18*
X246080Y281800D02*
X246080Y274180D01*
X246080Y220840D01*
X246080Y281800D02*
X248620Y284340D01*
X246080Y220840D02*
X244200Y219300D01*
X248620Y284340D02*
X250500Y285600D01*
X93680Y281800D02*
X93680Y258940D01*
X93680Y281800D02*
X96220Y284340D01*
X93680Y258940D02*
X92300Y258500D01*
X96220Y284340D02*
X97000Y286500D01*
X185120Y286880D02*
X205440Y286880D01*
X185120Y286880D02*
X154640Y286880D01*
X153000Y286500D01*
X205440Y286880D02*
X207000Y286500D01*
X185120Y286880D02*
X185120Y317360D01*
X152100Y286880D02*
X98760Y286880D01*
X97000Y286500D01*
X152100Y286880D02*
X153000Y286500D01*
X218140Y274180D02*
X246080Y274180D01*
X218140Y274180D02*
X207980Y284340D01*
X207000Y286500D01*
X114000Y172580D02*
X101300Y172580D01*
X98760Y175120D01*
X114000Y172580D02*
X115800Y172400D01*
X98760Y175120D02*
X97000Y176500D01*
X96220Y177660D02*
X45420Y177660D01*
X43000Y176500D01*
X96220Y177660D02*
X97000Y176500D01*
X152100Y175120D02*
X152100Y170040D01*
X141940Y159880D01*
X139400Y159880D02*
X126700Y159880D01*
X139400Y159880D02*
X141940Y159880D01*
X126700Y159880D02*
X116540Y170040D01*
X152100Y175120D02*
X153000Y176500D01*
X116540Y170040D02*
X115800Y172400D01*
X37800Y279260D02*
X42880Y284340D01*
X37800Y279260D02*
X35260Y279260D01*
X25100Y269100D01*
X25100Y228460D02*
X25100Y195440D01*
X25100Y228460D02*
X25100Y269100D01*
X25100Y195440D02*
X42880Y177660D01*
X42880Y284340D02*
X43000Y286500D01*
X42880Y177660D02*
X43000Y176500D01*
X207980Y25260D02*
X213060Y30340D01*
X215600Y30340D01*
X220680Y35420D01*
X220680Y53200D01*
X207980Y65900D01*
X207980Y25260D02*
X207800Y23400D01*
X207980Y65900D02*
X207000Y66500D01*
X205440Y68440D02*
X154640Y68440D01*
X153000Y66500D01*
X205440Y68440D02*
X207000Y66500D01*
X203500Y130000D02*
X210520Y137020D01*
X213060Y137020D01*
X215600Y139560D01*
X215600Y152260D02*
X215600Y164960D01*
X215600Y152260D02*
X215600Y139560D01*
X215600Y164960D02*
X205440Y175120D01*
X207000Y176500D01*
X263860Y177660D02*
X314660Y177660D01*
X263860Y177660D02*
X263000Y176500D01*
X314660Y177660D02*
X317000Y176500D01*
X241000Y152260D02*
X215600Y152260D01*
X241000Y152260D02*
X263860Y175120D01*
X263000Y176500D01*
X207980Y83680D02*
X207980Y68440D01*
X207980Y83680D02*
X220680Y96380D01*
X220680Y114160D01*
X205440Y129400D01*
X207980Y68440D02*
X207000Y66500D01*
X205440Y129400D02*
X203500Y130000D01*
X139400Y159880D02*
X139400Y81140D01*
X152100Y68440D01*
X153000Y66500D01*
X98760Y251320D02*
X93680Y256400D01*
X98760Y251320D02*
X101300Y251320D01*
X103840Y248780D01*
X103840Y231000D01*
X101300Y228460D01*
X25100Y228460D01*
X92300Y258500D02*
X93680Y256400D01*
X174960Y500240D02*
X195280Y500240D01*
X174960Y500240D02*
X174100Y499800D01*
X195280Y500240D02*
X196500Y500100D01*
X174100Y499800D02*
X172420Y497700D01*
X241500Y500200D02*
X243540Y500240D01*
D19*
X185120Y317360D03*
X103840Y474840D03*
X39400Y473500D03*
D20*
X32700Y473500D01*
X25300Y466100D01*
X25300Y384200D01*
X35900Y373600D01*
D19*
X35900Y373600D03*
X197100Y538300D03*
D20*
X197100Y502060D01*
X195280Y500240D01*
X88000Y474800D02*
X87700Y474500D01*
X88000Y474800D02*
X103800Y474800D01*
X103840Y474840D01*
X143560Y474840D01*
X259900Y467300D02*
X271100Y478500D01*
X271100Y494200D01*
X265060Y500240D02*
X258000Y500240D01*
X243540Y500240D01*
X151100Y467300D02*
X143560Y474840D01*
X151100Y467300D02*
X259900Y467300D01*
X271100Y494200D02*
X265060Y500240D01*
X196500Y500100D02*
X174820Y500100D01*
X172420Y497700D01*
X172800Y498500D02*
X174100Y499800D01*
X172800Y498500D02*
X156200Y498500D01*
X143560Y485860D01*
X143560Y474840D01*
D21*
X337434Y529972D02*
X344400Y536938D01*
X344400Y620000D01*
X325600Y638800D01*
X324700Y638800D01*
D20*
X271170Y290170D02*
X266600Y285600D01*
X250500Y285600D01*
X271170Y290170D02*
X271170Y322970D01*
D21*
X337434Y511638D02*
X337434Y529972D01*
X337434Y511638D02*
X337534Y511538D01*
D20*
X337434Y511638D02*
X337430Y511642D01*
X258000Y509800D02*
X258000Y500240D01*
X258000Y509800D02*
X262700Y514500D01*
X302600Y514500D01*
X305462Y511638D02*
X320600Y511638D01*
X337434Y511638D01*
X305462Y511638D02*
X302600Y514500D01*
X320600Y511638D02*
X320600Y379000D01*
X320600Y372400D01*
X271170Y322970D01*
X321862Y377738D02*
X338374Y377738D01*
X321862Y377738D02*
X320600Y379000D01*
D19*
X370000Y322900D03*
D22*
X344662Y377738D02*
X338374Y377738D01*
X370000Y352400D02*
X370000Y322900D01*
X370000Y352400D02*
X344662Y377738D01*
D18*
X175720Y409780D02*
X175720Y409800D01*
X175720Y409780D02*
X109100Y343160D01*
X65180Y343160D01*
D19*
X175720Y409800D03*
X65180Y343160D03*
D18*
X299420Y469760D02*
X299420Y482460D01*
X279100Y502780D01*
D19*
X299420Y469760D03*
X279100Y502780D03*
X291800Y584060D03*
D22*
X291800Y595800D02*
X218100Y669500D01*
X291800Y595800D02*
X291800Y584060D01*
D19*
X51200Y488600D03*
D20*
X51200Y457700D02*
X90000Y418900D01*
X51200Y457700D02*
X51200Y488600D01*
X91140Y418900D02*
X114000Y418900D01*
D19*
X114000Y418900D03*
D20*
X91140Y418900D02*
X90000Y418900D01*
D18*
X157180Y162420D02*
X157180Y149720D01*
X155800Y148700D01*
X131780Y215760D02*
X131780Y228460D01*
X131780Y215760D02*
X134300Y214400D01*
X223220Y172580D02*
X223220Y159880D01*
X223220Y172580D02*
X225200Y174900D01*
D21*
X225760Y609460D02*
X243540Y609460D01*
X225760Y609460D02*
X167340Y667880D01*
D18*
X167300Y669500D01*
X162260Y43040D02*
X157180Y43040D01*
X80980Y119240D02*
X20020Y180200D01*
X80980Y119240D02*
X157180Y43040D01*
X20020Y180200D02*
X20020Y345300D01*
X91140Y416420D01*
X162260Y43040D02*
X162500Y41900D01*
X91140Y416420D02*
X91140Y418900D01*
X248620Y375780D02*
X248620Y332600D01*
X246080Y378320D02*
X180040Y444360D01*
X246080Y378320D02*
X248620Y375780D01*
X180040Y444360D02*
X169880Y444360D01*
X167340Y441820D01*
X167340Y436740D01*
X149560Y418960D01*
X114000Y418960D01*
X248620Y332600D02*
X250500Y331900D01*
X114000Y418900D02*
X114000Y418960D01*
X246080Y378320D02*
X296880Y378320D01*
X296880Y426580D01*
D21*
X94000Y596200D02*
X167300Y669500D01*
X94000Y596200D02*
X25000Y596200D01*
X17400Y588600D01*
X17400Y523180D01*
X50500Y490080D01*
D18*
X51200Y488600D01*
X111460Y149720D02*
X80980Y119240D01*
D19*
X157180Y162420D03*
X131780Y228460D03*
X223220Y159880D03*
X243540Y609460D03*
X296880Y378320D03*
X296880Y426580D03*
X111460Y149720D03*
D18*
X230840Y322440D02*
X230840Y330060D01*
X230840Y322440D02*
X230840Y309740D01*
X231500Y308900D01*
X230840Y330060D02*
X231500Y331900D01*
X205440Y324980D02*
X154640Y324980D01*
X153000Y323500D01*
X205440Y324980D02*
X207000Y323500D01*
X207980Y322440D02*
X230840Y322440D01*
X207980Y322440D02*
X207000Y323500D01*
X238460Y291960D02*
X233380Y286880D01*
X238460Y291960D02*
X238460Y294500D01*
X251160Y307200D01*
X233380Y286880D02*
X231500Y285600D01*
X251160Y307200D02*
X250500Y308900D01*
X264820Y336100D02*
X274020Y345300D01*
X264820Y336100D02*
X264820Y323400D01*
X251160Y309740D01*
X250500Y308900D01*
D19*
X274020Y345300D03*
D18*
X177500Y131940D02*
X167340Y131940D01*
X157180Y131940D01*
X155800Y129700D01*
X177500Y131940D02*
X179300Y129800D01*
X167340Y213220D02*
X205440Y213220D01*
X167340Y213220D02*
X154640Y213220D01*
X153000Y213500D01*
X205440Y213220D02*
X207000Y213500D01*
X167340Y213220D02*
X167340Y131940D01*
X180040Y149720D02*
X202900Y149720D01*
X180040Y149720D02*
X179300Y148800D01*
X286720Y241160D02*
X291120Y245560D01*
X291120Y326980D02*
X290720Y327380D01*
X291120Y326980D02*
X291120Y245560D01*
X202900Y162420D02*
X202900Y149720D01*
X203500Y149000D01*
D19*
X290720Y327380D03*
X286720Y241160D03*
X202900Y162420D03*
D18*
X182580Y25260D02*
X164800Y25260D01*
X162500Y22900D01*
X182580Y25260D02*
X185000Y23300D01*
X205440Y104000D02*
X154640Y104000D01*
X153000Y103500D01*
X205440Y104000D02*
X207000Y103500D01*
X162260Y25260D02*
X157180Y25260D01*
X147020Y35420D01*
X147020Y88760D02*
X147020Y96380D01*
X152100Y101460D01*
X162260Y25260D02*
X162500Y22900D01*
X152100Y101460D02*
X153000Y103500D01*
D19*
X147020Y35420D03*
X147020Y88760D03*
D18*
X185120Y43040D02*
X205440Y43040D01*
X185120Y43040D02*
X185000Y42300D01*
X205440Y43040D02*
X207800Y42400D01*
X98760Y304660D02*
X195280Y401180D01*
X98760Y304660D02*
X78440Y304660D01*
X169880Y55740D02*
X182580Y43040D01*
X185000Y42300D01*
D19*
X195280Y401180D03*
X78440Y304660D03*
X169880Y55740D03*
D18*
X114000Y215760D02*
X98760Y215760D01*
X114000Y215760D02*
X115300Y214400D01*
X98760Y215760D02*
X97000Y213500D01*
X116540Y213220D02*
X116540Y195440D01*
X115400Y194000D01*
X116540Y213220D02*
X115300Y214400D01*
X96220Y213220D02*
X45420Y213220D01*
X43000Y213500D01*
X96220Y213220D02*
X97000Y213500D01*
X134320Y192900D02*
X134320Y172580D01*
X134800Y172400D01*
X134320Y192900D02*
X134400Y194000D01*
X192740Y347840D02*
X200360Y347840D01*
X213060Y335140D01*
X218140Y335140D01*
X149560Y200520D02*
X141940Y200520D01*
X136860Y195440D01*
X134400Y194000D01*
D19*
X192740Y347840D03*
X218140Y335140D03*
X149560Y200520D03*
D18*
X243540Y195440D02*
X243540Y175120D01*
X244200Y174900D01*
X243540Y195440D02*
X244500Y197200D01*
X246080Y197980D02*
X261320Y213220D01*
X263000Y213500D01*
X246080Y197980D02*
X244500Y197200D01*
X263860Y213220D02*
X314660Y213220D01*
X317000Y213500D01*
X263860Y213220D02*
X263000Y213500D01*
X225760Y218300D02*
X225760Y197980D01*
X225500Y197200D01*
X225760Y218300D02*
X225200Y219300D01*
X285400Y260160D02*
X285400Y311260D01*
X281400Y315260D01*
X281400Y316560D01*
X285400Y260160D02*
X256240Y231000D01*
X238460Y233540D02*
X227940Y233540D01*
X225200Y230800D01*
X225200Y219300D01*
D19*
X281400Y316560D03*
X256240Y231000D03*
X238460Y233540D03*
D18*
X42880Y241160D02*
X37800Y246240D01*
X35260Y246240D01*
X30180Y251320D01*
X30180Y266560D01*
X37800Y274180D01*
X50500Y274180D01*
X55580Y279260D01*
X55580Y294500D01*
X43100Y306980D01*
X34320Y306980D01*
X26480Y314820D01*
X26480Y326360D01*
X108920Y408800D01*
X160120Y408800D01*
X174960Y423640D01*
X42880Y241160D02*
X43200Y239700D01*
D19*
X174960Y423640D03*
X370000Y390000D03*
D18*
X248620Y398640D02*
X248620Y426580D01*
X248620Y398640D02*
X243540Y393560D01*
X230840Y380860D02*
X230840Y360540D01*
X215600Y345300D01*
D19*
X248620Y426580D03*
X243540Y393560D03*
X230840Y380860D03*
X215600Y345300D03*
D18*
X68280Y258940D02*
X45420Y258940D01*
X43200Y258700D01*
X68280Y324980D02*
X96220Y324980D01*
X68280Y324980D02*
X45420Y324980D01*
X43000Y323500D01*
X96220Y324980D02*
X97000Y323500D01*
X68280Y324980D02*
X68280Y258940D01*
X68300Y258500D01*
X80980Y241160D02*
X91140Y241160D01*
X80980Y241160D02*
X70820Y241160D01*
X68300Y239500D01*
X91140Y241160D02*
X92300Y239500D01*
X192740Y439280D02*
X200360Y439280D01*
X192740Y439280D02*
X182580Y449440D01*
X167340Y449440D01*
X159720Y441820D01*
X151840Y310440D02*
X135020Y310440D01*
X119080Y294500D01*
X108920Y294500D01*
X104380Y299040D01*
X88060Y299040D01*
X80980Y291960D01*
X80980Y241160D01*
D19*
X200360Y439280D03*
X159720Y441820D03*
X151840Y310440D03*
D18*
X174960Y482460D02*
X195280Y482460D01*
X174960Y482460D02*
X174100Y480800D01*
X195280Y482460D02*
X196500Y481100D01*
X197820Y482460D02*
X218140Y482460D01*
X218800Y481200D01*
X197820Y482460D02*
X196500Y481100D01*
X170080Y477580D02*
X160520Y477580D01*
X170080Y477580D02*
X172420Y479920D01*
X174100Y480800D01*
D19*
X160520Y477580D03*
D21*
X316900Y569900D02*
X324300Y577300D01*
X43300Y569900D02*
X35900Y577300D01*
X43300Y569900D02*
X316900Y569900D01*
D18*
X256240Y479920D02*
X243540Y479920D01*
X241500Y481200D01*
D19*
X256240Y479920D03*
X77200Y460400D03*
D18*
X226600Y460400D01*
X238300Y448700D01*
X238300Y439000D01*
D19*
X238300Y439000D03*
X66900Y460500D03*
D18*
X66900Y465137D01*
X70343Y468580D01*
X70820Y469760D02*
X70820Y472300D01*
X70820Y469760D02*
X70343Y468580D01*
X70820Y472300D02*
X68700Y474500D01*
X218800Y500200D02*
X218800Y551900D01*
D21*
X126400Y551900D01*
X218800Y551900D02*
X324300Y551900D01*
D19*
X126300Y552000D03*
D18*
X126400Y551900D01*
D21*
X126300Y552000D02*
X36000Y552000D01*
D20*
X35900Y551900D01*
D19*
X203600Y585300D03*
D18*
X196500Y592400D01*
X117598Y592400D02*
X116820Y591622D01*
D19*
X116820Y591622D03*
D18*
X117598Y592400D02*
X196500Y592400D01*
X626080Y281800D02*
X626080Y274180D01*
X626080Y220840D01*
X626080Y281800D02*
X628620Y284340D01*
X626080Y220840D02*
X624200Y219300D01*
X628620Y284340D02*
X630500Y285600D01*
X473680Y281800D02*
X473680Y258940D01*
X473680Y281800D02*
X476220Y284340D01*
X473680Y258940D02*
X472300Y258500D01*
X476220Y284340D02*
X477000Y286500D01*
X565120Y286880D02*
X585440Y286880D01*
X565120Y286880D02*
X534640Y286880D01*
X533000Y286500D01*
X585440Y286880D02*
X587000Y286500D01*
X565120Y286880D02*
X565120Y317360D01*
X532100Y286880D02*
X478760Y286880D01*
X477000Y286500D01*
X532100Y286880D02*
X533000Y286500D01*
X598140Y274180D02*
X626080Y274180D01*
X598140Y274180D02*
X587980Y284340D01*
X587000Y286500D01*
X494000Y172580D02*
X481300Y172580D01*
X478760Y175120D01*
X494000Y172580D02*
X495800Y172400D01*
X478760Y175120D02*
X477000Y176500D01*
X476220Y177660D02*
X425420Y177660D01*
X423000Y176500D01*
X476220Y177660D02*
X477000Y176500D01*
X532100Y175120D02*
X532100Y170040D01*
X521940Y159880D01*
X519400Y159880D02*
X506700Y159880D01*
X519400Y159880D02*
X521940Y159880D01*
X506700Y159880D02*
X496540Y170040D01*
X532100Y175120D02*
X533000Y176500D01*
X496540Y170040D02*
X495800Y172400D01*
X417800Y279260D02*
X422880Y284340D01*
X417800Y279260D02*
X415260Y279260D01*
X405100Y269100D01*
X405100Y228460D02*
X405100Y195440D01*
X405100Y228460D02*
X405100Y269100D01*
X405100Y195440D02*
X422880Y177660D01*
X422880Y284340D02*
X423000Y286500D01*
X422880Y177660D02*
X423000Y176500D01*
X587980Y25260D02*
X593060Y30340D01*
X595600Y30340D01*
X600680Y35420D01*
X600680Y53200D01*
X587980Y65900D01*
X587980Y25260D02*
X587800Y23400D01*
X587980Y65900D02*
X587000Y66500D01*
X585440Y68440D02*
X534640Y68440D01*
X533000Y66500D01*
X585440Y68440D02*
X587000Y66500D01*
X583500Y130000D02*
X590520Y137020D01*
X593060Y137020D01*
X595600Y139560D01*
X595600Y152260D02*
X595600Y164960D01*
X595600Y152260D02*
X595600Y139560D01*
X595600Y164960D02*
X585440Y175120D01*
X587000Y176500D01*
X643860Y177660D02*
X694660Y177660D01*
X643860Y177660D02*
X643000Y176500D01*
X694660Y177660D02*
X697000Y176500D01*
X621000Y152260D02*
X595600Y152260D01*
X621000Y152260D02*
X643860Y175120D01*
X643000Y176500D01*
X587980Y83680D02*
X587980Y68440D01*
X587980Y83680D02*
X600680Y96380D01*
X600680Y114160D01*
X585440Y129400D01*
X587980Y68440D02*
X587000Y66500D01*
X585440Y129400D02*
X583500Y130000D01*
X519400Y159880D02*
X519400Y81140D01*
X532100Y68440D01*
X533000Y66500D01*
X478760Y251320D02*
X473680Y256400D01*
X478760Y251320D02*
X481300Y251320D01*
X483840Y248780D01*
X483840Y231000D01*
X481300Y228460D01*
X405100Y228460D01*
X472300Y258500D02*
X473680Y256400D01*
X554960Y500240D02*
X575280Y500240D01*
X554960Y500240D02*
X554100Y499800D01*
X575280Y500240D02*
X576500Y500100D01*
X554100Y499800D02*
X552420Y497700D01*
X621500Y500200D02*
X623540Y500240D01*
D19*
X565120Y317360D03*
X483840Y474840D03*
X419400Y473500D03*
D20*
X412700Y473500D01*
X405300Y466100D01*
X405300Y384200D01*
X415900Y373600D01*
D19*
X415900Y373600D03*
X577100Y538300D03*
D20*
X577100Y502060D01*
X575280Y500240D01*
X468000Y474800D02*
X467700Y474500D01*
X468000Y474800D02*
X483800Y474800D01*
X483840Y474840D01*
X523560Y474840D01*
X639900Y467300D02*
X651100Y478500D01*
X651100Y494200D01*
X645060Y500240D02*
X638000Y500240D01*
X623540Y500240D01*
X531100Y467300D02*
X523560Y474840D01*
X531100Y467300D02*
X639900Y467300D01*
X651100Y494200D02*
X645060Y500240D01*
X576500Y500100D02*
X554820Y500100D01*
X552420Y497700D01*
X552800Y498500D02*
X554100Y499800D01*
X552800Y498500D02*
X536200Y498500D01*
X523560Y485860D01*
X523560Y474840D01*
D21*
X717434Y529972D02*
X724400Y536938D01*
X724400Y620000D01*
X705600Y638800D01*
X704700Y638800D01*
D20*
X651170Y290170D02*
X646600Y285600D01*
X630500Y285600D01*
X651170Y290170D02*
X651170Y322970D01*
D21*
X717434Y511638D02*
X717434Y529972D01*
X717434Y511638D02*
X717534Y511538D01*
D20*
X717434Y511638D02*
X717430Y511642D01*
X638000Y509800D02*
X638000Y500240D01*
X638000Y509800D02*
X642700Y514500D01*
X682600Y514500D01*
X685462Y511638D02*
X700600Y511638D01*
X717434Y511638D01*
X685462Y511638D02*
X682600Y514500D01*
X700600Y511638D02*
X700600Y379000D01*
X700600Y372400D01*
X651170Y322970D01*
X701862Y377738D02*
X718374Y377738D01*
X701862Y377738D02*
X700600Y379000D01*
D19*
X369900Y451600D03*
D22*
X391000Y451600D01*
D18*
X555720Y409800D02*
X555720Y409780D01*
X489100Y343160D01*
X445180Y343160D01*
D19*
X555720Y409800D03*
X445180Y343160D03*
D18*
X679420Y469760D02*
X679420Y482460D01*
X659100Y502780D01*
D19*
X679420Y469760D03*
X659100Y502780D03*
X671800Y584060D03*
D22*
X671800Y595800D02*
X598100Y669500D01*
X671800Y595800D02*
X671800Y584060D01*
D19*
X431200Y488600D03*
D20*
X431200Y457700D02*
X470000Y418900D01*
X431200Y457700D02*
X431200Y488600D01*
X471140Y418900D02*
X494000Y418900D01*
D19*
X494000Y418900D03*
D20*
X471140Y418900D02*
X470000Y418900D01*
D18*
X537180Y162420D02*
X537180Y149720D01*
X535800Y148700D01*
X511780Y215760D02*
X511780Y228460D01*
X511780Y215760D02*
X514300Y214400D01*
X603220Y172580D02*
X603220Y159880D01*
X603220Y172580D02*
X605200Y174900D01*
D21*
X605760Y609460D02*
X623540Y609460D01*
X605760Y609460D02*
X547340Y667880D01*
D18*
X547300Y669500D01*
X542260Y43040D02*
X537180Y43040D01*
X460980Y119240D02*
X400020Y180200D01*
X460980Y119240D02*
X537180Y43040D01*
X400020Y309600D02*
X400020Y345300D01*
X400020Y309600D02*
X400020Y180200D01*
X400020Y345300D02*
X471140Y416420D01*
X542260Y43040D02*
X542500Y41900D01*
X471140Y416420D02*
X471140Y418900D01*
X628620Y375780D02*
X628620Y332600D01*
X626080Y378320D02*
X560040Y444360D01*
X626080Y378320D02*
X628620Y375780D01*
X560040Y444360D02*
X549880Y444360D01*
X547340Y441820D01*
X547340Y436740D01*
X529560Y418960D01*
X494000Y418960D01*
X628620Y332600D02*
X630500Y331900D01*
X494000Y418900D02*
X494000Y418960D01*
X626080Y378320D02*
X676880Y378320D01*
X676880Y426580D01*
D21*
X474000Y596200D02*
X547300Y669500D01*
X474000Y596200D02*
X405000Y596200D01*
X397400Y588600D01*
X397400Y523180D01*
X430500Y490080D01*
D18*
X431200Y488600D01*
X491460Y149720D02*
X460980Y119240D01*
D19*
X537180Y162420D03*
X511780Y228460D03*
X603220Y159880D03*
X623540Y609460D03*
X676880Y378320D03*
X676880Y426580D03*
X491460Y149720D03*
X370000Y310000D03*
D22*
X399620Y310000D01*
X400020Y309600D01*
D18*
X610840Y322440D02*
X610840Y330060D01*
X610840Y322440D02*
X610840Y309740D01*
X611500Y308900D01*
X610840Y330060D02*
X611500Y331900D01*
X585440Y324980D02*
X534640Y324980D01*
X533000Y323500D01*
X585440Y324980D02*
X587000Y323500D01*
X587980Y322440D02*
X610840Y322440D01*
X587980Y322440D02*
X587000Y323500D01*
X618460Y291960D02*
X613380Y286880D01*
X618460Y291960D02*
X618460Y294500D01*
X631160Y307200D01*
X613380Y286880D02*
X611500Y285600D01*
X631160Y307200D02*
X630500Y308900D01*
X644820Y336100D02*
X654020Y345300D01*
X644820Y336100D02*
X644820Y323400D01*
X631160Y309740D01*
X630500Y308900D01*
D19*
X654020Y345300D03*
D18*
X557500Y131940D02*
X547340Y131940D01*
X537180Y131940D01*
X535800Y129700D01*
X557500Y131940D02*
X559300Y129800D01*
X547340Y213220D02*
X585440Y213220D01*
X547340Y213220D02*
X534640Y213220D01*
X533000Y213500D01*
X585440Y213220D02*
X587000Y213500D01*
X547340Y213220D02*
X547340Y131940D01*
X560040Y149720D02*
X582900Y149720D01*
X560040Y149720D02*
X559300Y148800D01*
X666720Y241160D02*
X671120Y245560D01*
X671120Y326980D02*
X670720Y327380D01*
X671120Y326980D02*
X671120Y245560D01*
X582900Y162420D02*
X582900Y149720D01*
X583500Y149000D01*
D19*
X670720Y327380D03*
X666720Y241160D03*
X582900Y162420D03*
D18*
X562580Y25260D02*
X544800Y25260D01*
X542500Y22900D01*
X562580Y25260D02*
X565000Y23300D01*
X585440Y104000D02*
X534640Y104000D01*
X533000Y103500D01*
X585440Y104000D02*
X587000Y103500D01*
X542260Y25260D02*
X537180Y25260D01*
X527020Y35420D01*
X527020Y88760D02*
X527020Y96380D01*
X532100Y101460D01*
X542260Y25260D02*
X542500Y22900D01*
X532100Y101460D02*
X533000Y103500D01*
D19*
X527020Y35420D03*
X527020Y88760D03*
D18*
X565120Y43040D02*
X585440Y43040D01*
X565120Y43040D02*
X565000Y42300D01*
X585440Y43040D02*
X587800Y42400D01*
X478760Y304660D02*
X575280Y401180D01*
X478760Y304660D02*
X458440Y304660D01*
X549880Y55740D02*
X562580Y43040D01*
X565000Y42300D01*
D19*
X575280Y401180D03*
X458440Y304660D03*
X549880Y55740D03*
D18*
X494000Y215760D02*
X478760Y215760D01*
X494000Y215760D02*
X495300Y214400D01*
X478760Y215760D02*
X477000Y213500D01*
X496540Y213220D02*
X496540Y195440D01*
X495400Y194000D01*
X496540Y213220D02*
X495300Y214400D01*
X476220Y213220D02*
X425420Y213220D01*
X423000Y213500D01*
X476220Y213220D02*
X477000Y213500D01*
X514320Y192900D02*
X514320Y172580D01*
X514800Y172400D01*
X514320Y192900D02*
X514400Y194000D01*
X572740Y347840D02*
X580360Y347840D01*
X593060Y335140D01*
X598140Y335140D01*
X529560Y200520D02*
X521940Y200520D01*
X516860Y195440D01*
X514400Y194000D01*
D19*
X572740Y347840D03*
X598140Y335140D03*
X529560Y200520D03*
D18*
X623540Y195440D02*
X623540Y175120D01*
X624200Y174900D01*
X623540Y195440D02*
X624500Y197200D01*
X626080Y197980D02*
X641320Y213220D01*
X643000Y213500D01*
X626080Y197980D02*
X624500Y197200D01*
X643860Y213220D02*
X694660Y213220D01*
X697000Y213500D01*
X643860Y213220D02*
X643000Y213500D01*
X605760Y218300D02*
X605760Y197980D01*
X605500Y197200D01*
X605760Y218300D02*
X605200Y219300D01*
X665400Y260160D02*
X665400Y311260D01*
X661400Y315260D01*
X661400Y316560D01*
X665400Y260160D02*
X636240Y231000D01*
X618460Y233540D02*
X607940Y233540D01*
X605200Y230800D01*
X605200Y219300D01*
D19*
X661400Y316560D03*
X636240Y231000D03*
X618460Y233540D03*
D18*
X422880Y241160D02*
X417800Y246240D01*
X415260Y246240D01*
X410180Y251320D01*
X410180Y266560D01*
X417800Y274180D01*
X430500Y274180D01*
X435580Y279260D01*
X435580Y294500D01*
X423100Y306980D01*
X414320Y306980D01*
X406480Y314820D01*
X406480Y326360D01*
X488920Y408800D01*
X540120Y408800D01*
X554960Y423640D01*
X422880Y241160D02*
X423200Y239700D01*
D19*
X554960Y423640D03*
D18*
X628620Y426580D02*
X628620Y398640D01*
X623540Y393560D01*
X610840Y380860D02*
X610840Y360540D01*
X595600Y345300D01*
D19*
X628620Y426580D03*
X623540Y393560D03*
X610840Y380860D03*
X595600Y345300D03*
D18*
X448280Y258940D02*
X425420Y258940D01*
X423200Y258700D01*
X448280Y324980D02*
X476220Y324980D01*
X448280Y324980D02*
X425420Y324980D01*
X423000Y323500D01*
X476220Y324980D02*
X477000Y323500D01*
X448280Y324980D02*
X448280Y258940D01*
X448300Y258500D01*
X460980Y241160D02*
X471140Y241160D01*
X460980Y241160D02*
X450820Y241160D01*
X448300Y239500D01*
X471140Y241160D02*
X472300Y239500D01*
X572740Y439280D02*
X580360Y439280D01*
X572740Y439280D02*
X562580Y449440D01*
X547340Y449440D01*
X539720Y441820D01*
X531840Y310440D02*
X515020Y310440D01*
X499080Y294500D01*
X488920Y294500D01*
X484380Y299040D01*
X468060Y299040D01*
X460980Y291960D01*
X460980Y241160D01*
D19*
X580360Y439280D03*
X539720Y441820D03*
X531840Y310440D03*
D18*
X554960Y482460D02*
X575280Y482460D01*
X554960Y482460D02*
X554100Y480800D01*
X575280Y482460D02*
X576500Y481100D01*
X577820Y482460D02*
X598140Y482460D01*
X598800Y481200D01*
X577820Y482460D02*
X576500Y481100D01*
X550080Y477580D02*
X540520Y477580D01*
X550080Y477580D02*
X552420Y479920D01*
X554100Y480800D01*
D19*
X540520Y477580D03*
D21*
X696900Y569900D02*
X704300Y577300D01*
X423300Y569900D02*
X415900Y577300D01*
X423300Y569900D02*
X696900Y569900D01*
D18*
X636240Y479920D02*
X623540Y479920D01*
X621500Y481200D01*
D19*
X636240Y479920D03*
X457200Y460400D03*
D18*
X606600Y460400D01*
X618300Y448700D01*
X618300Y439000D01*
D19*
X618300Y439000D03*
X446900Y460500D03*
D18*
X446900Y465137D01*
X450343Y468580D01*
X450820Y469760D02*
X450820Y472300D01*
X450820Y469760D02*
X450343Y468580D01*
X450820Y472300D02*
X448700Y474500D01*
X598800Y500200D02*
X598800Y551900D01*
D21*
X506400Y551900D01*
X598800Y551900D02*
X704300Y551900D01*
D19*
X506300Y552000D03*
D18*
X506400Y551900D01*
D21*
X506300Y552000D02*
X416000Y552000D01*
D20*
X415900Y551900D01*
D19*
X583600Y585300D03*
D18*
X576500Y592400D01*
X497598Y592400D02*
X496820Y591622D01*
D19*
X496820Y591622D03*
D18*
X497598Y592400D02*
X576500Y592400D01*
D19*
X370000Y440000D03*
X369900Y376800D03*
M02*
