G04 EAGLE Gerber RS-274X export*
G75*
%MOMM*%
%FSLAX34Y34*%
%LPD*%
%INBottom Copper*%
%IPPOS*%
%AMOC8*
5,1,8,0,0,1.08239X$1,22.5*%
G01*
%ADD10R,2.200000X2.000000*%
%ADD11R,1.524000X1.524000*%
%ADD12P,1.649562X8X292.500000*%
%ADD13P,1.649562X8X112.500000*%
%ADD14R,1.500000X1.300000*%
%ADD15C,0.150000*%
%ADD16P,1.649562X8X202.500000*%
%ADD17C,1.800000*%
%ADD18R,1.778000X2.032000*%
%ADD19R,1.300000X1.500000*%
%ADD20R,2.100000X1.500000*%
%ADD21R,0.320000X0.768350*%
%ADD22R,1.500000X4.500000*%
%ADD23R,1.600000X1.300000*%
%ADD24R,0.711200X1.100000*%
%ADD25C,1.016000*%
%ADD26C,0.254000*%
%ADD27C,0.756400*%
%ADD28C,0.508000*%
%ADD29C,0.762000*%
%ADD30C,0.304800*%

G36*
X114853Y441450D02*
X114853Y441450D01*
X114861Y441449D01*
X114951Y441470D01*
X115042Y441488D01*
X115049Y441493D01*
X115056Y441495D01*
X115204Y441597D01*
X115648Y442041D01*
X131500Y442041D01*
X131505Y442042D01*
X131510Y442041D01*
X131603Y442062D01*
X131697Y442080D01*
X131701Y442083D01*
X131706Y442084D01*
X131784Y442140D01*
X131862Y442193D01*
X131865Y442197D01*
X131869Y442200D01*
X131920Y442282D01*
X131972Y442361D01*
X131972Y442366D01*
X131975Y442371D01*
X132007Y442548D01*
X132007Y474300D01*
X132006Y474308D01*
X132007Y474315D01*
X131986Y474405D01*
X131968Y474497D01*
X131963Y474503D01*
X131961Y474511D01*
X131859Y474659D01*
X102759Y503759D01*
X102752Y503763D01*
X102748Y503769D01*
X102669Y503818D01*
X102592Y503870D01*
X102584Y503871D01*
X102577Y503875D01*
X102400Y503907D01*
X84500Y503907D01*
X84492Y503906D01*
X84485Y503907D01*
X84395Y503886D01*
X84304Y503868D01*
X84297Y503863D01*
X84289Y503861D01*
X84141Y503759D01*
X78941Y498559D01*
X78937Y498552D01*
X78931Y498548D01*
X78882Y498469D01*
X78830Y498392D01*
X78829Y498384D01*
X78825Y498377D01*
X78793Y498200D01*
X78793Y485900D01*
X78794Y485892D01*
X78793Y485885D01*
X78814Y485795D01*
X78832Y485704D01*
X78837Y485697D01*
X78839Y485689D01*
X78941Y485541D01*
X80241Y484241D01*
X80248Y484237D01*
X80252Y484231D01*
X80331Y484182D01*
X80408Y484130D01*
X80416Y484129D01*
X80423Y484125D01*
X80600Y484093D01*
X94090Y484093D01*
X94193Y483989D01*
X94200Y483985D01*
X94204Y483979D01*
X94284Y483929D01*
X94360Y483878D01*
X94368Y483877D01*
X94375Y483873D01*
X94552Y483841D01*
X97152Y483841D01*
X98641Y482352D01*
X98641Y467248D01*
X98541Y467148D01*
X98537Y467142D01*
X98531Y467137D01*
X98482Y467058D01*
X98430Y466981D01*
X98429Y466974D01*
X98425Y466967D01*
X98393Y466790D01*
X98393Y462910D01*
X96241Y460759D01*
X96237Y460752D01*
X96231Y460748D01*
X96182Y460669D01*
X96130Y460592D01*
X96129Y460584D01*
X96125Y460577D01*
X96093Y460400D01*
X96093Y449010D01*
X93320Y446238D01*
X90448Y446238D01*
X90443Y446237D01*
X90438Y446238D01*
X90345Y446217D01*
X90251Y446198D01*
X90247Y446195D01*
X90242Y446194D01*
X90164Y446139D01*
X90086Y446086D01*
X90083Y446081D01*
X90079Y446078D01*
X90028Y445997D01*
X89976Y445917D01*
X89976Y445912D01*
X89973Y445908D01*
X89941Y445731D01*
X89941Y445472D01*
X88452Y443984D01*
X83148Y443984D01*
X81659Y445472D01*
X81659Y453700D01*
X81658Y453705D01*
X81659Y453710D01*
X81638Y453803D01*
X81620Y453897D01*
X81617Y453901D01*
X81616Y453906D01*
X81560Y453984D01*
X81507Y454062D01*
X81503Y454065D01*
X81500Y454069D01*
X81418Y454120D01*
X81339Y454172D01*
X81334Y454172D01*
X81329Y454175D01*
X81152Y454207D01*
X80448Y454207D01*
X80443Y454206D01*
X80438Y454207D01*
X80345Y454186D01*
X80251Y454168D01*
X80247Y454165D01*
X80242Y454164D01*
X80164Y454108D01*
X80086Y454055D01*
X80083Y454051D01*
X80079Y454048D01*
X80028Y453966D01*
X79976Y453887D01*
X79976Y453882D01*
X79973Y453877D01*
X79941Y453700D01*
X79941Y445472D01*
X78452Y443984D01*
X68148Y443984D01*
X66572Y445559D01*
X66566Y445563D01*
X66561Y445569D01*
X66483Y445618D01*
X66405Y445670D01*
X66398Y445671D01*
X66391Y445675D01*
X66331Y445686D01*
X63307Y448710D01*
X63307Y454941D01*
X63306Y454949D01*
X63307Y454956D01*
X63286Y455046D01*
X63268Y455137D01*
X63263Y455144D01*
X63261Y455152D01*
X63159Y455300D01*
X61540Y456918D01*
X60900Y458462D01*
X60895Y458470D01*
X60893Y458479D01*
X60790Y458627D01*
X60559Y458859D01*
X60552Y458863D01*
X60548Y458869D01*
X60469Y458919D01*
X60392Y458970D01*
X60384Y458971D01*
X60377Y458975D01*
X60200Y459007D01*
X41200Y459007D01*
X41192Y459006D01*
X41185Y459007D01*
X41095Y458986D01*
X41004Y458968D01*
X40997Y458963D01*
X40989Y458961D01*
X40841Y458859D01*
X39541Y457559D01*
X39537Y457552D01*
X39531Y457548D01*
X39482Y457469D01*
X39430Y457392D01*
X39429Y457384D01*
X39425Y457377D01*
X39393Y457200D01*
X39393Y447295D01*
X39394Y447287D01*
X39393Y447279D01*
X39414Y447189D01*
X39432Y447098D01*
X39437Y447092D01*
X39439Y447084D01*
X39541Y446936D01*
X42036Y444441D01*
X42043Y444437D01*
X42047Y444431D01*
X42126Y444382D01*
X42203Y444330D01*
X42211Y444329D01*
X42217Y444325D01*
X42395Y444293D01*
X56790Y444293D01*
X56885Y444197D01*
X56892Y444193D01*
X56896Y444187D01*
X56976Y444137D01*
X57052Y444086D01*
X57060Y444085D01*
X57067Y444081D01*
X57244Y444049D01*
X58963Y444049D01*
X60714Y442297D01*
X60721Y442293D01*
X60725Y442287D01*
X60804Y442238D01*
X60881Y442186D01*
X60889Y442185D01*
X60896Y442181D01*
X61073Y442149D01*
X72967Y442149D01*
X73036Y442105D01*
X73113Y442054D01*
X73121Y442053D01*
X73128Y442048D01*
X73305Y442016D01*
X78295Y442016D01*
X78303Y442018D01*
X78310Y442017D01*
X78400Y442038D01*
X78455Y442049D01*
X82727Y442049D01*
X82728Y442048D01*
X82905Y442016D01*
X83195Y442016D01*
X83203Y442018D01*
X83211Y442017D01*
X83300Y442038D01*
X83355Y442049D01*
X90863Y442049D01*
X90914Y441997D01*
X90921Y441993D01*
X90925Y441987D01*
X91004Y441938D01*
X91081Y441886D01*
X91089Y441885D01*
X91096Y441881D01*
X91273Y441849D01*
X94846Y441849D01*
X94853Y441850D01*
X94861Y441849D01*
X94951Y441870D01*
X95042Y441888D01*
X95049Y441893D01*
X95056Y441895D01*
X95204Y441997D01*
X95248Y442041D01*
X112352Y442041D01*
X112796Y441597D01*
X112802Y441593D01*
X112807Y441587D01*
X112886Y441538D01*
X112963Y441486D01*
X112971Y441485D01*
X112977Y441481D01*
X113154Y441449D01*
X114846Y441449D01*
X114853Y441450D01*
G37*
G36*
X494853Y441450D02*
X494853Y441450D01*
X494861Y441449D01*
X494951Y441470D01*
X495042Y441488D01*
X495049Y441493D01*
X495056Y441495D01*
X495204Y441597D01*
X495648Y442041D01*
X511500Y442041D01*
X511505Y442042D01*
X511510Y442041D01*
X511603Y442062D01*
X511697Y442080D01*
X511701Y442083D01*
X511706Y442084D01*
X511784Y442140D01*
X511862Y442193D01*
X511865Y442197D01*
X511869Y442200D01*
X511920Y442282D01*
X511972Y442361D01*
X511972Y442366D01*
X511975Y442371D01*
X512007Y442548D01*
X512007Y474300D01*
X512006Y474308D01*
X512007Y474315D01*
X511986Y474405D01*
X511968Y474497D01*
X511963Y474503D01*
X511961Y474511D01*
X511859Y474659D01*
X482759Y503759D01*
X482752Y503763D01*
X482748Y503769D01*
X482669Y503818D01*
X482592Y503870D01*
X482584Y503871D01*
X482577Y503875D01*
X482400Y503907D01*
X464500Y503907D01*
X464492Y503906D01*
X464485Y503907D01*
X464395Y503886D01*
X464304Y503868D01*
X464297Y503863D01*
X464289Y503861D01*
X464141Y503759D01*
X458941Y498559D01*
X458937Y498552D01*
X458931Y498548D01*
X458882Y498469D01*
X458830Y498392D01*
X458829Y498384D01*
X458825Y498377D01*
X458793Y498200D01*
X458793Y485900D01*
X458794Y485892D01*
X458793Y485885D01*
X458814Y485795D01*
X458832Y485704D01*
X458837Y485697D01*
X458839Y485689D01*
X458941Y485541D01*
X460241Y484241D01*
X460248Y484237D01*
X460252Y484231D01*
X460331Y484182D01*
X460408Y484130D01*
X460416Y484129D01*
X460423Y484125D01*
X460600Y484093D01*
X474090Y484093D01*
X474193Y483989D01*
X474200Y483985D01*
X474204Y483979D01*
X474284Y483929D01*
X474360Y483878D01*
X474368Y483877D01*
X474375Y483873D01*
X474552Y483841D01*
X477152Y483841D01*
X478641Y482352D01*
X478641Y467248D01*
X478541Y467148D01*
X478537Y467142D01*
X478531Y467137D01*
X478482Y467058D01*
X478430Y466981D01*
X478429Y466974D01*
X478425Y466967D01*
X478393Y466790D01*
X478393Y462910D01*
X476241Y460759D01*
X476237Y460752D01*
X476231Y460748D01*
X476182Y460669D01*
X476130Y460592D01*
X476129Y460584D01*
X476125Y460577D01*
X476093Y460400D01*
X476093Y449010D01*
X473320Y446238D01*
X470448Y446238D01*
X470443Y446237D01*
X470438Y446238D01*
X470345Y446217D01*
X470251Y446198D01*
X470247Y446195D01*
X470242Y446194D01*
X470164Y446139D01*
X470086Y446086D01*
X470083Y446081D01*
X470079Y446078D01*
X470028Y445997D01*
X469976Y445917D01*
X469976Y445912D01*
X469973Y445908D01*
X469941Y445731D01*
X469941Y445472D01*
X468452Y443984D01*
X463148Y443984D01*
X461659Y445472D01*
X461659Y453700D01*
X461658Y453705D01*
X461659Y453710D01*
X461638Y453803D01*
X461620Y453897D01*
X461617Y453901D01*
X461616Y453906D01*
X461560Y453984D01*
X461507Y454062D01*
X461503Y454065D01*
X461500Y454069D01*
X461418Y454120D01*
X461339Y454172D01*
X461334Y454172D01*
X461329Y454175D01*
X461152Y454207D01*
X460448Y454207D01*
X460443Y454206D01*
X460438Y454207D01*
X460345Y454186D01*
X460251Y454168D01*
X460247Y454165D01*
X460242Y454164D01*
X460164Y454108D01*
X460086Y454055D01*
X460083Y454051D01*
X460079Y454048D01*
X460028Y453966D01*
X459976Y453887D01*
X459976Y453882D01*
X459973Y453877D01*
X459941Y453700D01*
X459941Y445472D01*
X458452Y443984D01*
X448148Y443984D01*
X446572Y445559D01*
X446566Y445563D01*
X446561Y445569D01*
X446483Y445618D01*
X446405Y445670D01*
X446398Y445671D01*
X446391Y445675D01*
X446331Y445686D01*
X443307Y448710D01*
X443307Y454941D01*
X443306Y454949D01*
X443307Y454956D01*
X443286Y455046D01*
X443268Y455137D01*
X443263Y455144D01*
X443261Y455152D01*
X443159Y455300D01*
X441540Y456918D01*
X440900Y458462D01*
X440895Y458470D01*
X440893Y458479D01*
X440790Y458627D01*
X440559Y458859D01*
X440552Y458863D01*
X440548Y458869D01*
X440469Y458919D01*
X440392Y458970D01*
X440384Y458971D01*
X440377Y458975D01*
X440200Y459007D01*
X421200Y459007D01*
X421192Y459006D01*
X421185Y459007D01*
X421095Y458986D01*
X421004Y458968D01*
X420997Y458963D01*
X420989Y458961D01*
X420841Y458859D01*
X419541Y457559D01*
X419537Y457552D01*
X419531Y457548D01*
X419482Y457469D01*
X419430Y457392D01*
X419429Y457384D01*
X419425Y457377D01*
X419393Y457200D01*
X419393Y447295D01*
X419394Y447287D01*
X419393Y447279D01*
X419414Y447189D01*
X419432Y447098D01*
X419437Y447092D01*
X419439Y447084D01*
X419541Y446936D01*
X422036Y444441D01*
X422043Y444437D01*
X422047Y444431D01*
X422126Y444382D01*
X422203Y444330D01*
X422211Y444329D01*
X422217Y444325D01*
X422395Y444293D01*
X436790Y444293D01*
X436885Y444197D01*
X436892Y444193D01*
X436896Y444187D01*
X436976Y444137D01*
X437052Y444086D01*
X437060Y444085D01*
X437067Y444081D01*
X437244Y444049D01*
X438963Y444049D01*
X440714Y442297D01*
X440721Y442293D01*
X440725Y442287D01*
X440804Y442238D01*
X440881Y442186D01*
X440889Y442185D01*
X440896Y442181D01*
X441073Y442149D01*
X452967Y442149D01*
X453037Y442105D01*
X453113Y442054D01*
X453121Y442053D01*
X453128Y442048D01*
X453305Y442016D01*
X458295Y442016D01*
X458303Y442018D01*
X458311Y442017D01*
X458400Y442038D01*
X458455Y442049D01*
X462727Y442049D01*
X462728Y442048D01*
X462905Y442016D01*
X463195Y442016D01*
X463203Y442018D01*
X463211Y442017D01*
X463300Y442038D01*
X463355Y442049D01*
X470863Y442049D01*
X470914Y441997D01*
X470921Y441993D01*
X470925Y441987D01*
X471004Y441938D01*
X471081Y441886D01*
X471089Y441885D01*
X471096Y441881D01*
X471273Y441849D01*
X474845Y441849D01*
X474853Y441850D01*
X474861Y441849D01*
X474951Y441870D01*
X475042Y441888D01*
X475049Y441893D01*
X475056Y441895D01*
X475204Y441997D01*
X475248Y442041D01*
X492352Y442041D01*
X492796Y441597D01*
X492802Y441593D01*
X492807Y441587D01*
X492886Y441538D01*
X492963Y441486D01*
X492971Y441485D01*
X492977Y441481D01*
X493155Y441449D01*
X494845Y441449D01*
X494853Y441450D01*
G37*
G36*
X449708Y361394D02*
X449708Y361394D01*
X449715Y361393D01*
X449805Y361414D01*
X449897Y361432D01*
X449903Y361437D01*
X449911Y361439D01*
X450059Y361541D01*
X451759Y363241D01*
X451763Y363248D01*
X451769Y363252D01*
X451818Y363331D01*
X451870Y363408D01*
X451871Y363416D01*
X451875Y363423D01*
X451907Y363600D01*
X451907Y416190D01*
X457059Y421341D01*
X457063Y421348D01*
X457069Y421352D01*
X457118Y421431D01*
X457170Y421508D01*
X457171Y421516D01*
X457175Y421523D01*
X457207Y421700D01*
X457207Y429982D01*
X457206Y429990D01*
X457207Y429997D01*
X457186Y430087D01*
X457168Y430178D01*
X457163Y430185D01*
X457161Y430192D01*
X457059Y430340D01*
X456659Y430740D01*
X456659Y438900D01*
X456658Y438905D01*
X456659Y438910D01*
X456638Y439003D01*
X456620Y439097D01*
X456617Y439101D01*
X456616Y439106D01*
X456560Y439184D01*
X456507Y439262D01*
X456503Y439265D01*
X456500Y439269D01*
X456418Y439320D01*
X456339Y439372D01*
X456334Y439372D01*
X456329Y439375D01*
X456152Y439407D01*
X455448Y439407D01*
X455443Y439406D01*
X455438Y439407D01*
X455345Y439386D01*
X455251Y439368D01*
X455247Y439365D01*
X455242Y439364D01*
X455164Y439308D01*
X455086Y439255D01*
X455083Y439251D01*
X455079Y439248D01*
X455028Y439166D01*
X454976Y439087D01*
X454976Y439082D01*
X454973Y439077D01*
X454941Y438900D01*
X454941Y430740D01*
X453452Y429252D01*
X452444Y429252D01*
X452437Y429250D01*
X452429Y429251D01*
X452339Y429230D01*
X452248Y429212D01*
X452241Y429207D01*
X452234Y429206D01*
X452086Y429103D01*
X442990Y420007D01*
X430000Y420007D01*
X429992Y420006D01*
X429985Y420007D01*
X429895Y419986D01*
X429804Y419968D01*
X429797Y419963D01*
X429789Y419961D01*
X429641Y419859D01*
X428941Y419159D01*
X428937Y419152D01*
X428931Y419148D01*
X428882Y419069D01*
X428830Y418992D01*
X428829Y418984D01*
X428825Y418977D01*
X428793Y418800D01*
X428793Y363300D01*
X428794Y363292D01*
X428793Y363285D01*
X428814Y363195D01*
X428832Y363104D01*
X428837Y363097D01*
X428839Y363089D01*
X428941Y362941D01*
X430341Y361541D01*
X430348Y361537D01*
X430352Y361531D01*
X430431Y361482D01*
X430508Y361430D01*
X430516Y361429D01*
X430523Y361425D01*
X430700Y361393D01*
X449700Y361393D01*
X449708Y361394D01*
G37*
G36*
X69708Y361394D02*
X69708Y361394D01*
X69715Y361393D01*
X69805Y361414D01*
X69897Y361432D01*
X69903Y361437D01*
X69911Y361439D01*
X70059Y361541D01*
X71759Y363241D01*
X71763Y363248D01*
X71769Y363252D01*
X71818Y363331D01*
X71870Y363408D01*
X71871Y363416D01*
X71875Y363423D01*
X71907Y363600D01*
X71907Y416190D01*
X77059Y421341D01*
X77063Y421348D01*
X77069Y421352D01*
X77118Y421431D01*
X77170Y421508D01*
X77171Y421516D01*
X77175Y421523D01*
X77207Y421700D01*
X77207Y429982D01*
X77206Y429990D01*
X77207Y429997D01*
X77186Y430087D01*
X77168Y430178D01*
X77163Y430185D01*
X77161Y430192D01*
X77059Y430340D01*
X76659Y430740D01*
X76659Y438900D01*
X76658Y438905D01*
X76659Y438910D01*
X76638Y439003D01*
X76620Y439097D01*
X76617Y439101D01*
X76616Y439106D01*
X76560Y439184D01*
X76507Y439262D01*
X76503Y439265D01*
X76500Y439269D01*
X76418Y439320D01*
X76339Y439372D01*
X76334Y439372D01*
X76329Y439375D01*
X76152Y439407D01*
X75448Y439407D01*
X75443Y439406D01*
X75438Y439407D01*
X75345Y439386D01*
X75251Y439368D01*
X75247Y439365D01*
X75242Y439364D01*
X75164Y439308D01*
X75086Y439255D01*
X75083Y439251D01*
X75079Y439248D01*
X75028Y439166D01*
X74976Y439087D01*
X74976Y439082D01*
X74973Y439077D01*
X74941Y438900D01*
X74941Y430740D01*
X73452Y429252D01*
X72444Y429252D01*
X72437Y429250D01*
X72429Y429251D01*
X72339Y429230D01*
X72248Y429212D01*
X72241Y429207D01*
X72234Y429206D01*
X72086Y429103D01*
X62990Y420007D01*
X50000Y420007D01*
X49992Y420006D01*
X49985Y420007D01*
X49895Y419986D01*
X49804Y419968D01*
X49797Y419963D01*
X49789Y419961D01*
X49641Y419859D01*
X48941Y419159D01*
X48937Y419152D01*
X48931Y419148D01*
X48882Y419069D01*
X48830Y418992D01*
X48829Y418984D01*
X48825Y418977D01*
X48793Y418800D01*
X48793Y363300D01*
X48794Y363292D01*
X48793Y363285D01*
X48814Y363195D01*
X48832Y363104D01*
X48837Y363097D01*
X48839Y363089D01*
X48941Y362941D01*
X50341Y361541D01*
X50348Y361537D01*
X50352Y361531D01*
X50431Y361482D01*
X50508Y361430D01*
X50516Y361429D01*
X50523Y361425D01*
X50700Y361393D01*
X69700Y361393D01*
X69708Y361394D01*
G37*
G36*
X101408Y361494D02*
X101408Y361494D01*
X101415Y361493D01*
X101505Y361514D01*
X101597Y361532D01*
X101603Y361537D01*
X101611Y361539D01*
X101759Y361641D01*
X104159Y364041D01*
X104163Y364048D01*
X104169Y364052D01*
X104218Y364131D01*
X104270Y364208D01*
X104271Y364216D01*
X104275Y364223D01*
X104307Y364400D01*
X104307Y418300D01*
X104306Y418308D01*
X104307Y418315D01*
X104286Y418405D01*
X104268Y418497D01*
X104263Y418503D01*
X104261Y418511D01*
X104159Y418659D01*
X102959Y419859D01*
X102952Y419863D01*
X102948Y419869D01*
X102869Y419918D01*
X102792Y419970D01*
X102784Y419971D01*
X102777Y419975D01*
X102600Y420007D01*
X93410Y420007D01*
X84314Y429103D01*
X84308Y429107D01*
X84303Y429114D01*
X84225Y429163D01*
X84147Y429214D01*
X84140Y429215D01*
X84133Y429220D01*
X83956Y429252D01*
X83148Y429252D01*
X81659Y430740D01*
X81659Y439000D01*
X81658Y439005D01*
X81659Y439010D01*
X81638Y439103D01*
X81620Y439197D01*
X81617Y439201D01*
X81616Y439206D01*
X81560Y439284D01*
X81507Y439362D01*
X81503Y439365D01*
X81500Y439369D01*
X81418Y439420D01*
X81339Y439472D01*
X81334Y439472D01*
X81329Y439475D01*
X81152Y439507D01*
X80448Y439507D01*
X80443Y439506D01*
X80438Y439507D01*
X80345Y439486D01*
X80251Y439468D01*
X80247Y439465D01*
X80242Y439464D01*
X80164Y439408D01*
X80086Y439355D01*
X80083Y439351D01*
X80079Y439348D01*
X80028Y439266D01*
X79976Y439187D01*
X79976Y439182D01*
X79973Y439177D01*
X79941Y439000D01*
X79941Y430740D01*
X79441Y430240D01*
X79437Y430234D01*
X79431Y430229D01*
X79382Y430151D01*
X79330Y430073D01*
X79329Y430066D01*
X79325Y430059D01*
X79293Y429882D01*
X79293Y421700D01*
X79294Y421692D01*
X79293Y421685D01*
X79314Y421595D01*
X79332Y421504D01*
X79337Y421497D01*
X79339Y421489D01*
X79441Y421341D01*
X83193Y417590D01*
X83193Y364400D01*
X83194Y364392D01*
X83193Y364385D01*
X83214Y364295D01*
X83232Y364204D01*
X83237Y364197D01*
X83239Y364189D01*
X83341Y364041D01*
X85741Y361641D01*
X85748Y361637D01*
X85752Y361631D01*
X85831Y361582D01*
X85908Y361530D01*
X85916Y361529D01*
X85923Y361525D01*
X86100Y361493D01*
X101400Y361493D01*
X101408Y361494D01*
G37*
G36*
X481408Y361494D02*
X481408Y361494D01*
X481415Y361493D01*
X481505Y361514D01*
X481597Y361532D01*
X481603Y361537D01*
X481611Y361539D01*
X481759Y361641D01*
X484159Y364041D01*
X484163Y364048D01*
X484169Y364052D01*
X484218Y364131D01*
X484270Y364208D01*
X484271Y364216D01*
X484275Y364223D01*
X484307Y364400D01*
X484307Y418300D01*
X484306Y418308D01*
X484307Y418315D01*
X484286Y418405D01*
X484268Y418497D01*
X484263Y418503D01*
X484261Y418511D01*
X484159Y418659D01*
X482959Y419859D01*
X482952Y419863D01*
X482948Y419869D01*
X482869Y419918D01*
X482792Y419970D01*
X482784Y419971D01*
X482777Y419975D01*
X482600Y420007D01*
X473410Y420007D01*
X464314Y429103D01*
X464308Y429107D01*
X464303Y429114D01*
X464225Y429163D01*
X464147Y429214D01*
X464140Y429215D01*
X464133Y429220D01*
X463956Y429252D01*
X463148Y429252D01*
X461659Y430740D01*
X461659Y439000D01*
X461658Y439005D01*
X461659Y439010D01*
X461638Y439103D01*
X461620Y439197D01*
X461617Y439201D01*
X461616Y439206D01*
X461560Y439284D01*
X461507Y439362D01*
X461503Y439365D01*
X461500Y439369D01*
X461418Y439420D01*
X461339Y439472D01*
X461334Y439472D01*
X461329Y439475D01*
X461152Y439507D01*
X460448Y439507D01*
X460443Y439506D01*
X460438Y439507D01*
X460345Y439486D01*
X460251Y439468D01*
X460247Y439465D01*
X460242Y439464D01*
X460164Y439408D01*
X460086Y439355D01*
X460083Y439351D01*
X460079Y439348D01*
X460028Y439266D01*
X459976Y439187D01*
X459976Y439182D01*
X459973Y439177D01*
X459941Y439000D01*
X459941Y430740D01*
X459441Y430240D01*
X459437Y430234D01*
X459431Y430229D01*
X459382Y430151D01*
X459330Y430073D01*
X459329Y430066D01*
X459325Y430059D01*
X459293Y429882D01*
X459293Y421700D01*
X459294Y421692D01*
X459293Y421685D01*
X459314Y421595D01*
X459332Y421504D01*
X459337Y421497D01*
X459339Y421489D01*
X459441Y421341D01*
X463193Y417590D01*
X463193Y364400D01*
X463194Y364392D01*
X463193Y364385D01*
X463214Y364295D01*
X463232Y364204D01*
X463237Y364197D01*
X463239Y364189D01*
X463341Y364041D01*
X465741Y361641D01*
X465748Y361637D01*
X465752Y361631D01*
X465831Y361582D01*
X465908Y361530D01*
X465916Y361529D01*
X465923Y361525D01*
X466100Y361493D01*
X481400Y361493D01*
X481408Y361494D01*
G37*
G36*
X118407Y424893D02*
X118407Y424893D01*
X118410Y424893D01*
X118506Y424914D01*
X118601Y424934D01*
X118603Y424936D01*
X118605Y424936D01*
X118755Y425037D01*
X132055Y438037D01*
X132058Y438042D01*
X132062Y438045D01*
X132114Y438124D01*
X132167Y438203D01*
X132169Y438208D01*
X132172Y438213D01*
X132188Y438306D01*
X132207Y438399D01*
X132206Y438405D01*
X132207Y438410D01*
X132186Y438504D01*
X132168Y438596D01*
X132165Y438600D01*
X132164Y438606D01*
X132108Y438684D01*
X132055Y438762D01*
X132051Y438765D01*
X132048Y438769D01*
X131967Y438820D01*
X131888Y438871D01*
X131882Y438872D01*
X131877Y438875D01*
X131700Y438907D01*
X97010Y438907D01*
X96759Y439159D01*
X96752Y439163D01*
X96748Y439169D01*
X96669Y439218D01*
X96592Y439270D01*
X96584Y439271D01*
X96577Y439275D01*
X96400Y439307D01*
X90010Y439307D01*
X89959Y439359D01*
X89952Y439363D01*
X89948Y439369D01*
X89869Y439418D01*
X89792Y439470D01*
X89784Y439471D01*
X89777Y439475D01*
X89600Y439507D01*
X85448Y439507D01*
X85443Y439506D01*
X85438Y439507D01*
X85345Y439486D01*
X85251Y439468D01*
X85247Y439465D01*
X85242Y439464D01*
X85164Y439408D01*
X85086Y439355D01*
X85083Y439351D01*
X85079Y439348D01*
X85028Y439266D01*
X84976Y439187D01*
X84976Y439182D01*
X84973Y439177D01*
X84941Y439000D01*
X84941Y432052D01*
X84942Y432044D01*
X84941Y432037D01*
X84962Y431947D01*
X84980Y431856D01*
X84985Y431849D01*
X84987Y431841D01*
X85089Y431693D01*
X86341Y430441D01*
X86348Y430437D01*
X86352Y430431D01*
X86431Y430382D01*
X86508Y430330D01*
X86516Y430329D01*
X86523Y430325D01*
X86700Y430293D01*
X91090Y430293D01*
X96141Y425241D01*
X96148Y425237D01*
X96152Y425231D01*
X96231Y425182D01*
X96308Y425130D01*
X96316Y425129D01*
X96323Y425125D01*
X96500Y425093D01*
X117990Y425093D01*
X118041Y425041D01*
X118043Y425040D01*
X118045Y425038D01*
X118127Y424985D01*
X118208Y424930D01*
X118211Y424930D01*
X118212Y424929D01*
X118309Y424911D01*
X118405Y424893D01*
X118407Y424893D01*
G37*
G36*
X498407Y424893D02*
X498407Y424893D01*
X498410Y424893D01*
X498506Y424914D01*
X498601Y424934D01*
X498603Y424936D01*
X498605Y424936D01*
X498755Y425037D01*
X512055Y438037D01*
X512058Y438042D01*
X512062Y438045D01*
X512114Y438124D01*
X512167Y438203D01*
X512169Y438208D01*
X512172Y438213D01*
X512188Y438306D01*
X512207Y438399D01*
X512206Y438405D01*
X512207Y438410D01*
X512186Y438504D01*
X512168Y438596D01*
X512165Y438600D01*
X512164Y438606D01*
X512108Y438684D01*
X512055Y438762D01*
X512051Y438765D01*
X512048Y438769D01*
X511967Y438820D01*
X511888Y438871D01*
X511882Y438872D01*
X511877Y438875D01*
X511700Y438907D01*
X477010Y438907D01*
X476759Y439159D01*
X476752Y439163D01*
X476748Y439169D01*
X476669Y439218D01*
X476592Y439270D01*
X476584Y439271D01*
X476577Y439275D01*
X476400Y439307D01*
X470010Y439307D01*
X469959Y439359D01*
X469952Y439363D01*
X469948Y439369D01*
X469869Y439418D01*
X469792Y439470D01*
X469784Y439471D01*
X469777Y439475D01*
X469600Y439507D01*
X465448Y439507D01*
X465443Y439506D01*
X465438Y439507D01*
X465345Y439486D01*
X465251Y439468D01*
X465247Y439465D01*
X465242Y439464D01*
X465164Y439408D01*
X465086Y439355D01*
X465083Y439351D01*
X465079Y439348D01*
X465028Y439266D01*
X464976Y439187D01*
X464976Y439182D01*
X464973Y439177D01*
X464941Y439000D01*
X464941Y432052D01*
X464942Y432044D01*
X464941Y432037D01*
X464962Y431947D01*
X464980Y431856D01*
X464985Y431849D01*
X464987Y431841D01*
X465089Y431693D01*
X466341Y430441D01*
X466348Y430437D01*
X466352Y430431D01*
X466431Y430382D01*
X466508Y430330D01*
X466516Y430329D01*
X466523Y430325D01*
X466700Y430293D01*
X471090Y430293D01*
X476141Y425241D01*
X476148Y425237D01*
X476152Y425231D01*
X476231Y425182D01*
X476308Y425130D01*
X476316Y425129D01*
X476323Y425125D01*
X476500Y425093D01*
X497990Y425093D01*
X498041Y425041D01*
X498043Y425040D01*
X498045Y425038D01*
X498127Y424985D01*
X498208Y424930D01*
X498211Y424930D01*
X498212Y424929D01*
X498309Y424911D01*
X498405Y424893D01*
X498407Y424893D01*
G37*
G36*
X56308Y424894D02*
X56308Y424894D01*
X56315Y424893D01*
X56405Y424914D01*
X56497Y424932D01*
X56503Y424937D01*
X56511Y424939D01*
X56659Y425041D01*
X62510Y430893D01*
X70200Y430893D01*
X70208Y430894D01*
X70215Y430893D01*
X70305Y430914D01*
X70397Y430932D01*
X70403Y430937D01*
X70411Y430939D01*
X70559Y431041D01*
X71511Y431993D01*
X71515Y432000D01*
X71521Y432004D01*
X71570Y432083D01*
X71622Y432160D01*
X71623Y432168D01*
X71627Y432175D01*
X71659Y432352D01*
X71659Y439100D01*
X71659Y439103D01*
X71659Y439106D01*
X71659Y439108D01*
X71659Y439110D01*
X71638Y439203D01*
X71620Y439297D01*
X71617Y439301D01*
X71616Y439306D01*
X71560Y439384D01*
X71507Y439462D01*
X71503Y439465D01*
X71500Y439469D01*
X71418Y439520D01*
X71339Y439572D01*
X71334Y439572D01*
X71329Y439575D01*
X71152Y439607D01*
X59810Y439607D01*
X58059Y441359D01*
X58052Y441363D01*
X58048Y441369D01*
X57969Y441418D01*
X57892Y441470D01*
X57884Y441471D01*
X57877Y441475D01*
X57700Y441507D01*
X41200Y441507D01*
X41192Y441506D01*
X41185Y441507D01*
X41095Y441486D01*
X41004Y441468D01*
X40997Y441463D01*
X40989Y441461D01*
X40841Y441359D01*
X39241Y439759D01*
X39237Y439752D01*
X39231Y439748D01*
X39182Y439669D01*
X39130Y439592D01*
X39129Y439584D01*
X39125Y439577D01*
X39093Y439400D01*
X39093Y427300D01*
X39094Y427292D01*
X39093Y427285D01*
X39114Y427195D01*
X39132Y427104D01*
X39137Y427097D01*
X39139Y427089D01*
X39241Y426941D01*
X41141Y425041D01*
X41148Y425037D01*
X41152Y425031D01*
X41231Y424982D01*
X41308Y424930D01*
X41316Y424929D01*
X41323Y424925D01*
X41500Y424893D01*
X56300Y424893D01*
X56308Y424894D01*
G37*
G36*
X436308Y424894D02*
X436308Y424894D01*
X436315Y424893D01*
X436405Y424914D01*
X436497Y424932D01*
X436503Y424937D01*
X436511Y424939D01*
X436659Y425041D01*
X442510Y430893D01*
X450200Y430893D01*
X450208Y430894D01*
X450215Y430893D01*
X450305Y430914D01*
X450397Y430932D01*
X450403Y430937D01*
X450411Y430939D01*
X450559Y431041D01*
X451511Y431993D01*
X451515Y432000D01*
X451521Y432004D01*
X451570Y432083D01*
X451622Y432160D01*
X451623Y432168D01*
X451627Y432175D01*
X451659Y432352D01*
X451659Y439100D01*
X451659Y439103D01*
X451659Y439106D01*
X451659Y439108D01*
X451659Y439110D01*
X451638Y439203D01*
X451620Y439297D01*
X451617Y439301D01*
X451616Y439306D01*
X451560Y439384D01*
X451507Y439462D01*
X451503Y439465D01*
X451500Y439469D01*
X451418Y439520D01*
X451339Y439572D01*
X451334Y439572D01*
X451329Y439575D01*
X451152Y439607D01*
X439810Y439607D01*
X438059Y441359D01*
X438052Y441363D01*
X438048Y441369D01*
X437969Y441418D01*
X437892Y441470D01*
X437884Y441471D01*
X437877Y441475D01*
X437700Y441507D01*
X421200Y441507D01*
X421192Y441506D01*
X421185Y441507D01*
X421095Y441486D01*
X421004Y441468D01*
X420997Y441463D01*
X420989Y441461D01*
X420841Y441359D01*
X419241Y439759D01*
X419237Y439752D01*
X419231Y439748D01*
X419182Y439669D01*
X419130Y439592D01*
X419129Y439584D01*
X419125Y439577D01*
X419093Y439400D01*
X419093Y427300D01*
X419094Y427292D01*
X419093Y427285D01*
X419114Y427195D01*
X419132Y427104D01*
X419137Y427097D01*
X419139Y427089D01*
X419241Y426941D01*
X421141Y425041D01*
X421148Y425037D01*
X421152Y425031D01*
X421231Y424982D01*
X421308Y424930D01*
X421316Y424929D01*
X421323Y424925D01*
X421500Y424893D01*
X436300Y424893D01*
X436308Y424894D01*
G37*
D10*
X139696Y394622D03*
X139696Y364622D03*
D11*
X338374Y403138D03*
D12*
X338374Y377738D03*
X338374Y352338D03*
D11*
X337534Y435338D03*
D13*
X337534Y460738D03*
X337534Y486138D03*
X337534Y511538D03*
D14*
X312600Y440900D03*
X312600Y459900D03*
X312200Y376400D03*
X312200Y357400D03*
D15*
X172404Y447938D02*
X172404Y466938D01*
X176904Y466938D01*
X176904Y447938D01*
X172404Y447938D01*
X172404Y449363D02*
X176904Y449363D01*
X176904Y450788D02*
X172404Y450788D01*
X172404Y452213D02*
X176904Y452213D01*
X176904Y453638D02*
X172404Y453638D01*
X172404Y455063D02*
X176904Y455063D01*
X176904Y456488D02*
X172404Y456488D01*
X172404Y457913D02*
X176904Y457913D01*
X176904Y459338D02*
X172404Y459338D01*
X172404Y460763D02*
X176904Y460763D01*
X176904Y462188D02*
X172404Y462188D01*
X172404Y463613D02*
X176904Y463613D01*
X176904Y465038D02*
X172404Y465038D01*
X172404Y466463D02*
X176904Y466463D01*
X185104Y466938D02*
X185104Y447938D01*
X185104Y466938D02*
X189604Y466938D01*
X189604Y447938D01*
X185104Y447938D01*
X185104Y449363D02*
X189604Y449363D01*
X189604Y450788D02*
X185104Y450788D01*
X185104Y452213D02*
X189604Y452213D01*
X189604Y453638D02*
X185104Y453638D01*
X185104Y455063D02*
X189604Y455063D01*
X189604Y456488D02*
X185104Y456488D01*
X185104Y457913D02*
X189604Y457913D01*
X189604Y459338D02*
X185104Y459338D01*
X185104Y460763D02*
X189604Y460763D01*
X189604Y462188D02*
X185104Y462188D01*
X185104Y463613D02*
X189604Y463613D01*
X189604Y465038D02*
X185104Y465038D01*
X185104Y466463D02*
X189604Y466463D01*
X197804Y466938D02*
X197804Y447938D01*
X197804Y466938D02*
X202304Y466938D01*
X202304Y447938D01*
X197804Y447938D01*
X197804Y449363D02*
X202304Y449363D01*
X202304Y450788D02*
X197804Y450788D01*
X197804Y452213D02*
X202304Y452213D01*
X202304Y453638D02*
X197804Y453638D01*
X197804Y455063D02*
X202304Y455063D01*
X202304Y456488D02*
X197804Y456488D01*
X197804Y457913D02*
X202304Y457913D01*
X202304Y459338D02*
X197804Y459338D01*
X197804Y460763D02*
X202304Y460763D01*
X202304Y462188D02*
X197804Y462188D01*
X197804Y463613D02*
X202304Y463613D01*
X202304Y465038D02*
X197804Y465038D01*
X197804Y466463D02*
X202304Y466463D01*
X210504Y466938D02*
X210504Y447938D01*
X210504Y466938D02*
X215004Y466938D01*
X215004Y447938D01*
X210504Y447938D01*
X210504Y449363D02*
X215004Y449363D01*
X215004Y450788D02*
X210504Y450788D01*
X210504Y452213D02*
X215004Y452213D01*
X215004Y453638D02*
X210504Y453638D01*
X210504Y455063D02*
X215004Y455063D01*
X215004Y456488D02*
X210504Y456488D01*
X210504Y457913D02*
X215004Y457913D01*
X215004Y459338D02*
X210504Y459338D01*
X210504Y460763D02*
X215004Y460763D01*
X215004Y462188D02*
X210504Y462188D01*
X210504Y463613D02*
X215004Y463613D01*
X215004Y465038D02*
X210504Y465038D01*
X210504Y466463D02*
X215004Y466463D01*
X223204Y466938D02*
X223204Y447938D01*
X223204Y466938D02*
X227704Y466938D01*
X227704Y447938D01*
X223204Y447938D01*
X223204Y449363D02*
X227704Y449363D01*
X227704Y450788D02*
X223204Y450788D01*
X223204Y452213D02*
X227704Y452213D01*
X227704Y453638D02*
X223204Y453638D01*
X223204Y455063D02*
X227704Y455063D01*
X227704Y456488D02*
X223204Y456488D01*
X223204Y457913D02*
X227704Y457913D01*
X227704Y459338D02*
X223204Y459338D01*
X223204Y460763D02*
X227704Y460763D01*
X227704Y462188D02*
X223204Y462188D01*
X223204Y463613D02*
X227704Y463613D01*
X227704Y465038D02*
X223204Y465038D01*
X223204Y466463D02*
X227704Y466463D01*
X235904Y466938D02*
X235904Y447938D01*
X235904Y466938D02*
X240404Y466938D01*
X240404Y447938D01*
X235904Y447938D01*
X235904Y449363D02*
X240404Y449363D01*
X240404Y450788D02*
X235904Y450788D01*
X235904Y452213D02*
X240404Y452213D01*
X240404Y453638D02*
X235904Y453638D01*
X235904Y455063D02*
X240404Y455063D01*
X240404Y456488D02*
X235904Y456488D01*
X235904Y457913D02*
X240404Y457913D01*
X240404Y459338D02*
X235904Y459338D01*
X235904Y460763D02*
X240404Y460763D01*
X240404Y462188D02*
X235904Y462188D01*
X235904Y463613D02*
X240404Y463613D01*
X240404Y465038D02*
X235904Y465038D01*
X235904Y466463D02*
X240404Y466463D01*
X248604Y466938D02*
X248604Y447938D01*
X248604Y466938D02*
X253104Y466938D01*
X253104Y447938D01*
X248604Y447938D01*
X248604Y449363D02*
X253104Y449363D01*
X253104Y450788D02*
X248604Y450788D01*
X248604Y452213D02*
X253104Y452213D01*
X253104Y453638D02*
X248604Y453638D01*
X248604Y455063D02*
X253104Y455063D01*
X253104Y456488D02*
X248604Y456488D01*
X248604Y457913D02*
X253104Y457913D01*
X253104Y459338D02*
X248604Y459338D01*
X248604Y460763D02*
X253104Y460763D01*
X253104Y462188D02*
X248604Y462188D01*
X248604Y463613D02*
X253104Y463613D01*
X253104Y465038D02*
X248604Y465038D01*
X248604Y466463D02*
X253104Y466463D01*
X261304Y466938D02*
X261304Y447938D01*
X261304Y466938D02*
X265804Y466938D01*
X265804Y447938D01*
X261304Y447938D01*
X261304Y449363D02*
X265804Y449363D01*
X265804Y450788D02*
X261304Y450788D01*
X261304Y452213D02*
X265804Y452213D01*
X265804Y453638D02*
X261304Y453638D01*
X261304Y455063D02*
X265804Y455063D01*
X265804Y456488D02*
X261304Y456488D01*
X261304Y457913D02*
X265804Y457913D01*
X265804Y459338D02*
X261304Y459338D01*
X261304Y460763D02*
X265804Y460763D01*
X265804Y462188D02*
X261304Y462188D01*
X261304Y463613D02*
X265804Y463613D01*
X265804Y465038D02*
X261304Y465038D01*
X261304Y466463D02*
X265804Y466463D01*
X274004Y466938D02*
X274004Y447938D01*
X274004Y466938D02*
X278504Y466938D01*
X278504Y447938D01*
X274004Y447938D01*
X274004Y449363D02*
X278504Y449363D01*
X278504Y450788D02*
X274004Y450788D01*
X274004Y452213D02*
X278504Y452213D01*
X278504Y453638D02*
X274004Y453638D01*
X274004Y455063D02*
X278504Y455063D01*
X278504Y456488D02*
X274004Y456488D01*
X274004Y457913D02*
X278504Y457913D01*
X278504Y459338D02*
X274004Y459338D01*
X274004Y460763D02*
X278504Y460763D01*
X278504Y462188D02*
X274004Y462188D01*
X274004Y463613D02*
X278504Y463613D01*
X278504Y465038D02*
X274004Y465038D01*
X274004Y466463D02*
X278504Y466463D01*
X286704Y466938D02*
X286704Y447938D01*
X286704Y466938D02*
X291204Y466938D01*
X291204Y447938D01*
X286704Y447938D01*
X286704Y449363D02*
X291204Y449363D01*
X291204Y450788D02*
X286704Y450788D01*
X286704Y452213D02*
X291204Y452213D01*
X291204Y453638D02*
X286704Y453638D01*
X286704Y455063D02*
X291204Y455063D01*
X291204Y456488D02*
X286704Y456488D01*
X286704Y457913D02*
X291204Y457913D01*
X291204Y459338D02*
X286704Y459338D01*
X286704Y460763D02*
X291204Y460763D01*
X291204Y462188D02*
X286704Y462188D01*
X286704Y463613D02*
X291204Y463613D01*
X291204Y465038D02*
X286704Y465038D01*
X286704Y466463D02*
X291204Y466463D01*
X286704Y373838D02*
X286704Y354838D01*
X286704Y373838D02*
X291204Y373838D01*
X291204Y354838D01*
X286704Y354838D01*
X286704Y356263D02*
X291204Y356263D01*
X291204Y357688D02*
X286704Y357688D01*
X286704Y359113D02*
X291204Y359113D01*
X291204Y360538D02*
X286704Y360538D01*
X286704Y361963D02*
X291204Y361963D01*
X291204Y363388D02*
X286704Y363388D01*
X286704Y364813D02*
X291204Y364813D01*
X291204Y366238D02*
X286704Y366238D01*
X286704Y367663D02*
X291204Y367663D01*
X291204Y369088D02*
X286704Y369088D01*
X286704Y370513D02*
X291204Y370513D01*
X291204Y371938D02*
X286704Y371938D01*
X286704Y373363D02*
X291204Y373363D01*
X274004Y373838D02*
X274004Y354838D01*
X274004Y373838D02*
X278504Y373838D01*
X278504Y354838D01*
X274004Y354838D01*
X274004Y356263D02*
X278504Y356263D01*
X278504Y357688D02*
X274004Y357688D01*
X274004Y359113D02*
X278504Y359113D01*
X278504Y360538D02*
X274004Y360538D01*
X274004Y361963D02*
X278504Y361963D01*
X278504Y363388D02*
X274004Y363388D01*
X274004Y364813D02*
X278504Y364813D01*
X278504Y366238D02*
X274004Y366238D01*
X274004Y367663D02*
X278504Y367663D01*
X278504Y369088D02*
X274004Y369088D01*
X274004Y370513D02*
X278504Y370513D01*
X278504Y371938D02*
X274004Y371938D01*
X274004Y373363D02*
X278504Y373363D01*
X261304Y373838D02*
X261304Y354838D01*
X261304Y373838D02*
X265804Y373838D01*
X265804Y354838D01*
X261304Y354838D01*
X261304Y356263D02*
X265804Y356263D01*
X265804Y357688D02*
X261304Y357688D01*
X261304Y359113D02*
X265804Y359113D01*
X265804Y360538D02*
X261304Y360538D01*
X261304Y361963D02*
X265804Y361963D01*
X265804Y363388D02*
X261304Y363388D01*
X261304Y364813D02*
X265804Y364813D01*
X265804Y366238D02*
X261304Y366238D01*
X261304Y367663D02*
X265804Y367663D01*
X265804Y369088D02*
X261304Y369088D01*
X261304Y370513D02*
X265804Y370513D01*
X265804Y371938D02*
X261304Y371938D01*
X261304Y373363D02*
X265804Y373363D01*
X248604Y373838D02*
X248604Y354838D01*
X248604Y373838D02*
X253104Y373838D01*
X253104Y354838D01*
X248604Y354838D01*
X248604Y356263D02*
X253104Y356263D01*
X253104Y357688D02*
X248604Y357688D01*
X248604Y359113D02*
X253104Y359113D01*
X253104Y360538D02*
X248604Y360538D01*
X248604Y361963D02*
X253104Y361963D01*
X253104Y363388D02*
X248604Y363388D01*
X248604Y364813D02*
X253104Y364813D01*
X253104Y366238D02*
X248604Y366238D01*
X248604Y367663D02*
X253104Y367663D01*
X253104Y369088D02*
X248604Y369088D01*
X248604Y370513D02*
X253104Y370513D01*
X253104Y371938D02*
X248604Y371938D01*
X248604Y373363D02*
X253104Y373363D01*
X235904Y373838D02*
X235904Y354838D01*
X235904Y373838D02*
X240404Y373838D01*
X240404Y354838D01*
X235904Y354838D01*
X235904Y356263D02*
X240404Y356263D01*
X240404Y357688D02*
X235904Y357688D01*
X235904Y359113D02*
X240404Y359113D01*
X240404Y360538D02*
X235904Y360538D01*
X235904Y361963D02*
X240404Y361963D01*
X240404Y363388D02*
X235904Y363388D01*
X235904Y364813D02*
X240404Y364813D01*
X240404Y366238D02*
X235904Y366238D01*
X235904Y367663D02*
X240404Y367663D01*
X240404Y369088D02*
X235904Y369088D01*
X235904Y370513D02*
X240404Y370513D01*
X240404Y371938D02*
X235904Y371938D01*
X235904Y373363D02*
X240404Y373363D01*
X223204Y373838D02*
X223204Y354838D01*
X223204Y373838D02*
X227704Y373838D01*
X227704Y354838D01*
X223204Y354838D01*
X223204Y356263D02*
X227704Y356263D01*
X227704Y357688D02*
X223204Y357688D01*
X223204Y359113D02*
X227704Y359113D01*
X227704Y360538D02*
X223204Y360538D01*
X223204Y361963D02*
X227704Y361963D01*
X227704Y363388D02*
X223204Y363388D01*
X223204Y364813D02*
X227704Y364813D01*
X227704Y366238D02*
X223204Y366238D01*
X223204Y367663D02*
X227704Y367663D01*
X227704Y369088D02*
X223204Y369088D01*
X223204Y370513D02*
X227704Y370513D01*
X227704Y371938D02*
X223204Y371938D01*
X223204Y373363D02*
X227704Y373363D01*
X210504Y373838D02*
X210504Y354838D01*
X210504Y373838D02*
X215004Y373838D01*
X215004Y354838D01*
X210504Y354838D01*
X210504Y356263D02*
X215004Y356263D01*
X215004Y357688D02*
X210504Y357688D01*
X210504Y359113D02*
X215004Y359113D01*
X215004Y360538D02*
X210504Y360538D01*
X210504Y361963D02*
X215004Y361963D01*
X215004Y363388D02*
X210504Y363388D01*
X210504Y364813D02*
X215004Y364813D01*
X215004Y366238D02*
X210504Y366238D01*
X210504Y367663D02*
X215004Y367663D01*
X215004Y369088D02*
X210504Y369088D01*
X210504Y370513D02*
X215004Y370513D01*
X215004Y371938D02*
X210504Y371938D01*
X210504Y373363D02*
X215004Y373363D01*
X197804Y373838D02*
X197804Y354838D01*
X197804Y373838D02*
X202304Y373838D01*
X202304Y354838D01*
X197804Y354838D01*
X197804Y356263D02*
X202304Y356263D01*
X202304Y357688D02*
X197804Y357688D01*
X197804Y359113D02*
X202304Y359113D01*
X202304Y360538D02*
X197804Y360538D01*
X197804Y361963D02*
X202304Y361963D01*
X202304Y363388D02*
X197804Y363388D01*
X197804Y364813D02*
X202304Y364813D01*
X202304Y366238D02*
X197804Y366238D01*
X197804Y367663D02*
X202304Y367663D01*
X202304Y369088D02*
X197804Y369088D01*
X197804Y370513D02*
X202304Y370513D01*
X202304Y371938D02*
X197804Y371938D01*
X197804Y373363D02*
X202304Y373363D01*
X185104Y373838D02*
X185104Y354838D01*
X185104Y373838D02*
X189604Y373838D01*
X189604Y354838D01*
X185104Y354838D01*
X185104Y356263D02*
X189604Y356263D01*
X189604Y357688D02*
X185104Y357688D01*
X185104Y359113D02*
X189604Y359113D01*
X189604Y360538D02*
X185104Y360538D01*
X185104Y361963D02*
X189604Y361963D01*
X189604Y363388D02*
X185104Y363388D01*
X185104Y364813D02*
X189604Y364813D01*
X189604Y366238D02*
X185104Y366238D01*
X185104Y367663D02*
X189604Y367663D01*
X189604Y369088D02*
X185104Y369088D01*
X185104Y370513D02*
X189604Y370513D01*
X189604Y371938D02*
X185104Y371938D01*
X185104Y373363D02*
X189604Y373363D01*
X172404Y373838D02*
X172404Y354838D01*
X172404Y373838D02*
X176904Y373838D01*
X176904Y354838D01*
X172404Y354838D01*
X172404Y356263D02*
X176904Y356263D01*
X176904Y357688D02*
X172404Y357688D01*
X172404Y359113D02*
X176904Y359113D01*
X176904Y360538D02*
X172404Y360538D01*
X172404Y361963D02*
X176904Y361963D01*
X176904Y363388D02*
X172404Y363388D01*
X172404Y364813D02*
X176904Y364813D01*
X176904Y366238D02*
X172404Y366238D01*
X172404Y367663D02*
X176904Y367663D01*
X176904Y369088D02*
X172404Y369088D01*
X172404Y370513D02*
X176904Y370513D01*
X176904Y371938D02*
X172404Y371938D01*
X172404Y373363D02*
X176904Y373363D01*
D14*
X255400Y245000D03*
X255400Y264000D03*
D11*
X218100Y669500D03*
D16*
X192700Y669500D03*
X167300Y669500D03*
X141900Y669500D03*
D17*
X323500Y667300D03*
X184500Y527900D03*
X138700Y696200D03*
X152600Y528200D03*
D18*
X129200Y265000D03*
X154600Y265000D03*
X180000Y265000D03*
X205400Y265000D03*
X230800Y265000D03*
D14*
X128000Y291500D03*
X128000Y310500D03*
D19*
X103500Y289000D03*
X84500Y289000D03*
X313214Y483638D03*
X294214Y483638D03*
X313214Y505638D03*
X294214Y505638D03*
D11*
X324700Y613400D03*
D13*
X324700Y638800D03*
D11*
X35700Y613400D03*
D13*
X35700Y638800D03*
D20*
X70900Y611800D03*
X70900Y647800D03*
D14*
X312300Y418600D03*
X312300Y399600D03*
D21*
X85800Y435634D03*
X80800Y435634D03*
X75800Y435634D03*
X70800Y435634D03*
X70800Y450366D03*
X75800Y450366D03*
X80800Y450366D03*
X85800Y450366D03*
D22*
X96100Y385700D03*
X58100Y385700D03*
D14*
X49800Y432800D03*
X49800Y451800D03*
X103800Y433000D03*
X103800Y452000D03*
X124200Y433000D03*
X124200Y452000D03*
D23*
X65400Y474300D03*
X65400Y493300D03*
X88100Y493800D03*
X88100Y474800D03*
D20*
X150000Y425100D03*
X150000Y461100D03*
X68900Y571500D03*
X68900Y535500D03*
D11*
X35900Y577300D03*
D12*
X35900Y551900D03*
D11*
X324300Y577300D03*
D12*
X324300Y551900D03*
D24*
X95000Y550160D03*
X114000Y550160D03*
X104500Y529840D03*
D19*
X96100Y570600D03*
X115100Y570600D03*
D24*
X277300Y608740D03*
X258300Y608740D03*
X267800Y629060D03*
D19*
X259300Y590600D03*
X278300Y590600D03*
D17*
X230400Y590800D03*
D10*
X519696Y394622D03*
X519696Y364622D03*
D11*
X718374Y403138D03*
D12*
X718374Y377738D03*
X718374Y352338D03*
D11*
X717534Y435338D03*
D13*
X717534Y460738D03*
X717534Y486138D03*
X717534Y511538D03*
D14*
X692600Y440900D03*
X692600Y459900D03*
X692200Y376400D03*
X692200Y357400D03*
D15*
X552404Y447938D02*
X552404Y466938D01*
X556904Y466938D01*
X556904Y447938D01*
X552404Y447938D01*
X552404Y449363D02*
X556904Y449363D01*
X556904Y450788D02*
X552404Y450788D01*
X552404Y452213D02*
X556904Y452213D01*
X556904Y453638D02*
X552404Y453638D01*
X552404Y455063D02*
X556904Y455063D01*
X556904Y456488D02*
X552404Y456488D01*
X552404Y457913D02*
X556904Y457913D01*
X556904Y459338D02*
X552404Y459338D01*
X552404Y460763D02*
X556904Y460763D01*
X556904Y462188D02*
X552404Y462188D01*
X552404Y463613D02*
X556904Y463613D01*
X556904Y465038D02*
X552404Y465038D01*
X552404Y466463D02*
X556904Y466463D01*
X565104Y466938D02*
X565104Y447938D01*
X565104Y466938D02*
X569604Y466938D01*
X569604Y447938D01*
X565104Y447938D01*
X565104Y449363D02*
X569604Y449363D01*
X569604Y450788D02*
X565104Y450788D01*
X565104Y452213D02*
X569604Y452213D01*
X569604Y453638D02*
X565104Y453638D01*
X565104Y455063D02*
X569604Y455063D01*
X569604Y456488D02*
X565104Y456488D01*
X565104Y457913D02*
X569604Y457913D01*
X569604Y459338D02*
X565104Y459338D01*
X565104Y460763D02*
X569604Y460763D01*
X569604Y462188D02*
X565104Y462188D01*
X565104Y463613D02*
X569604Y463613D01*
X569604Y465038D02*
X565104Y465038D01*
X565104Y466463D02*
X569604Y466463D01*
X577804Y466938D02*
X577804Y447938D01*
X577804Y466938D02*
X582304Y466938D01*
X582304Y447938D01*
X577804Y447938D01*
X577804Y449363D02*
X582304Y449363D01*
X582304Y450788D02*
X577804Y450788D01*
X577804Y452213D02*
X582304Y452213D01*
X582304Y453638D02*
X577804Y453638D01*
X577804Y455063D02*
X582304Y455063D01*
X582304Y456488D02*
X577804Y456488D01*
X577804Y457913D02*
X582304Y457913D01*
X582304Y459338D02*
X577804Y459338D01*
X577804Y460763D02*
X582304Y460763D01*
X582304Y462188D02*
X577804Y462188D01*
X577804Y463613D02*
X582304Y463613D01*
X582304Y465038D02*
X577804Y465038D01*
X577804Y466463D02*
X582304Y466463D01*
X590504Y466938D02*
X590504Y447938D01*
X590504Y466938D02*
X595004Y466938D01*
X595004Y447938D01*
X590504Y447938D01*
X590504Y449363D02*
X595004Y449363D01*
X595004Y450788D02*
X590504Y450788D01*
X590504Y452213D02*
X595004Y452213D01*
X595004Y453638D02*
X590504Y453638D01*
X590504Y455063D02*
X595004Y455063D01*
X595004Y456488D02*
X590504Y456488D01*
X590504Y457913D02*
X595004Y457913D01*
X595004Y459338D02*
X590504Y459338D01*
X590504Y460763D02*
X595004Y460763D01*
X595004Y462188D02*
X590504Y462188D01*
X590504Y463613D02*
X595004Y463613D01*
X595004Y465038D02*
X590504Y465038D01*
X590504Y466463D02*
X595004Y466463D01*
X603204Y466938D02*
X603204Y447938D01*
X603204Y466938D02*
X607704Y466938D01*
X607704Y447938D01*
X603204Y447938D01*
X603204Y449363D02*
X607704Y449363D01*
X607704Y450788D02*
X603204Y450788D01*
X603204Y452213D02*
X607704Y452213D01*
X607704Y453638D02*
X603204Y453638D01*
X603204Y455063D02*
X607704Y455063D01*
X607704Y456488D02*
X603204Y456488D01*
X603204Y457913D02*
X607704Y457913D01*
X607704Y459338D02*
X603204Y459338D01*
X603204Y460763D02*
X607704Y460763D01*
X607704Y462188D02*
X603204Y462188D01*
X603204Y463613D02*
X607704Y463613D01*
X607704Y465038D02*
X603204Y465038D01*
X603204Y466463D02*
X607704Y466463D01*
X615904Y466938D02*
X615904Y447938D01*
X615904Y466938D02*
X620404Y466938D01*
X620404Y447938D01*
X615904Y447938D01*
X615904Y449363D02*
X620404Y449363D01*
X620404Y450788D02*
X615904Y450788D01*
X615904Y452213D02*
X620404Y452213D01*
X620404Y453638D02*
X615904Y453638D01*
X615904Y455063D02*
X620404Y455063D01*
X620404Y456488D02*
X615904Y456488D01*
X615904Y457913D02*
X620404Y457913D01*
X620404Y459338D02*
X615904Y459338D01*
X615904Y460763D02*
X620404Y460763D01*
X620404Y462188D02*
X615904Y462188D01*
X615904Y463613D02*
X620404Y463613D01*
X620404Y465038D02*
X615904Y465038D01*
X615904Y466463D02*
X620404Y466463D01*
X628604Y466938D02*
X628604Y447938D01*
X628604Y466938D02*
X633104Y466938D01*
X633104Y447938D01*
X628604Y447938D01*
X628604Y449363D02*
X633104Y449363D01*
X633104Y450788D02*
X628604Y450788D01*
X628604Y452213D02*
X633104Y452213D01*
X633104Y453638D02*
X628604Y453638D01*
X628604Y455063D02*
X633104Y455063D01*
X633104Y456488D02*
X628604Y456488D01*
X628604Y457913D02*
X633104Y457913D01*
X633104Y459338D02*
X628604Y459338D01*
X628604Y460763D02*
X633104Y460763D01*
X633104Y462188D02*
X628604Y462188D01*
X628604Y463613D02*
X633104Y463613D01*
X633104Y465038D02*
X628604Y465038D01*
X628604Y466463D02*
X633104Y466463D01*
X641304Y466938D02*
X641304Y447938D01*
X641304Y466938D02*
X645804Y466938D01*
X645804Y447938D01*
X641304Y447938D01*
X641304Y449363D02*
X645804Y449363D01*
X645804Y450788D02*
X641304Y450788D01*
X641304Y452213D02*
X645804Y452213D01*
X645804Y453638D02*
X641304Y453638D01*
X641304Y455063D02*
X645804Y455063D01*
X645804Y456488D02*
X641304Y456488D01*
X641304Y457913D02*
X645804Y457913D01*
X645804Y459338D02*
X641304Y459338D01*
X641304Y460763D02*
X645804Y460763D01*
X645804Y462188D02*
X641304Y462188D01*
X641304Y463613D02*
X645804Y463613D01*
X645804Y465038D02*
X641304Y465038D01*
X641304Y466463D02*
X645804Y466463D01*
X654004Y466938D02*
X654004Y447938D01*
X654004Y466938D02*
X658504Y466938D01*
X658504Y447938D01*
X654004Y447938D01*
X654004Y449363D02*
X658504Y449363D01*
X658504Y450788D02*
X654004Y450788D01*
X654004Y452213D02*
X658504Y452213D01*
X658504Y453638D02*
X654004Y453638D01*
X654004Y455063D02*
X658504Y455063D01*
X658504Y456488D02*
X654004Y456488D01*
X654004Y457913D02*
X658504Y457913D01*
X658504Y459338D02*
X654004Y459338D01*
X654004Y460763D02*
X658504Y460763D01*
X658504Y462188D02*
X654004Y462188D01*
X654004Y463613D02*
X658504Y463613D01*
X658504Y465038D02*
X654004Y465038D01*
X654004Y466463D02*
X658504Y466463D01*
X666704Y466938D02*
X666704Y447938D01*
X666704Y466938D02*
X671204Y466938D01*
X671204Y447938D01*
X666704Y447938D01*
X666704Y449363D02*
X671204Y449363D01*
X671204Y450788D02*
X666704Y450788D01*
X666704Y452213D02*
X671204Y452213D01*
X671204Y453638D02*
X666704Y453638D01*
X666704Y455063D02*
X671204Y455063D01*
X671204Y456488D02*
X666704Y456488D01*
X666704Y457913D02*
X671204Y457913D01*
X671204Y459338D02*
X666704Y459338D01*
X666704Y460763D02*
X671204Y460763D01*
X671204Y462188D02*
X666704Y462188D01*
X666704Y463613D02*
X671204Y463613D01*
X671204Y465038D02*
X666704Y465038D01*
X666704Y466463D02*
X671204Y466463D01*
X666704Y373838D02*
X666704Y354838D01*
X666704Y373838D02*
X671204Y373838D01*
X671204Y354838D01*
X666704Y354838D01*
X666704Y356263D02*
X671204Y356263D01*
X671204Y357688D02*
X666704Y357688D01*
X666704Y359113D02*
X671204Y359113D01*
X671204Y360538D02*
X666704Y360538D01*
X666704Y361963D02*
X671204Y361963D01*
X671204Y363388D02*
X666704Y363388D01*
X666704Y364813D02*
X671204Y364813D01*
X671204Y366238D02*
X666704Y366238D01*
X666704Y367663D02*
X671204Y367663D01*
X671204Y369088D02*
X666704Y369088D01*
X666704Y370513D02*
X671204Y370513D01*
X671204Y371938D02*
X666704Y371938D01*
X666704Y373363D02*
X671204Y373363D01*
X654004Y373838D02*
X654004Y354838D01*
X654004Y373838D02*
X658504Y373838D01*
X658504Y354838D01*
X654004Y354838D01*
X654004Y356263D02*
X658504Y356263D01*
X658504Y357688D02*
X654004Y357688D01*
X654004Y359113D02*
X658504Y359113D01*
X658504Y360538D02*
X654004Y360538D01*
X654004Y361963D02*
X658504Y361963D01*
X658504Y363388D02*
X654004Y363388D01*
X654004Y364813D02*
X658504Y364813D01*
X658504Y366238D02*
X654004Y366238D01*
X654004Y367663D02*
X658504Y367663D01*
X658504Y369088D02*
X654004Y369088D01*
X654004Y370513D02*
X658504Y370513D01*
X658504Y371938D02*
X654004Y371938D01*
X654004Y373363D02*
X658504Y373363D01*
X641304Y373838D02*
X641304Y354838D01*
X641304Y373838D02*
X645804Y373838D01*
X645804Y354838D01*
X641304Y354838D01*
X641304Y356263D02*
X645804Y356263D01*
X645804Y357688D02*
X641304Y357688D01*
X641304Y359113D02*
X645804Y359113D01*
X645804Y360538D02*
X641304Y360538D01*
X641304Y361963D02*
X645804Y361963D01*
X645804Y363388D02*
X641304Y363388D01*
X641304Y364813D02*
X645804Y364813D01*
X645804Y366238D02*
X641304Y366238D01*
X641304Y367663D02*
X645804Y367663D01*
X645804Y369088D02*
X641304Y369088D01*
X641304Y370513D02*
X645804Y370513D01*
X645804Y371938D02*
X641304Y371938D01*
X641304Y373363D02*
X645804Y373363D01*
X628604Y373838D02*
X628604Y354838D01*
X628604Y373838D02*
X633104Y373838D01*
X633104Y354838D01*
X628604Y354838D01*
X628604Y356263D02*
X633104Y356263D01*
X633104Y357688D02*
X628604Y357688D01*
X628604Y359113D02*
X633104Y359113D01*
X633104Y360538D02*
X628604Y360538D01*
X628604Y361963D02*
X633104Y361963D01*
X633104Y363388D02*
X628604Y363388D01*
X628604Y364813D02*
X633104Y364813D01*
X633104Y366238D02*
X628604Y366238D01*
X628604Y367663D02*
X633104Y367663D01*
X633104Y369088D02*
X628604Y369088D01*
X628604Y370513D02*
X633104Y370513D01*
X633104Y371938D02*
X628604Y371938D01*
X628604Y373363D02*
X633104Y373363D01*
X615904Y373838D02*
X615904Y354838D01*
X615904Y373838D02*
X620404Y373838D01*
X620404Y354838D01*
X615904Y354838D01*
X615904Y356263D02*
X620404Y356263D01*
X620404Y357688D02*
X615904Y357688D01*
X615904Y359113D02*
X620404Y359113D01*
X620404Y360538D02*
X615904Y360538D01*
X615904Y361963D02*
X620404Y361963D01*
X620404Y363388D02*
X615904Y363388D01*
X615904Y364813D02*
X620404Y364813D01*
X620404Y366238D02*
X615904Y366238D01*
X615904Y367663D02*
X620404Y367663D01*
X620404Y369088D02*
X615904Y369088D01*
X615904Y370513D02*
X620404Y370513D01*
X620404Y371938D02*
X615904Y371938D01*
X615904Y373363D02*
X620404Y373363D01*
X603204Y373838D02*
X603204Y354838D01*
X603204Y373838D02*
X607704Y373838D01*
X607704Y354838D01*
X603204Y354838D01*
X603204Y356263D02*
X607704Y356263D01*
X607704Y357688D02*
X603204Y357688D01*
X603204Y359113D02*
X607704Y359113D01*
X607704Y360538D02*
X603204Y360538D01*
X603204Y361963D02*
X607704Y361963D01*
X607704Y363388D02*
X603204Y363388D01*
X603204Y364813D02*
X607704Y364813D01*
X607704Y366238D02*
X603204Y366238D01*
X603204Y367663D02*
X607704Y367663D01*
X607704Y369088D02*
X603204Y369088D01*
X603204Y370513D02*
X607704Y370513D01*
X607704Y371938D02*
X603204Y371938D01*
X603204Y373363D02*
X607704Y373363D01*
X590504Y373838D02*
X590504Y354838D01*
X590504Y373838D02*
X595004Y373838D01*
X595004Y354838D01*
X590504Y354838D01*
X590504Y356263D02*
X595004Y356263D01*
X595004Y357688D02*
X590504Y357688D01*
X590504Y359113D02*
X595004Y359113D01*
X595004Y360538D02*
X590504Y360538D01*
X590504Y361963D02*
X595004Y361963D01*
X595004Y363388D02*
X590504Y363388D01*
X590504Y364813D02*
X595004Y364813D01*
X595004Y366238D02*
X590504Y366238D01*
X590504Y367663D02*
X595004Y367663D01*
X595004Y369088D02*
X590504Y369088D01*
X590504Y370513D02*
X595004Y370513D01*
X595004Y371938D02*
X590504Y371938D01*
X590504Y373363D02*
X595004Y373363D01*
X577804Y373838D02*
X577804Y354838D01*
X577804Y373838D02*
X582304Y373838D01*
X582304Y354838D01*
X577804Y354838D01*
X577804Y356263D02*
X582304Y356263D01*
X582304Y357688D02*
X577804Y357688D01*
X577804Y359113D02*
X582304Y359113D01*
X582304Y360538D02*
X577804Y360538D01*
X577804Y361963D02*
X582304Y361963D01*
X582304Y363388D02*
X577804Y363388D01*
X577804Y364813D02*
X582304Y364813D01*
X582304Y366238D02*
X577804Y366238D01*
X577804Y367663D02*
X582304Y367663D01*
X582304Y369088D02*
X577804Y369088D01*
X577804Y370513D02*
X582304Y370513D01*
X582304Y371938D02*
X577804Y371938D01*
X577804Y373363D02*
X582304Y373363D01*
X565104Y373838D02*
X565104Y354838D01*
X565104Y373838D02*
X569604Y373838D01*
X569604Y354838D01*
X565104Y354838D01*
X565104Y356263D02*
X569604Y356263D01*
X569604Y357688D02*
X565104Y357688D01*
X565104Y359113D02*
X569604Y359113D01*
X569604Y360538D02*
X565104Y360538D01*
X565104Y361963D02*
X569604Y361963D01*
X569604Y363388D02*
X565104Y363388D01*
X565104Y364813D02*
X569604Y364813D01*
X569604Y366238D02*
X565104Y366238D01*
X565104Y367663D02*
X569604Y367663D01*
X569604Y369088D02*
X565104Y369088D01*
X565104Y370513D02*
X569604Y370513D01*
X569604Y371938D02*
X565104Y371938D01*
X565104Y373363D02*
X569604Y373363D01*
X552404Y373838D02*
X552404Y354838D01*
X552404Y373838D02*
X556904Y373838D01*
X556904Y354838D01*
X552404Y354838D01*
X552404Y356263D02*
X556904Y356263D01*
X556904Y357688D02*
X552404Y357688D01*
X552404Y359113D02*
X556904Y359113D01*
X556904Y360538D02*
X552404Y360538D01*
X552404Y361963D02*
X556904Y361963D01*
X556904Y363388D02*
X552404Y363388D01*
X552404Y364813D02*
X556904Y364813D01*
X556904Y366238D02*
X552404Y366238D01*
X552404Y367663D02*
X556904Y367663D01*
X556904Y369088D02*
X552404Y369088D01*
X552404Y370513D02*
X556904Y370513D01*
X556904Y371938D02*
X552404Y371938D01*
X552404Y373363D02*
X556904Y373363D01*
D14*
X635400Y245000D03*
X635400Y264000D03*
D11*
X598100Y669500D03*
D16*
X572700Y669500D03*
X547300Y669500D03*
X521900Y669500D03*
D17*
X703500Y667300D03*
X564500Y527900D03*
X518700Y696200D03*
X532600Y528200D03*
D18*
X509200Y265000D03*
X534600Y265000D03*
X560000Y265000D03*
X585400Y265000D03*
X610800Y265000D03*
D14*
X508000Y291500D03*
X508000Y310500D03*
D19*
X483500Y289000D03*
X464500Y289000D03*
X693214Y483638D03*
X674214Y483638D03*
X693214Y505638D03*
X674214Y505638D03*
D11*
X704700Y613400D03*
D13*
X704700Y638800D03*
D11*
X415700Y613400D03*
D13*
X415700Y638800D03*
D20*
X450900Y611800D03*
X450900Y647800D03*
D14*
X692300Y418600D03*
X692300Y399600D03*
D21*
X465800Y435634D03*
X460800Y435634D03*
X455800Y435634D03*
X450800Y435634D03*
X450800Y450366D03*
X455800Y450366D03*
X460800Y450366D03*
X465800Y450366D03*
D22*
X476100Y385700D03*
X438100Y385700D03*
D14*
X429800Y432800D03*
X429800Y451800D03*
X483800Y433000D03*
X483800Y452000D03*
X504200Y433000D03*
X504200Y452000D03*
D23*
X445400Y474300D03*
X445400Y493300D03*
X468100Y493800D03*
X468100Y474800D03*
D20*
X530000Y425100D03*
X530000Y461100D03*
X448900Y571500D03*
X448900Y535500D03*
D11*
X415900Y577300D03*
D12*
X415900Y551900D03*
D11*
X704300Y577300D03*
D12*
X704300Y551900D03*
D24*
X475000Y550160D03*
X494000Y550160D03*
X484500Y529840D03*
D19*
X476100Y570600D03*
X495100Y570600D03*
D24*
X657300Y608740D03*
X638300Y608740D03*
X647800Y629060D03*
D19*
X639300Y590600D03*
X658300Y590600D03*
D17*
X610400Y590800D03*
D25*
X49800Y451800D02*
X39400Y462200D01*
X39400Y473500D02*
X39400Y495307D01*
X39400Y473500D02*
X39400Y462200D01*
D26*
X174960Y363080D02*
X174960Y327520D01*
X185120Y317360D01*
X174960Y363080D02*
X174654Y364338D01*
X159420Y246240D02*
X253700Y246240D01*
X159420Y246240D02*
X154600Y251060D01*
X253700Y246240D02*
X255400Y245000D01*
X154600Y251060D02*
X154600Y265000D01*
X139513Y363668D02*
X139696Y364622D01*
D27*
X185120Y317360D03*
X103840Y474840D03*
X39400Y473500D03*
X35900Y373600D03*
D28*
X35720Y373420D01*
X35720Y366596D01*
X48816Y353500D01*
X127900Y353500D01*
D29*
X35700Y638800D02*
X35700Y657900D01*
X47300Y669500D02*
X141900Y669500D01*
X47300Y669500D02*
X35700Y657900D01*
X127900Y353500D02*
X127900Y310600D01*
X128000Y310500D01*
D28*
X154600Y291600D02*
X154600Y265000D01*
X135700Y310500D02*
X128000Y310500D01*
X135700Y310500D02*
X154600Y291600D01*
X128000Y310500D02*
X126100Y308600D01*
X99200Y308600D01*
X84500Y293900D01*
X84500Y289000D01*
X184500Y527900D02*
X194900Y538300D01*
X197100Y538300D01*
D27*
X197100Y538300D03*
D29*
X305300Y638800D02*
X324700Y638800D01*
X246600Y697500D02*
X169000Y697500D01*
X151400Y679900D01*
X151400Y679100D02*
X141900Y669600D01*
X141900Y669500D01*
X246600Y697500D02*
X305300Y638800D01*
X151400Y679100D02*
X151400Y679900D01*
X151400Y683500D01*
X138700Y696200D01*
D25*
X88100Y506000D02*
X88100Y493800D01*
X57794Y513700D02*
X39400Y495307D01*
X57794Y513700D02*
X80400Y513700D01*
X88100Y506000D01*
D29*
X138068Y363668D02*
X127900Y353500D01*
X138068Y363668D02*
X139513Y363668D01*
D27*
X370000Y322900D03*
D26*
X65180Y343160D02*
X49300Y343160D01*
X14940Y377520D01*
X14940Y510220D01*
X63380Y558660D01*
X80980Y558660D01*
X83520Y561200D01*
X83520Y578980D01*
X95720Y591180D01*
X166660Y644340D02*
X190200Y667880D01*
X192700Y669500D01*
D27*
X175720Y409800D03*
X65180Y343160D03*
D26*
X95720Y591180D02*
X95720Y620080D01*
X63600Y629100D02*
X54100Y638600D01*
X54100Y656400D01*
X122260Y644340D02*
X166660Y644340D01*
X95720Y620080D02*
X86700Y629100D01*
X63600Y629100D01*
X54100Y656400D02*
X58000Y660300D01*
X106300Y660300D01*
X122260Y644340D01*
X288954Y384246D02*
X288954Y364338D01*
X263400Y409800D02*
X175720Y409800D01*
X263400Y409800D02*
X288954Y384246D01*
X288954Y364338D02*
X289492Y363800D01*
X294300Y363800D01*
X300700Y357400D01*
X312200Y357400D01*
X263454Y457538D02*
X263454Y476397D01*
X263454Y457538D02*
X263554Y457438D01*
X263454Y476397D02*
X268132Y481075D01*
X268132Y489132D01*
X273400Y494400D01*
X282820Y494400D01*
X294058Y505638D02*
X294214Y505638D01*
X294058Y505638D02*
X282820Y494400D01*
X276254Y478254D02*
X276254Y457438D01*
X276254Y478254D02*
X282200Y484200D01*
X293652Y484200D01*
X294214Y483638D01*
X289260Y459600D02*
X299420Y459600D01*
X312120Y459600D01*
X312600Y459900D01*
X289260Y459600D02*
X288954Y457438D01*
X299420Y459600D02*
X299420Y469760D01*
X279100Y502780D02*
X279100Y518600D01*
X291800Y531300D01*
X291800Y584060D01*
D27*
X299420Y469760D03*
X279100Y502780D03*
X291800Y584060D03*
D26*
X200900Y362540D02*
X200900Y267808D01*
X200900Y362540D02*
X200360Y363080D01*
X200900Y267808D02*
X205400Y265000D01*
X200360Y363080D02*
X200054Y364338D01*
X177500Y317360D02*
X177500Y266560D01*
X177500Y317360D02*
X167340Y327520D01*
X167340Y375780D01*
X172420Y380860D01*
X207200Y380860D01*
X212720Y375340D01*
X212720Y364358D01*
X177500Y266560D02*
X180000Y265000D01*
X212754Y364338D02*
X212720Y364358D01*
D28*
X65400Y493300D02*
X60700Y488600D01*
X51200Y488600D01*
D27*
X51200Y488600D03*
X114000Y418900D03*
D26*
X103840Y289420D02*
X126700Y289420D01*
X103840Y289420D02*
X103500Y289000D01*
X126700Y289420D02*
X128000Y291500D01*
X140980Y178620D02*
X157180Y162420D01*
X140980Y178620D02*
X129240Y178620D01*
X129240Y228460D02*
X129240Y264020D01*
X129240Y228460D02*
X129240Y178620D01*
X129240Y264020D02*
X129200Y265000D01*
X129240Y228460D02*
X131780Y228460D01*
X213060Y159880D02*
X223220Y159880D01*
X213060Y159880D02*
X207980Y154800D01*
X164800Y154800D01*
X157180Y162420D01*
X129240Y266560D02*
X129240Y289420D01*
X128000Y291500D01*
X129240Y266560D02*
X129200Y265000D01*
D28*
X258780Y591680D02*
X258780Y606920D01*
D26*
X258300Y608740D01*
X258780Y591680D02*
X259300Y590600D01*
D29*
X256240Y609460D02*
X243540Y609460D01*
D26*
X256240Y609460D02*
X258300Y608740D01*
X296880Y378320D02*
X312120Y378320D01*
X312200Y376400D01*
X299420Y426580D02*
X312120Y439280D01*
X299420Y426580D02*
X296880Y426580D01*
X312120Y439280D02*
X312600Y440900D01*
X140880Y178720D02*
X157180Y162420D01*
X111460Y166260D02*
X111460Y149720D01*
X111460Y166260D02*
X123920Y178720D01*
X140880Y178720D01*
D27*
X157180Y162420D03*
X131780Y228460D03*
X223220Y159880D03*
X243540Y609460D03*
X296880Y378320D03*
X296880Y426580D03*
X111460Y149720D03*
D29*
X139696Y394622D02*
X125459Y408859D01*
X125459Y422900D01*
X125459Y431741D01*
X124200Y433000D01*
X114000Y432600D02*
X114000Y418900D01*
X125459Y422900D02*
X147800Y422900D01*
X150000Y425100D01*
X230400Y590800D02*
X259100Y590800D01*
X259300Y590600D01*
D26*
X276120Y347400D02*
X274020Y345300D01*
X276120Y347400D02*
X276120Y364263D01*
X276254Y364338D01*
D27*
X274020Y345300D03*
D26*
X263860Y342760D02*
X263860Y363080D01*
X263860Y342760D02*
X279240Y327380D01*
X290720Y327380D01*
X286720Y241160D02*
X207980Y162420D01*
X202900Y162420D01*
X263860Y363080D02*
X263554Y364338D01*
D27*
X290720Y327380D03*
X286720Y241160D03*
X202900Y162420D03*
D26*
X147020Y88760D02*
X147020Y35420D01*
D27*
X147020Y35420D03*
X147020Y88760D03*
D26*
X251160Y365620D02*
X251160Y398640D01*
X248620Y401180D01*
X195280Y401180D01*
X78440Y304660D02*
X73360Y299580D01*
X135790Y112690D02*
X169880Y78600D01*
X169880Y55740D01*
X250854Y364338D02*
X251160Y365620D01*
D27*
X195280Y401180D03*
X78440Y304660D03*
X169880Y55740D03*
D26*
X135790Y112690D02*
X94710Y112690D01*
X73360Y134040D01*
X73360Y299580D01*
X187660Y352920D02*
X187660Y363080D01*
X187660Y352920D02*
X192740Y347840D01*
X218140Y335140D02*
X218140Y322440D01*
X268940Y271640D01*
X268940Y231000D01*
X238460Y200520D01*
X149560Y200520D01*
X187660Y363080D02*
X187354Y364338D01*
D27*
X192740Y347840D03*
X218140Y335140D03*
X149560Y200520D03*
D26*
X238460Y351700D02*
X238460Y363080D01*
X273600Y316560D02*
X281400Y316560D01*
X273600Y316560D02*
X238460Y351700D01*
X241000Y231000D02*
X256240Y231000D01*
X241000Y231000D02*
X238460Y233540D01*
X238460Y363080D02*
X238154Y364338D01*
D27*
X281400Y316560D03*
X256240Y231000D03*
X238460Y233540D03*
D26*
X154019Y528186D02*
X152600Y528200D01*
X314660Y418960D02*
X322280Y418960D01*
X337520Y434200D01*
X314660Y418960D02*
X312300Y418600D01*
X337520Y434200D02*
X337534Y435338D01*
X174960Y457132D02*
X174654Y457438D01*
D28*
X174960Y457132D02*
X174960Y423640D01*
D29*
X172420Y459600D02*
X152100Y459600D01*
D26*
X150000Y461100D01*
X172420Y459600D02*
X174654Y457438D01*
X191240Y418960D02*
X312120Y418960D01*
X191240Y418960D02*
X186560Y423640D01*
X174960Y423640D01*
X312120Y418960D02*
X312300Y418600D01*
D27*
X174960Y423640D03*
D29*
X150000Y461100D02*
X150000Y511700D01*
X150000Y524168D01*
D28*
X154019Y528186D01*
D29*
X266500Y629060D02*
X267800Y629060D01*
X266500Y629060D02*
X266400Y628960D01*
X227060Y628960D01*
X131300Y519300D02*
X139000Y511600D01*
X149900Y511600D01*
D28*
X150000Y511700D01*
D29*
X166200Y568100D02*
X227060Y628960D01*
X166200Y568100D02*
X161650Y563550D01*
X131300Y533200D01*
X131300Y519300D01*
X152900Y528200D02*
X168500Y543800D01*
X152900Y528200D02*
X152600Y528200D01*
X168500Y543800D02*
X168500Y556700D01*
X161650Y563550D01*
X86500Y647800D02*
X70900Y647800D01*
X86500Y647800D02*
X166200Y568100D01*
D27*
X370000Y390000D03*
D30*
X370000Y403900D01*
X370000Y418400D01*
X354200Y434200D02*
X337520Y434200D01*
X354200Y434200D02*
X370000Y418400D01*
D26*
X253700Y264020D02*
X230840Y264020D01*
X253700Y264020D02*
X255400Y264000D01*
X230840Y264020D02*
X230800Y265000D01*
X248620Y426580D02*
X248620Y457060D01*
X243540Y393560D02*
X230840Y380860D01*
X215600Y345300D02*
X210520Y340220D01*
X210520Y284340D01*
X228300Y266560D01*
X248620Y457060D02*
X250854Y457438D01*
X228300Y266560D02*
X230800Y265000D01*
D27*
X248620Y426580D03*
X243540Y393560D03*
X230840Y380860D03*
X215600Y345300D03*
D26*
X212720Y442640D02*
X212720Y457432D01*
X212720Y442640D02*
X209360Y439280D01*
X200360Y439280D01*
X164800Y436740D02*
X159720Y441820D01*
X164800Y436740D02*
X164800Y384260D01*
X162040Y381500D01*
X162040Y320640D01*
X151840Y310440D01*
X212720Y457432D02*
X212754Y457438D01*
D27*
X200360Y439280D03*
X159720Y441820D03*
X151840Y310440D03*
D26*
X187320Y457471D02*
X187320Y470620D01*
X180360Y477580D01*
X160520Y477580D01*
X187320Y457471D02*
X187354Y457438D01*
D27*
X160520Y477580D03*
D26*
X324820Y665340D02*
X323500Y667300D01*
D29*
X35900Y613200D02*
X35700Y613400D01*
X35900Y613200D02*
X35900Y577300D01*
X342900Y630000D02*
X342900Y647260D01*
X342900Y630000D02*
X326300Y613400D01*
X324700Y613400D01*
X342900Y647260D02*
X324820Y665340D01*
X324700Y613400D02*
X324300Y613000D01*
X324300Y577300D01*
D26*
X314660Y482460D02*
X337520Y459600D01*
X314660Y482460D02*
X313214Y483638D01*
X337534Y460738D02*
X337520Y459600D01*
X323440Y505320D02*
X314660Y505320D01*
X323440Y505320D02*
X337483Y491277D01*
X314660Y505320D02*
X313214Y505638D01*
X337483Y491277D02*
X337534Y486138D01*
X225760Y363080D02*
X225760Y350380D01*
X270800Y305340D01*
X292480Y305340D01*
X337520Y350380D01*
X225760Y363080D02*
X225454Y364338D01*
X337520Y350380D02*
X338374Y352338D01*
X248620Y472300D02*
X256240Y479920D01*
X248620Y472300D02*
X241280Y472300D01*
X238460Y469480D01*
X238460Y459600D01*
X238154Y457438D01*
D27*
X256240Y479920D03*
D26*
X75800Y459000D02*
X75800Y450366D01*
X75800Y459000D02*
X77200Y460400D01*
D27*
X77200Y460400D03*
X238300Y439000D03*
D26*
X238154Y439146D01*
X238154Y457438D01*
X314660Y401180D02*
X337520Y401180D01*
X314660Y401180D02*
X312300Y399600D01*
X337520Y401180D02*
X338374Y403138D01*
X88100Y474800D02*
X87600Y474300D01*
X65400Y474300D01*
X88100Y474800D02*
X88100Y461800D01*
X85800Y459500D02*
X85800Y450366D01*
X85800Y459500D02*
X88100Y461800D01*
X70800Y456000D02*
X66900Y459900D01*
X66900Y460500D01*
D27*
X66900Y460500D03*
D26*
X70800Y456000D02*
X70800Y450366D01*
D25*
X49800Y432800D02*
X42900Y432800D01*
X25000Y450700D01*
X25000Y503500D01*
D28*
X45020Y432800D02*
X49800Y432800D01*
D29*
X72460Y531620D02*
X103165Y531620D01*
D26*
X72460Y531620D02*
X70820Y533260D01*
X103165Y531620D02*
X104500Y529840D01*
X70820Y533260D02*
X68900Y535500D01*
D25*
X68280Y533260D02*
X54760Y533260D01*
X25000Y503500D01*
D26*
X68280Y533260D02*
X68900Y535500D01*
X70820Y573900D02*
X70820Y609460D01*
X70820Y573900D02*
X68900Y571500D01*
X70820Y609460D02*
X70900Y611800D01*
X114000Y568820D02*
X114000Y550160D01*
X114000Y568820D02*
X115100Y570600D01*
X68900Y570960D02*
X68900Y571500D01*
D28*
X68900Y570960D02*
X54960Y570960D01*
X35900Y551900D01*
D29*
X116000Y552160D02*
X126140Y552160D01*
D26*
X116000Y552160D02*
X114000Y550160D01*
X126140Y552160D02*
X126300Y552000D01*
D27*
X126300Y552000D03*
D26*
X96220Y551040D02*
X96220Y568820D01*
X96220Y551040D02*
X95000Y550160D01*
X96220Y568820D02*
X96100Y570600D01*
X207000Y581900D02*
X207000Y486900D01*
X207000Y581900D02*
X203600Y585300D01*
D27*
X203600Y585300D03*
X116820Y591622D03*
D26*
X96100Y580200D02*
X96100Y570600D01*
X107522Y591622D02*
X116820Y591622D01*
X107522Y591622D02*
X96100Y580200D01*
X200054Y479954D02*
X207000Y486900D01*
X200054Y479954D02*
X200054Y457438D01*
X276560Y591680D02*
X276560Y606920D01*
X277300Y608740D01*
X276560Y591680D02*
X278300Y590600D01*
X276560Y589140D02*
X276560Y526280D01*
X225760Y475480D01*
X225760Y459600D01*
X276560Y589140D02*
X278300Y590600D01*
X225760Y459600D02*
X225454Y457438D01*
D25*
X419400Y462200D02*
X429800Y451800D01*
X419400Y473500D02*
X419400Y495307D01*
X419400Y473500D02*
X419400Y462200D01*
D26*
X554960Y363080D02*
X554960Y327520D01*
X565120Y317360D01*
X554960Y363080D02*
X554654Y364338D01*
X539420Y246240D02*
X633700Y246240D01*
X539420Y246240D02*
X534600Y251060D01*
X633700Y246240D02*
X635400Y245000D01*
X534600Y251060D02*
X534600Y265000D01*
X519513Y363668D02*
X519696Y364622D01*
D27*
X565120Y317360D03*
X483840Y474840D03*
X419400Y473500D03*
X415900Y373600D03*
D28*
X415720Y373420D01*
X415720Y366596D01*
X428816Y353500D01*
X507900Y353500D01*
D29*
X415700Y638800D02*
X415700Y657900D01*
X427300Y669500D02*
X521900Y669500D01*
X427300Y669500D02*
X415700Y657900D01*
X507900Y353500D02*
X507900Y310600D01*
X508000Y310500D01*
D28*
X534600Y291600D02*
X534600Y265000D01*
X515700Y310500D02*
X508000Y310500D01*
X515700Y310500D02*
X534600Y291600D01*
X508000Y310500D02*
X506100Y308600D01*
X479200Y308600D01*
X464500Y293900D01*
X464500Y289000D01*
X564500Y527900D02*
X574900Y538300D01*
X577100Y538300D01*
D27*
X577100Y538300D03*
D29*
X685300Y638800D02*
X704700Y638800D01*
X626600Y697500D02*
X549000Y697500D01*
X531400Y679900D01*
X531400Y679100D02*
X521900Y669600D01*
X521900Y669500D01*
X626600Y697500D02*
X685300Y638800D01*
X531400Y679100D02*
X531400Y679900D01*
X531400Y683500D01*
X518700Y696200D01*
D25*
X468100Y506000D02*
X468100Y493800D01*
X437794Y513700D02*
X419400Y495307D01*
X437794Y513700D02*
X460400Y513700D01*
X468100Y506000D01*
D29*
X518068Y363668D02*
X507900Y353500D01*
X518068Y363668D02*
X519513Y363668D01*
D27*
X369900Y451600D03*
D26*
X429300Y343160D02*
X445180Y343160D01*
X429300Y343160D02*
X394940Y377520D01*
X394940Y510220D01*
X443380Y558660D01*
X460980Y558660D01*
X463520Y561200D01*
X463520Y578980D01*
X475720Y591180D01*
X546660Y644340D02*
X570200Y667880D01*
X572700Y669500D01*
D27*
X555720Y409800D03*
X445180Y343160D03*
D26*
X475720Y591180D02*
X475720Y620080D01*
X443600Y629100D02*
X434100Y638600D01*
X434100Y656400D01*
X502260Y644340D02*
X546660Y644340D01*
X475720Y620080D02*
X466700Y629100D01*
X443600Y629100D01*
X434100Y656400D02*
X438000Y660300D01*
X486300Y660300D01*
X502260Y644340D01*
X668954Y384246D02*
X668954Y364338D01*
X643400Y409800D02*
X555720Y409800D01*
X643400Y409800D02*
X668954Y384246D01*
X668954Y364338D02*
X669492Y363800D01*
X674300Y363800D01*
X680700Y357400D01*
X692200Y357400D01*
X643454Y457538D02*
X643454Y476397D01*
X643454Y457538D02*
X643554Y457438D01*
X643454Y476397D02*
X648132Y481075D01*
X648132Y489132D01*
X653400Y494400D01*
X662820Y494400D01*
X674058Y505638D02*
X674214Y505638D01*
X674058Y505638D02*
X662820Y494400D01*
X656254Y478254D02*
X656254Y457438D01*
X656254Y478254D02*
X662200Y484200D01*
X673652Y484200D01*
X674214Y483638D01*
X669260Y459600D02*
X679420Y459600D01*
X692120Y459600D01*
X692600Y459900D01*
X669260Y459600D02*
X668954Y457438D01*
X679420Y459600D02*
X679420Y469760D01*
X659100Y502780D02*
X659100Y518600D01*
X671800Y531300D01*
X671800Y584060D01*
D27*
X679420Y469760D03*
X659100Y502780D03*
X671800Y584060D03*
D26*
X580900Y362540D02*
X580900Y267808D01*
X580900Y362540D02*
X580360Y363080D01*
X580900Y267808D02*
X585400Y265000D01*
X580360Y363080D02*
X580054Y364338D01*
X557500Y317360D02*
X557500Y266560D01*
X557500Y317360D02*
X547340Y327520D01*
X547340Y375780D01*
X552420Y380860D01*
X587200Y380860D01*
X592720Y375340D01*
X592720Y364358D01*
X557500Y266560D02*
X560000Y265000D01*
X592754Y364338D02*
X592720Y364358D01*
D28*
X445400Y493300D02*
X440700Y488600D01*
X431200Y488600D01*
D27*
X431200Y488600D03*
X494000Y418900D03*
D26*
X483840Y289420D02*
X506700Y289420D01*
X483840Y289420D02*
X483500Y289000D01*
X506700Y289420D02*
X508000Y291500D01*
X520980Y178620D02*
X537180Y162420D01*
X520980Y178620D02*
X509240Y178620D01*
X509240Y228460D02*
X509240Y264020D01*
X509240Y228460D02*
X509240Y178620D01*
X509240Y264020D02*
X509200Y265000D01*
X509240Y228460D02*
X511780Y228460D01*
X593060Y159880D02*
X603220Y159880D01*
X593060Y159880D02*
X587980Y154800D01*
X544800Y154800D01*
X537180Y162420D01*
X509240Y266560D02*
X509240Y289420D01*
X508000Y291500D01*
X509240Y266560D02*
X509200Y265000D01*
D28*
X638780Y591680D02*
X638780Y606920D01*
D26*
X638300Y608740D01*
X638780Y591680D02*
X639300Y590600D01*
D29*
X636240Y609460D02*
X623540Y609460D01*
D26*
X636240Y609460D02*
X638300Y608740D01*
X676880Y378320D02*
X692120Y378320D01*
X692200Y376400D01*
X679420Y426580D02*
X692120Y439280D01*
X679420Y426580D02*
X676880Y426580D01*
X692120Y439280D02*
X692600Y440900D01*
X520880Y178720D02*
X537180Y162420D01*
X491460Y166260D02*
X491460Y149720D01*
X491460Y166260D02*
X503920Y178720D01*
X520880Y178720D01*
D27*
X537180Y162420D03*
X511780Y228460D03*
X603220Y159880D03*
X623540Y609460D03*
X676880Y378320D03*
X676880Y426580D03*
X491460Y149720D03*
D29*
X519696Y394622D02*
X505459Y408859D01*
X505459Y422900D01*
X505459Y431741D01*
X504200Y433000D01*
X494000Y432600D02*
X494000Y418900D01*
X505459Y422900D02*
X527800Y422900D01*
X530000Y425100D01*
X610400Y590800D02*
X639100Y590800D01*
X639300Y590600D01*
D27*
X370000Y310000D03*
D26*
X654020Y345300D02*
X656120Y347400D01*
X656120Y364263D01*
X656254Y364338D01*
D27*
X654020Y345300D03*
D26*
X643860Y342760D02*
X643860Y363080D01*
X643860Y342760D02*
X659240Y327380D01*
X670720Y327380D01*
X666720Y241160D02*
X587980Y162420D01*
X582900Y162420D01*
X643860Y363080D02*
X643554Y364338D01*
D27*
X670720Y327380D03*
X666720Y241160D03*
X582900Y162420D03*
D26*
X527020Y88760D02*
X527020Y35420D01*
D27*
X527020Y35420D03*
X527020Y88760D03*
D26*
X631160Y365620D02*
X631160Y398640D01*
X628620Y401180D01*
X575280Y401180D01*
X458440Y304660D02*
X453360Y299580D01*
X515790Y112690D02*
X549880Y78600D01*
X549880Y55740D01*
X630854Y364338D02*
X631160Y365620D01*
D27*
X575280Y401180D03*
X458440Y304660D03*
X549880Y55740D03*
D26*
X515790Y112690D02*
X474710Y112690D01*
X453360Y134040D01*
X453360Y299580D01*
X567660Y352920D02*
X567660Y363080D01*
X567660Y352920D02*
X572740Y347840D01*
X598140Y335140D02*
X598140Y322440D01*
X648940Y271640D01*
X648940Y231000D01*
X618460Y200520D01*
X529560Y200520D01*
X567660Y363080D02*
X567354Y364338D01*
D27*
X572740Y347840D03*
X598140Y335140D03*
X529560Y200520D03*
D26*
X618460Y351700D02*
X618460Y363080D01*
X653600Y316560D02*
X661400Y316560D01*
X653600Y316560D02*
X618460Y351700D01*
X621000Y231000D02*
X636240Y231000D01*
X621000Y231000D02*
X618460Y233540D01*
X618460Y363080D02*
X618154Y364338D01*
D27*
X661400Y316560D03*
X636240Y231000D03*
X618460Y233540D03*
D26*
X534019Y528186D02*
X532600Y528200D01*
X694660Y418960D02*
X702280Y418960D01*
X717520Y434200D01*
X694660Y418960D02*
X692300Y418600D01*
X717520Y434200D02*
X717534Y435338D01*
X554960Y457132D02*
X554654Y457438D01*
D28*
X554960Y457132D02*
X554960Y423640D01*
D29*
X552420Y459600D02*
X532100Y459600D01*
D26*
X530000Y461100D01*
X552420Y459600D02*
X554654Y457438D01*
X571240Y418960D02*
X692120Y418960D01*
X571240Y418960D02*
X566560Y423640D01*
X554960Y423640D01*
X692120Y418960D02*
X692300Y418600D01*
D27*
X554960Y423640D03*
D29*
X530000Y461100D02*
X530000Y511700D01*
X530000Y524168D01*
D28*
X534019Y528186D01*
D29*
X646500Y629060D02*
X647800Y629060D01*
X646500Y629060D02*
X646400Y628960D01*
X607060Y628960D01*
X511300Y519300D02*
X519000Y511600D01*
X529900Y511600D01*
D28*
X530000Y511700D01*
D29*
X546200Y568100D02*
X607060Y628960D01*
X546200Y568100D02*
X541650Y563550D01*
X511300Y533200D01*
X511300Y519300D01*
X532900Y528200D02*
X548500Y543800D01*
X532900Y528200D02*
X532600Y528200D01*
X548500Y543800D02*
X548500Y556700D01*
X541650Y563550D01*
X466500Y647800D02*
X450900Y647800D01*
X466500Y647800D02*
X546200Y568100D01*
D26*
X610840Y264020D02*
X633700Y264020D01*
X635400Y264000D01*
X610840Y264020D02*
X610800Y265000D01*
X628620Y426580D02*
X628620Y457060D01*
X623540Y393560D02*
X610840Y380860D01*
X595600Y345300D02*
X590520Y340220D01*
X590520Y284340D01*
X608300Y266560D01*
X628620Y457060D02*
X630854Y457438D01*
X608300Y266560D02*
X610800Y265000D01*
D27*
X628620Y426580D03*
X623540Y393560D03*
X610840Y380860D03*
X595600Y345300D03*
D26*
X592720Y442640D02*
X592720Y457432D01*
X592720Y442640D02*
X589360Y439280D01*
X580360Y439280D01*
X544800Y436740D02*
X539720Y441820D01*
X544800Y436740D02*
X544800Y384260D01*
X542040Y381500D01*
X542040Y320640D01*
X531840Y310440D01*
X592720Y457432D02*
X592754Y457438D01*
D27*
X580360Y439280D03*
X539720Y441820D03*
X531840Y310440D03*
D26*
X567320Y457471D02*
X567320Y470620D01*
X560360Y477580D01*
X540520Y477580D01*
X567320Y457471D02*
X567354Y457438D01*
D27*
X540520Y477580D03*
D26*
X704820Y665340D02*
X703500Y667300D01*
D29*
X415900Y613200D02*
X415700Y613400D01*
X415900Y613200D02*
X415900Y577300D01*
X722900Y630000D02*
X722900Y647260D01*
X722900Y630000D02*
X706300Y613400D01*
X704700Y613400D01*
X722900Y647260D02*
X704820Y665340D01*
X704700Y613400D02*
X704300Y613000D01*
X704300Y577300D01*
D26*
X694660Y482460D02*
X717520Y459600D01*
X694660Y482460D02*
X693214Y483638D01*
X717534Y460738D02*
X717520Y459600D01*
X703440Y505320D02*
X694660Y505320D01*
X703440Y505320D02*
X717483Y491277D01*
X694660Y505320D02*
X693214Y505638D01*
X717483Y491277D02*
X717534Y486138D01*
X605760Y363080D02*
X605760Y350380D01*
X650800Y305340D01*
X672480Y305340D01*
X717520Y350380D01*
X605760Y363080D02*
X605454Y364338D01*
X717520Y350380D02*
X718374Y352338D01*
X628620Y472300D02*
X636240Y479920D01*
X628620Y472300D02*
X621280Y472300D01*
X618460Y469480D01*
X618460Y459600D01*
X618154Y457438D01*
D27*
X636240Y479920D03*
D26*
X455800Y459000D02*
X455800Y450366D01*
X455800Y459000D02*
X457200Y460400D01*
D27*
X457200Y460400D03*
X618300Y439000D03*
D26*
X618154Y439146D01*
X618154Y457438D01*
X694660Y401180D02*
X717520Y401180D01*
X694660Y401180D02*
X692300Y399600D01*
X717520Y401180D02*
X718374Y403138D01*
X468100Y474800D02*
X467600Y474300D01*
X445400Y474300D01*
X468100Y474800D02*
X468100Y461800D01*
X465800Y459500D02*
X465800Y450366D01*
X465800Y459500D02*
X468100Y461800D01*
X450800Y456000D02*
X446900Y459900D01*
X446900Y460500D01*
D27*
X446900Y460500D03*
D26*
X450800Y456000D02*
X450800Y450366D01*
D25*
X429800Y432800D02*
X422900Y432800D01*
X405000Y450700D01*
X405000Y503500D01*
D28*
X425020Y432800D02*
X429800Y432800D01*
D29*
X452460Y531620D02*
X483165Y531620D01*
D26*
X452460Y531620D02*
X450820Y533260D01*
X483165Y531620D02*
X484500Y529840D01*
X450820Y533260D02*
X448900Y535500D01*
D25*
X448280Y533260D02*
X434760Y533260D01*
X405000Y503500D01*
D26*
X448280Y533260D02*
X448900Y535500D01*
X450820Y573900D02*
X450820Y609460D01*
X450820Y573900D02*
X448900Y571500D01*
X450820Y609460D02*
X450900Y611800D01*
X494000Y568820D02*
X494000Y550160D01*
X494000Y568820D02*
X495100Y570600D01*
X448900Y570960D02*
X448900Y571500D01*
D28*
X448900Y570960D02*
X434960Y570960D01*
X415900Y551900D01*
D29*
X496000Y552160D02*
X506140Y552160D01*
D26*
X496000Y552160D02*
X494000Y550160D01*
X506140Y552160D02*
X506300Y552000D01*
D27*
X506300Y552000D03*
D26*
X476220Y551040D02*
X476220Y568820D01*
X476220Y551040D02*
X475000Y550160D01*
X476220Y568820D02*
X476100Y570600D01*
X587000Y581900D02*
X587000Y486900D01*
X587000Y581900D02*
X583600Y585300D01*
D27*
X583600Y585300D03*
X496820Y591622D03*
D26*
X476100Y580200D02*
X476100Y570600D01*
X487522Y591622D02*
X496820Y591622D01*
X487522Y591622D02*
X476100Y580200D01*
X580054Y479954D02*
X587000Y486900D01*
X580054Y479954D02*
X580054Y457438D01*
X656560Y591680D02*
X656560Y606920D01*
X657300Y608740D01*
X656560Y591680D02*
X658300Y590600D01*
X656560Y589140D02*
X656560Y526280D01*
X605760Y475480D01*
X605760Y459600D01*
X656560Y589140D02*
X658300Y590600D01*
X605760Y459600D02*
X605454Y457438D01*
D27*
X370000Y440000D03*
X369900Y376800D03*
D30*
X379200Y430800D02*
X370000Y440000D01*
X379200Y430800D02*
X379200Y404200D01*
X379200Y387100D01*
X369900Y377800D01*
X369900Y376800D01*
M02*
