M48
;GenerationSoftware,Autodesk,EAGLE,9.6.2*%
;CreationDate,2024-08-14T21:42:47Z*%
FMAT,2
ICI,OFF
METRIC,TZ,000.000
T3C0.350
T2C1.016
T1C2.600
%
G90
M71
T1
X10000Y73500
X3000Y9500
X33000Y9500
X41000Y9500
X71000Y9500
X64000Y73500
X26000Y73500
X48000Y73500
T2
X32430Y55190
X33837Y40314
X33837Y37774
X33837Y35234
X33753Y43534
X33753Y46074
X33753Y48614
X33753Y51154
X21810Y66950
X19270Y66950
X16730Y66950
X14190Y66950
X32470Y61340
X32470Y63880
X3570Y61340
X3570Y63880
X3590Y57730
X3590Y55190
X32430Y57730
X71837Y40314
X71837Y37774
X71837Y35234
X71753Y43534
X71753Y46074
X71753Y48614
X71753Y51154
X59810Y66950
X57270Y66950
X54730Y66950
X52190Y66950
X70470Y61340
X70470Y63880
X41570Y61340
X41570Y63880
X41590Y57730
X41590Y55190
X70430Y57730
X70430Y55190
T3
X7720Y46040
X23830Y43900
X6690Y46050
X12630Y55200
X20360Y58530
X11682Y59162
X56512Y31736
X48384Y47484
X41940Y47350
X41590Y37360
X57710Y53830
X36990Y45160
X55572Y40980
X44518Y34316
X67942Y46976
X65910Y50278
X67180Y58406
X43120Y48860
X49400Y41890
X53718Y16242
X51178Y22846
X60322Y15988
X62354Y60946
X67688Y37832
X67688Y42658
X49146Y14972
X37000Y31000
X65402Y34530
X67072Y32738
X66672Y24116
X11146Y14972
X52702Y3542
X52702Y8876
X57528Y40118
X45844Y30466
X54988Y5574
X57274Y34784
X59814Y33514
X52956Y20052
X66140Y31656
X63624Y23100
X61846Y23354
X55496Y42364
X62862Y42658
X62354Y39356
X61084Y38086
X59560Y34530
X58036Y43928
X53972Y44182
X53184Y31044
X54052Y47758
X63624Y47992
X45720Y46040
X61830Y43900
X44690Y46050
X50630Y55200
X58360Y58530
X49682Y59162
X37000Y44000
X36990Y37680
X18512Y31736
X10384Y47484
X3940Y47350
X3590Y37360
X19710Y53830
X37000Y32290
X17572Y40980
X6518Y34316
X29942Y46976
X27910Y50278
X29180Y58406
X5120Y48860
X11400Y41890
X15718Y16242
X13178Y22846
X22322Y15988
X24354Y60946
X29688Y37832
X29688Y42658
X27402Y34530
X29072Y32738
X28672Y24116
X20290Y16242
X14702Y3542
X14702Y8876
X19528Y40118
X58290Y16242
X7844Y30466
X16988Y5574
X19274Y34784
X21814Y33514
X14956Y20052
X28140Y31656
X25624Y23100
X23846Y23354
X17496Y42364
X37000Y39000
X24862Y42658
X24354Y39356
X23084Y38086
X21560Y34530
X20036Y43928
X15972Y44182
X15184Y31044
X16052Y47758
X25624Y47992
M30