G04 EAGLE Gerber RS-274X export*
G75*
%MOMM*%
%FSLAX34Y34*%
%LPD*%
%INSoldermask Bottom*%
%IPPOS*%
%AMOC8*
5,1,8,0,0,1.08239X$1,22.5*%
G01*
%ADD10C,2.803200*%
%ADD11R,2.403200X2.203200*%
%ADD12R,1.727200X1.727200*%
%ADD13P,1.869504X8X292.500000*%
%ADD14P,1.869504X8X112.500000*%
%ADD15R,1.703200X1.503200*%
%ADD16C,0.353406*%
%ADD17P,1.869504X8X202.500000*%
%ADD18C,2.003200*%
%ADD19R,1.981200X2.235200*%
%ADD20R,1.503200X1.703200*%
%ADD21R,2.303200X1.703200*%
%ADD22R,0.420000X0.760000*%
%ADD23R,1.703200X4.703200*%
%ADD24R,1.803200X1.503200*%
%ADD25R,0.914400X1.303200*%


D10*
X30000Y95000D03*
X330000Y95000D03*
X410000Y95000D03*
X710000Y95000D03*
X100000Y735000D03*
X260000Y735000D03*
X480000Y735000D03*
X640000Y735000D03*
D11*
X139696Y394622D03*
X139696Y364622D03*
D12*
X338374Y403138D03*
D13*
X338374Y377738D03*
X338374Y352338D03*
D12*
X337534Y435338D03*
D14*
X337534Y460738D03*
X337534Y486138D03*
X337534Y511538D03*
D15*
X312600Y440900D03*
X312600Y459900D03*
X312200Y376400D03*
X312200Y357400D03*
D16*
X172405Y447939D02*
X172405Y466937D01*
X176903Y466937D01*
X176903Y447939D01*
X172405Y447939D01*
X172405Y451296D02*
X176903Y451296D01*
X176903Y454653D02*
X172405Y454653D01*
X172405Y458010D02*
X176903Y458010D01*
X176903Y461367D02*
X172405Y461367D01*
X172405Y464724D02*
X176903Y464724D01*
X185105Y466937D02*
X185105Y447939D01*
X185105Y466937D02*
X189603Y466937D01*
X189603Y447939D01*
X185105Y447939D01*
X185105Y451296D02*
X189603Y451296D01*
X189603Y454653D02*
X185105Y454653D01*
X185105Y458010D02*
X189603Y458010D01*
X189603Y461367D02*
X185105Y461367D01*
X185105Y464724D02*
X189603Y464724D01*
X197805Y466937D02*
X197805Y447939D01*
X197805Y466937D02*
X202303Y466937D01*
X202303Y447939D01*
X197805Y447939D01*
X197805Y451296D02*
X202303Y451296D01*
X202303Y454653D02*
X197805Y454653D01*
X197805Y458010D02*
X202303Y458010D01*
X202303Y461367D02*
X197805Y461367D01*
X197805Y464724D02*
X202303Y464724D01*
X210505Y466937D02*
X210505Y447939D01*
X210505Y466937D02*
X215003Y466937D01*
X215003Y447939D01*
X210505Y447939D01*
X210505Y451296D02*
X215003Y451296D01*
X215003Y454653D02*
X210505Y454653D01*
X210505Y458010D02*
X215003Y458010D01*
X215003Y461367D02*
X210505Y461367D01*
X210505Y464724D02*
X215003Y464724D01*
X223205Y466937D02*
X223205Y447939D01*
X223205Y466937D02*
X227703Y466937D01*
X227703Y447939D01*
X223205Y447939D01*
X223205Y451296D02*
X227703Y451296D01*
X227703Y454653D02*
X223205Y454653D01*
X223205Y458010D02*
X227703Y458010D01*
X227703Y461367D02*
X223205Y461367D01*
X223205Y464724D02*
X227703Y464724D01*
X235905Y466937D02*
X235905Y447939D01*
X235905Y466937D02*
X240403Y466937D01*
X240403Y447939D01*
X235905Y447939D01*
X235905Y451296D02*
X240403Y451296D01*
X240403Y454653D02*
X235905Y454653D01*
X235905Y458010D02*
X240403Y458010D01*
X240403Y461367D02*
X235905Y461367D01*
X235905Y464724D02*
X240403Y464724D01*
X248605Y466937D02*
X248605Y447939D01*
X248605Y466937D02*
X253103Y466937D01*
X253103Y447939D01*
X248605Y447939D01*
X248605Y451296D02*
X253103Y451296D01*
X253103Y454653D02*
X248605Y454653D01*
X248605Y458010D02*
X253103Y458010D01*
X253103Y461367D02*
X248605Y461367D01*
X248605Y464724D02*
X253103Y464724D01*
X261305Y466937D02*
X261305Y447939D01*
X261305Y466937D02*
X265803Y466937D01*
X265803Y447939D01*
X261305Y447939D01*
X261305Y451296D02*
X265803Y451296D01*
X265803Y454653D02*
X261305Y454653D01*
X261305Y458010D02*
X265803Y458010D01*
X265803Y461367D02*
X261305Y461367D01*
X261305Y464724D02*
X265803Y464724D01*
X274005Y466937D02*
X274005Y447939D01*
X274005Y466937D02*
X278503Y466937D01*
X278503Y447939D01*
X274005Y447939D01*
X274005Y451296D02*
X278503Y451296D01*
X278503Y454653D02*
X274005Y454653D01*
X274005Y458010D02*
X278503Y458010D01*
X278503Y461367D02*
X274005Y461367D01*
X274005Y464724D02*
X278503Y464724D01*
X286705Y466937D02*
X286705Y447939D01*
X286705Y466937D02*
X291203Y466937D01*
X291203Y447939D01*
X286705Y447939D01*
X286705Y451296D02*
X291203Y451296D01*
X291203Y454653D02*
X286705Y454653D01*
X286705Y458010D02*
X291203Y458010D01*
X291203Y461367D02*
X286705Y461367D01*
X286705Y464724D02*
X291203Y464724D01*
X286705Y373837D02*
X286705Y354839D01*
X286705Y373837D02*
X291203Y373837D01*
X291203Y354839D01*
X286705Y354839D01*
X286705Y358196D02*
X291203Y358196D01*
X291203Y361553D02*
X286705Y361553D01*
X286705Y364910D02*
X291203Y364910D01*
X291203Y368267D02*
X286705Y368267D01*
X286705Y371624D02*
X291203Y371624D01*
X274005Y373837D02*
X274005Y354839D01*
X274005Y373837D02*
X278503Y373837D01*
X278503Y354839D01*
X274005Y354839D01*
X274005Y358196D02*
X278503Y358196D01*
X278503Y361553D02*
X274005Y361553D01*
X274005Y364910D02*
X278503Y364910D01*
X278503Y368267D02*
X274005Y368267D01*
X274005Y371624D02*
X278503Y371624D01*
X261305Y373837D02*
X261305Y354839D01*
X261305Y373837D02*
X265803Y373837D01*
X265803Y354839D01*
X261305Y354839D01*
X261305Y358196D02*
X265803Y358196D01*
X265803Y361553D02*
X261305Y361553D01*
X261305Y364910D02*
X265803Y364910D01*
X265803Y368267D02*
X261305Y368267D01*
X261305Y371624D02*
X265803Y371624D01*
X248605Y373837D02*
X248605Y354839D01*
X248605Y373837D02*
X253103Y373837D01*
X253103Y354839D01*
X248605Y354839D01*
X248605Y358196D02*
X253103Y358196D01*
X253103Y361553D02*
X248605Y361553D01*
X248605Y364910D02*
X253103Y364910D01*
X253103Y368267D02*
X248605Y368267D01*
X248605Y371624D02*
X253103Y371624D01*
X235905Y373837D02*
X235905Y354839D01*
X235905Y373837D02*
X240403Y373837D01*
X240403Y354839D01*
X235905Y354839D01*
X235905Y358196D02*
X240403Y358196D01*
X240403Y361553D02*
X235905Y361553D01*
X235905Y364910D02*
X240403Y364910D01*
X240403Y368267D02*
X235905Y368267D01*
X235905Y371624D02*
X240403Y371624D01*
X223205Y373837D02*
X223205Y354839D01*
X223205Y373837D02*
X227703Y373837D01*
X227703Y354839D01*
X223205Y354839D01*
X223205Y358196D02*
X227703Y358196D01*
X227703Y361553D02*
X223205Y361553D01*
X223205Y364910D02*
X227703Y364910D01*
X227703Y368267D02*
X223205Y368267D01*
X223205Y371624D02*
X227703Y371624D01*
X210505Y373837D02*
X210505Y354839D01*
X210505Y373837D02*
X215003Y373837D01*
X215003Y354839D01*
X210505Y354839D01*
X210505Y358196D02*
X215003Y358196D01*
X215003Y361553D02*
X210505Y361553D01*
X210505Y364910D02*
X215003Y364910D01*
X215003Y368267D02*
X210505Y368267D01*
X210505Y371624D02*
X215003Y371624D01*
X197805Y373837D02*
X197805Y354839D01*
X197805Y373837D02*
X202303Y373837D01*
X202303Y354839D01*
X197805Y354839D01*
X197805Y358196D02*
X202303Y358196D01*
X202303Y361553D02*
X197805Y361553D01*
X197805Y364910D02*
X202303Y364910D01*
X202303Y368267D02*
X197805Y368267D01*
X197805Y371624D02*
X202303Y371624D01*
X185105Y373837D02*
X185105Y354839D01*
X185105Y373837D02*
X189603Y373837D01*
X189603Y354839D01*
X185105Y354839D01*
X185105Y358196D02*
X189603Y358196D01*
X189603Y361553D02*
X185105Y361553D01*
X185105Y364910D02*
X189603Y364910D01*
X189603Y368267D02*
X185105Y368267D01*
X185105Y371624D02*
X189603Y371624D01*
X172405Y373837D02*
X172405Y354839D01*
X172405Y373837D02*
X176903Y373837D01*
X176903Y354839D01*
X172405Y354839D01*
X172405Y358196D02*
X176903Y358196D01*
X176903Y361553D02*
X172405Y361553D01*
X172405Y364910D02*
X176903Y364910D01*
X176903Y368267D02*
X172405Y368267D01*
X172405Y371624D02*
X176903Y371624D01*
D15*
X255400Y245000D03*
X255400Y264000D03*
D12*
X218100Y669500D03*
D17*
X192700Y669500D03*
X167300Y669500D03*
X141900Y669500D03*
D18*
X323500Y667300D03*
X184500Y527900D03*
X138700Y696200D03*
X152600Y528200D03*
D19*
X129200Y265000D03*
X154600Y265000D03*
X180000Y265000D03*
X205400Y265000D03*
X230800Y265000D03*
D15*
X128000Y291500D03*
X128000Y310500D03*
D20*
X103500Y289000D03*
X84500Y289000D03*
X313214Y483638D03*
X294214Y483638D03*
X313214Y505638D03*
X294214Y505638D03*
D12*
X324700Y613400D03*
D14*
X324700Y638800D03*
D12*
X35700Y613400D03*
D14*
X35700Y638800D03*
D21*
X70900Y611800D03*
X70900Y647800D03*
D15*
X312300Y418600D03*
X312300Y399600D03*
D22*
X85800Y435650D03*
X80800Y435650D03*
X75800Y435650D03*
X70800Y435650D03*
X70800Y450350D03*
X75800Y450350D03*
X80800Y450350D03*
X85800Y450350D03*
D23*
X96100Y385700D03*
X58100Y385700D03*
D15*
X49800Y432800D03*
X49800Y451800D03*
X103800Y433000D03*
X103800Y452000D03*
X124200Y433000D03*
X124200Y452000D03*
D24*
X65400Y474300D03*
X65400Y493300D03*
X88100Y493800D03*
X88100Y474800D03*
D21*
X150000Y425100D03*
X150000Y461100D03*
X68900Y571500D03*
X68900Y535500D03*
D12*
X35900Y577300D03*
D13*
X35900Y551900D03*
D12*
X324300Y577300D03*
D13*
X324300Y551900D03*
D25*
X95000Y550160D03*
X114000Y550160D03*
X104500Y529840D03*
D20*
X96100Y570600D03*
X115100Y570600D03*
D25*
X277300Y608740D03*
X258300Y608740D03*
X267800Y629060D03*
D20*
X259300Y590600D03*
X278300Y590600D03*
D18*
X230400Y590800D03*
D11*
X519696Y394622D03*
X519696Y364622D03*
D12*
X718374Y403138D03*
D13*
X718374Y377738D03*
X718374Y352338D03*
D12*
X717534Y435338D03*
D14*
X717534Y460738D03*
X717534Y486138D03*
X717534Y511538D03*
D15*
X692600Y440900D03*
X692600Y459900D03*
X692200Y376400D03*
X692200Y357400D03*
D16*
X552405Y447939D02*
X552405Y466937D01*
X556903Y466937D01*
X556903Y447939D01*
X552405Y447939D01*
X552405Y451296D02*
X556903Y451296D01*
X556903Y454653D02*
X552405Y454653D01*
X552405Y458010D02*
X556903Y458010D01*
X556903Y461367D02*
X552405Y461367D01*
X552405Y464724D02*
X556903Y464724D01*
X565105Y466937D02*
X565105Y447939D01*
X565105Y466937D02*
X569603Y466937D01*
X569603Y447939D01*
X565105Y447939D01*
X565105Y451296D02*
X569603Y451296D01*
X569603Y454653D02*
X565105Y454653D01*
X565105Y458010D02*
X569603Y458010D01*
X569603Y461367D02*
X565105Y461367D01*
X565105Y464724D02*
X569603Y464724D01*
X577805Y466937D02*
X577805Y447939D01*
X577805Y466937D02*
X582303Y466937D01*
X582303Y447939D01*
X577805Y447939D01*
X577805Y451296D02*
X582303Y451296D01*
X582303Y454653D02*
X577805Y454653D01*
X577805Y458010D02*
X582303Y458010D01*
X582303Y461367D02*
X577805Y461367D01*
X577805Y464724D02*
X582303Y464724D01*
X590505Y466937D02*
X590505Y447939D01*
X590505Y466937D02*
X595003Y466937D01*
X595003Y447939D01*
X590505Y447939D01*
X590505Y451296D02*
X595003Y451296D01*
X595003Y454653D02*
X590505Y454653D01*
X590505Y458010D02*
X595003Y458010D01*
X595003Y461367D02*
X590505Y461367D01*
X590505Y464724D02*
X595003Y464724D01*
X603205Y466937D02*
X603205Y447939D01*
X603205Y466937D02*
X607703Y466937D01*
X607703Y447939D01*
X603205Y447939D01*
X603205Y451296D02*
X607703Y451296D01*
X607703Y454653D02*
X603205Y454653D01*
X603205Y458010D02*
X607703Y458010D01*
X607703Y461367D02*
X603205Y461367D01*
X603205Y464724D02*
X607703Y464724D01*
X615905Y466937D02*
X615905Y447939D01*
X615905Y466937D02*
X620403Y466937D01*
X620403Y447939D01*
X615905Y447939D01*
X615905Y451296D02*
X620403Y451296D01*
X620403Y454653D02*
X615905Y454653D01*
X615905Y458010D02*
X620403Y458010D01*
X620403Y461367D02*
X615905Y461367D01*
X615905Y464724D02*
X620403Y464724D01*
X628605Y466937D02*
X628605Y447939D01*
X628605Y466937D02*
X633103Y466937D01*
X633103Y447939D01*
X628605Y447939D01*
X628605Y451296D02*
X633103Y451296D01*
X633103Y454653D02*
X628605Y454653D01*
X628605Y458010D02*
X633103Y458010D01*
X633103Y461367D02*
X628605Y461367D01*
X628605Y464724D02*
X633103Y464724D01*
X641305Y466937D02*
X641305Y447939D01*
X641305Y466937D02*
X645803Y466937D01*
X645803Y447939D01*
X641305Y447939D01*
X641305Y451296D02*
X645803Y451296D01*
X645803Y454653D02*
X641305Y454653D01*
X641305Y458010D02*
X645803Y458010D01*
X645803Y461367D02*
X641305Y461367D01*
X641305Y464724D02*
X645803Y464724D01*
X654005Y466937D02*
X654005Y447939D01*
X654005Y466937D02*
X658503Y466937D01*
X658503Y447939D01*
X654005Y447939D01*
X654005Y451296D02*
X658503Y451296D01*
X658503Y454653D02*
X654005Y454653D01*
X654005Y458010D02*
X658503Y458010D01*
X658503Y461367D02*
X654005Y461367D01*
X654005Y464724D02*
X658503Y464724D01*
X666705Y466937D02*
X666705Y447939D01*
X666705Y466937D02*
X671203Y466937D01*
X671203Y447939D01*
X666705Y447939D01*
X666705Y451296D02*
X671203Y451296D01*
X671203Y454653D02*
X666705Y454653D01*
X666705Y458010D02*
X671203Y458010D01*
X671203Y461367D02*
X666705Y461367D01*
X666705Y464724D02*
X671203Y464724D01*
X666705Y373837D02*
X666705Y354839D01*
X666705Y373837D02*
X671203Y373837D01*
X671203Y354839D01*
X666705Y354839D01*
X666705Y358196D02*
X671203Y358196D01*
X671203Y361553D02*
X666705Y361553D01*
X666705Y364910D02*
X671203Y364910D01*
X671203Y368267D02*
X666705Y368267D01*
X666705Y371624D02*
X671203Y371624D01*
X654005Y373837D02*
X654005Y354839D01*
X654005Y373837D02*
X658503Y373837D01*
X658503Y354839D01*
X654005Y354839D01*
X654005Y358196D02*
X658503Y358196D01*
X658503Y361553D02*
X654005Y361553D01*
X654005Y364910D02*
X658503Y364910D01*
X658503Y368267D02*
X654005Y368267D01*
X654005Y371624D02*
X658503Y371624D01*
X641305Y373837D02*
X641305Y354839D01*
X641305Y373837D02*
X645803Y373837D01*
X645803Y354839D01*
X641305Y354839D01*
X641305Y358196D02*
X645803Y358196D01*
X645803Y361553D02*
X641305Y361553D01*
X641305Y364910D02*
X645803Y364910D01*
X645803Y368267D02*
X641305Y368267D01*
X641305Y371624D02*
X645803Y371624D01*
X628605Y373837D02*
X628605Y354839D01*
X628605Y373837D02*
X633103Y373837D01*
X633103Y354839D01*
X628605Y354839D01*
X628605Y358196D02*
X633103Y358196D01*
X633103Y361553D02*
X628605Y361553D01*
X628605Y364910D02*
X633103Y364910D01*
X633103Y368267D02*
X628605Y368267D01*
X628605Y371624D02*
X633103Y371624D01*
X615905Y373837D02*
X615905Y354839D01*
X615905Y373837D02*
X620403Y373837D01*
X620403Y354839D01*
X615905Y354839D01*
X615905Y358196D02*
X620403Y358196D01*
X620403Y361553D02*
X615905Y361553D01*
X615905Y364910D02*
X620403Y364910D01*
X620403Y368267D02*
X615905Y368267D01*
X615905Y371624D02*
X620403Y371624D01*
X603205Y373837D02*
X603205Y354839D01*
X603205Y373837D02*
X607703Y373837D01*
X607703Y354839D01*
X603205Y354839D01*
X603205Y358196D02*
X607703Y358196D01*
X607703Y361553D02*
X603205Y361553D01*
X603205Y364910D02*
X607703Y364910D01*
X607703Y368267D02*
X603205Y368267D01*
X603205Y371624D02*
X607703Y371624D01*
X590505Y373837D02*
X590505Y354839D01*
X590505Y373837D02*
X595003Y373837D01*
X595003Y354839D01*
X590505Y354839D01*
X590505Y358196D02*
X595003Y358196D01*
X595003Y361553D02*
X590505Y361553D01*
X590505Y364910D02*
X595003Y364910D01*
X595003Y368267D02*
X590505Y368267D01*
X590505Y371624D02*
X595003Y371624D01*
X577805Y373837D02*
X577805Y354839D01*
X577805Y373837D02*
X582303Y373837D01*
X582303Y354839D01*
X577805Y354839D01*
X577805Y358196D02*
X582303Y358196D01*
X582303Y361553D02*
X577805Y361553D01*
X577805Y364910D02*
X582303Y364910D01*
X582303Y368267D02*
X577805Y368267D01*
X577805Y371624D02*
X582303Y371624D01*
X565105Y373837D02*
X565105Y354839D01*
X565105Y373837D02*
X569603Y373837D01*
X569603Y354839D01*
X565105Y354839D01*
X565105Y358196D02*
X569603Y358196D01*
X569603Y361553D02*
X565105Y361553D01*
X565105Y364910D02*
X569603Y364910D01*
X569603Y368267D02*
X565105Y368267D01*
X565105Y371624D02*
X569603Y371624D01*
X552405Y373837D02*
X552405Y354839D01*
X552405Y373837D02*
X556903Y373837D01*
X556903Y354839D01*
X552405Y354839D01*
X552405Y358196D02*
X556903Y358196D01*
X556903Y361553D02*
X552405Y361553D01*
X552405Y364910D02*
X556903Y364910D01*
X556903Y368267D02*
X552405Y368267D01*
X552405Y371624D02*
X556903Y371624D01*
D15*
X635400Y245000D03*
X635400Y264000D03*
D12*
X598100Y669500D03*
D17*
X572700Y669500D03*
X547300Y669500D03*
X521900Y669500D03*
D18*
X703500Y667300D03*
X564500Y527900D03*
X518700Y696200D03*
X532600Y528200D03*
D19*
X509200Y265000D03*
X534600Y265000D03*
X560000Y265000D03*
X585400Y265000D03*
X610800Y265000D03*
D15*
X508000Y291500D03*
X508000Y310500D03*
D20*
X483500Y289000D03*
X464500Y289000D03*
X693214Y483638D03*
X674214Y483638D03*
X693214Y505638D03*
X674214Y505638D03*
D12*
X704700Y613400D03*
D14*
X704700Y638800D03*
D12*
X415700Y613400D03*
D14*
X415700Y638800D03*
D21*
X450900Y611800D03*
X450900Y647800D03*
D15*
X692300Y418600D03*
X692300Y399600D03*
D22*
X465800Y435650D03*
X460800Y435650D03*
X455800Y435650D03*
X450800Y435650D03*
X450800Y450350D03*
X455800Y450350D03*
X460800Y450350D03*
X465800Y450350D03*
D23*
X476100Y385700D03*
X438100Y385700D03*
D15*
X429800Y432800D03*
X429800Y451800D03*
X483800Y433000D03*
X483800Y452000D03*
X504200Y433000D03*
X504200Y452000D03*
D24*
X445400Y474300D03*
X445400Y493300D03*
X468100Y493800D03*
X468100Y474800D03*
D21*
X530000Y425100D03*
X530000Y461100D03*
X448900Y571500D03*
X448900Y535500D03*
D12*
X415900Y577300D03*
D13*
X415900Y551900D03*
D12*
X704300Y577300D03*
D13*
X704300Y551900D03*
D25*
X475000Y550160D03*
X494000Y550160D03*
X484500Y529840D03*
D20*
X476100Y570600D03*
X495100Y570600D03*
D25*
X657300Y608740D03*
X638300Y608740D03*
X647800Y629060D03*
D20*
X639300Y590600D03*
X658300Y590600D03*
D18*
X610400Y590800D03*
M02*
