G04 EAGLE Gerber RS-274X export*
G75*
%MOMM*%
%FSLAX34Y34*%
%LPD*%
%INSolderpaste Top*%
%IPPOS*%
%AMOC8*
5,1,8,0,0,1.08239X$1,22.5*%
G01*
%ADD10R,1.300000X1.500000*%
%ADD11R,1.550000X1.200000*%
%ADD12R,1.500000X1.300000*%
%ADD13R,1.300000X1.600000*%


D10*
X231500Y285600D03*
X250500Y285600D03*
D11*
X153000Y323500D03*
X207000Y323500D03*
X153000Y286500D03*
X207000Y286500D03*
D10*
X231500Y331900D03*
X250500Y331900D03*
X250500Y308900D03*
X231500Y308900D03*
D11*
X153000Y213500D03*
X207000Y213500D03*
X153000Y176500D03*
X207000Y176500D03*
D12*
X203500Y149000D03*
X203500Y130000D03*
X155800Y129700D03*
X155800Y148700D03*
X179300Y148800D03*
X179300Y129800D03*
D11*
X153000Y103500D03*
X207000Y103500D03*
X153000Y66500D03*
X207000Y66500D03*
D12*
X207800Y42400D03*
X207800Y23400D03*
X162500Y22900D03*
X162500Y41900D03*
X185000Y42300D03*
X185000Y23300D03*
D11*
X43000Y213500D03*
X97000Y213500D03*
X43000Y176500D03*
X97000Y176500D03*
D10*
X134800Y172400D03*
X115800Y172400D03*
X115300Y214400D03*
X134300Y214400D03*
X134400Y194000D03*
X115400Y194000D03*
D11*
X263000Y213500D03*
X317000Y213500D03*
X263000Y176500D03*
X317000Y176500D03*
D10*
X225200Y219300D03*
X244200Y219300D03*
X244200Y174900D03*
X225200Y174900D03*
X225500Y197200D03*
X244500Y197200D03*
D11*
X43000Y323500D03*
X97000Y323500D03*
X43000Y286500D03*
X97000Y286500D03*
D12*
X92300Y239500D03*
X92300Y258500D03*
X43200Y258700D03*
X43200Y239700D03*
X68300Y239500D03*
X68300Y258500D03*
X174100Y480800D03*
X174100Y499800D03*
X218800Y481200D03*
X218800Y500200D03*
X196500Y481100D03*
X196500Y500100D03*
X241500Y500200D03*
X241500Y481200D03*
D13*
X87700Y474500D03*
X68700Y474500D03*
D10*
X611500Y285600D03*
X630500Y285600D03*
D11*
X533000Y323500D03*
X587000Y323500D03*
X533000Y286500D03*
X587000Y286500D03*
D10*
X611500Y331900D03*
X630500Y331900D03*
X630500Y308900D03*
X611500Y308900D03*
D11*
X533000Y213500D03*
X587000Y213500D03*
X533000Y176500D03*
X587000Y176500D03*
D12*
X583500Y149000D03*
X583500Y130000D03*
X535800Y129700D03*
X535800Y148700D03*
X559300Y148800D03*
X559300Y129800D03*
D11*
X533000Y103500D03*
X587000Y103500D03*
X533000Y66500D03*
X587000Y66500D03*
D12*
X587800Y42400D03*
X587800Y23400D03*
X542500Y22900D03*
X542500Y41900D03*
X565000Y42300D03*
X565000Y23300D03*
D11*
X423000Y213500D03*
X477000Y213500D03*
X423000Y176500D03*
X477000Y176500D03*
D10*
X514800Y172400D03*
X495800Y172400D03*
X495300Y214400D03*
X514300Y214400D03*
X514400Y194000D03*
X495400Y194000D03*
D11*
X643000Y213500D03*
X697000Y213500D03*
X643000Y176500D03*
X697000Y176500D03*
D10*
X605200Y219300D03*
X624200Y219300D03*
X624200Y174900D03*
X605200Y174900D03*
X605500Y197200D03*
X624500Y197200D03*
D11*
X423000Y323500D03*
X477000Y323500D03*
X423000Y286500D03*
X477000Y286500D03*
D12*
X472300Y239500D03*
X472300Y258500D03*
X423200Y258700D03*
X423200Y239700D03*
X448300Y239500D03*
X448300Y258500D03*
X554100Y480800D03*
X554100Y499800D03*
X598800Y481200D03*
X598800Y500200D03*
X576500Y481100D03*
X576500Y500100D03*
X621500Y500200D03*
X621500Y481200D03*
D13*
X467700Y474500D03*
X448700Y474500D03*
M02*
